G04 #@! TF.GenerationSoftware,KiCad,Pcbnew,8.0.4*
G04 #@! TF.CreationDate,2024-08-23T15:34:52+12:00*
G04 #@! TF.ProjectId,firefish,66697265-6669-4736-982e-6b696361645f,v0.1*
G04 #@! TF.SameCoordinates,Original*
G04 #@! TF.FileFunction,Legend,Top*
G04 #@! TF.FilePolarity,Positive*
%FSLAX46Y46*%
G04 Gerber Fmt 4.6, Leading zero omitted, Abs format (unit mm)*
G04 Created by KiCad (PCBNEW 8.0.4) date 2024-08-23 15:34:52*
%MOMM*%
%LPD*%
G01*
G04 APERTURE LIST*
G04 Aperture macros list*
%AMRoundRect*
0 Rectangle with rounded corners*
0 $1 Rounding radius*
0 $2 $3 $4 $5 $6 $7 $8 $9 X,Y pos of 4 corners*
0 Add a 4 corners polygon primitive as box body*
4,1,4,$2,$3,$4,$5,$6,$7,$8,$9,$2,$3,0*
0 Add four circle primitives for the rounded corners*
1,1,$1+$1,$2,$3*
1,1,$1+$1,$4,$5*
1,1,$1+$1,$6,$7*
1,1,$1+$1,$8,$9*
0 Add four rect primitives between the rounded corners*
20,1,$1+$1,$2,$3,$4,$5,0*
20,1,$1+$1,$4,$5,$6,$7,0*
20,1,$1+$1,$6,$7,$8,$9,0*
20,1,$1+$1,$8,$9,$2,$3,0*%
%AMFreePoly0*
4,1,35,0.535921,0.785921,0.550800,0.750000,0.550800,-0.750000,0.535921,-0.785921,0.500000,-0.800800,0.000000,-0.800800,-0.012286,-0.795711,-0.071157,-0.795711,-0.085469,-0.793653,-0.222020,-0.753558,-0.235173,-0.747552,-0.354895,-0.670611,-0.365822,-0.661142,-0.459019,-0.553587,-0.466836,-0.541423,-0.525955,-0.411969,-0.530029,-0.398096,-0.550283,-0.257230,-0.550800,-0.250000,-0.550800,0.250000,
-0.550283,0.257230,-0.530029,0.398096,-0.525955,0.411969,-0.466836,0.541423,-0.459019,0.553587,-0.365822,0.661142,-0.354895,0.670611,-0.235173,0.747552,-0.222020,0.753558,-0.085469,0.793653,-0.071157,0.795711,-0.012286,0.795711,0.000000,0.800800,0.500000,0.800800,0.535921,0.785921,0.535921,0.785921,$1*%
%AMFreePoly1*
4,1,35,0.012286,0.795711,0.071157,0.795711,0.085469,0.793653,0.222020,0.753558,0.235173,0.747552,0.354895,0.670611,0.365822,0.661142,0.459019,0.553587,0.466836,0.541423,0.525955,0.411969,0.530029,0.398096,0.550283,0.257230,0.550800,0.250000,0.550800,-0.250000,0.550283,-0.257230,0.530029,-0.398096,0.525955,-0.411969,0.466836,-0.541423,0.459019,-0.553587,0.365822,-0.661142,
0.354895,-0.670611,0.235173,-0.747552,0.222020,-0.753558,0.085469,-0.793653,0.071157,-0.795711,0.012286,-0.795711,0.000000,-0.800800,-0.500000,-0.800800,-0.535921,-0.785921,-0.550800,-0.750000,-0.550800,0.750000,-0.535921,0.785921,-0.500000,0.800800,0.000000,0.800800,0.012286,0.795711,0.012286,0.795711,$1*%
G04 Aperture macros list end*
%ADD10C,0.153000*%
%ADD11C,0.120000*%
%ADD12C,0.150000*%
%ADD13C,0.249999*%
%ADD14C,0.203200*%
%ADD15C,0.254000*%
%ADD16C,0.000000*%
%ADD17C,0.127000*%
%ADD18C,0.200000*%
%ADD19C,0.100000*%
%ADD20RoundRect,0.175400X-0.175400X0.687900X-0.175400X-0.687900X0.175400X-0.687900X0.175400X0.687900X0*%
%ADD21RoundRect,0.272087X-0.353713X-0.478713X0.353713X-0.478713X0.353713X0.478713X-0.353713X0.478713X0*%
%ADD22RoundRect,0.272087X0.478713X-0.353713X0.478713X0.353713X-0.478713X0.353713X-0.478713X-0.353713X0*%
%ADD23RoundRect,0.050800X0.949999X-0.299999X0.949999X0.299999X-0.949999X0.299999X-0.949999X-0.299999X0*%
%ADD24RoundRect,0.050800X1.399999X-1.050000X1.399999X1.050000X-1.399999X1.050000X-1.399999X-1.050000X0*%
%ADD25RoundRect,0.272087X0.353713X0.478713X-0.353713X0.478713X-0.353713X-0.478713X0.353713X-0.478713X0*%
%ADD26RoundRect,0.272087X-0.478713X0.353713X-0.478713X-0.353713X0.478713X-0.353713X0.478713X0.353713X0*%
%ADD27RoundRect,0.063500X-0.600000X-0.150000X0.600000X-0.150000X0.600000X0.150000X-0.600000X0.150000X0*%
%ADD28RoundRect,0.063500X-0.150000X-0.600000X0.150000X-0.600000X0.150000X0.600000X-0.150000X0.600000X0*%
%ADD29RoundRect,0.050800X0.200000X-0.595000X0.200000X0.595000X-0.200000X0.595000X-0.200000X-0.595000X0*%
%ADD30RoundRect,0.050800X0.290000X-0.655000X0.290000X0.655000X-0.290000X0.655000X-0.290000X-0.655000X0*%
%ADD31RoundRect,0.050800X-0.400000X0.450000X-0.400000X-0.450000X0.400000X-0.450000X0.400000X0.450000X0*%
%ADD32RoundRect,0.050800X0.550000X0.550000X-0.550000X0.550000X-0.550000X-0.550000X0.550000X-0.550000X0*%
%ADD33RoundRect,0.063500X0.750000X-0.650000X0.750000X0.650000X-0.750000X0.650000X-0.750000X-0.650000X0*%
%ADD34C,1.101600*%
%ADD35RoundRect,0.050800X0.805000X0.305000X-0.805000X0.305000X-0.805000X-0.305000X0.805000X-0.305000X0*%
%ADD36RoundRect,0.175400X-0.850400X-0.175400X0.850400X-0.175400X0.850400X0.175400X-0.850400X0.175400X0*%
%ADD37C,1.601600*%
%ADD38RoundRect,0.275400X-1.225400X0.275400X-1.225400X-0.275400X1.225400X-0.275400X1.225400X0.275400X0*%
%ADD39RoundRect,0.264111X-1.586689X0.686689X-1.586689X-0.686689X1.586689X-0.686689X1.586689X0.686689X0*%
%ADD40RoundRect,0.275400X1.225400X-0.275400X1.225400X0.275400X-1.225400X0.275400X-1.225400X-0.275400X0*%
%ADD41RoundRect,0.264111X1.586689X-0.686689X1.586689X0.686689X-1.586689X0.686689X-1.586689X-0.686689X0*%
%ADD42FreePoly0,180.000000*%
%ADD43FreePoly1,180.000000*%
%ADD44RoundRect,0.063500X0.600000X-0.275000X0.600000X0.275000X-0.600000X0.275000X-0.600000X-0.275000X0*%
%ADD45RoundRect,0.050800X-0.785000X-0.205000X0.785000X-0.205000X0.785000X0.205000X-0.785000X0.205000X0*%
%ADD46RoundRect,0.050800X0.275000X0.572500X-0.275000X0.572500X-0.275000X-0.572500X0.275000X-0.572500X0*%
%ADD47RoundRect,0.050800X0.572500X0.275000X-0.572500X0.275000X-0.572500X-0.275000X0.572500X-0.275000X0*%
%ADD48RoundRect,0.112900X-0.750400X-0.112900X0.750400X-0.112900X0.750400X0.112900X-0.750400X0.112900X0*%
%ADD49RoundRect,0.063500X0.650000X0.750000X-0.650000X0.750000X-0.650000X-0.750000X0.650000X-0.750000X0*%
%ADD50RoundRect,0.275400X0.275400X1.225400X-0.275400X1.225400X-0.275400X-1.225400X0.275400X-1.225400X0*%
%ADD51RoundRect,0.264111X0.686689X1.586689X-0.686689X1.586689X-0.686689X-1.586689X0.686689X-1.586689X0*%
%ADD52RoundRect,0.268815X-0.481985X-0.456985X0.481985X-0.456985X0.481985X0.456985X-0.481985X0.456985X0*%
%ADD53RoundRect,0.050800X0.610000X0.325000X-0.610000X0.325000X-0.610000X-0.325000X0.610000X-0.325000X0*%
%ADD54RoundRect,0.050800X-0.625000X-1.000000X0.625000X-1.000000X0.625000X1.000000X-0.625000X1.000000X0*%
G04 APERTURE END LIST*
D10*
X35814000Y-1905000D02*
X34925000Y-1905000D01*
X38481000Y-1905000D02*
X39370000Y-1905000D01*
X12731948Y-11144189D02*
X12770044Y-11182285D01*
X12770044Y-11182285D02*
X12808139Y-11296570D01*
X12808139Y-11296570D02*
X12808139Y-11372761D01*
X12808139Y-11372761D02*
X12770044Y-11487047D01*
X12770044Y-11487047D02*
X12693853Y-11563237D01*
X12693853Y-11563237D02*
X12617663Y-11601332D01*
X12617663Y-11601332D02*
X12465282Y-11639428D01*
X12465282Y-11639428D02*
X12350996Y-11639428D01*
X12350996Y-11639428D02*
X12198615Y-11601332D01*
X12198615Y-11601332D02*
X12122424Y-11563237D01*
X12122424Y-11563237D02*
X12046234Y-11487047D01*
X12046234Y-11487047D02*
X12008139Y-11372761D01*
X12008139Y-11372761D02*
X12008139Y-11296570D01*
X12008139Y-11296570D02*
X12046234Y-11182285D01*
X12046234Y-11182285D02*
X12084329Y-11144189D01*
X12808139Y-10420380D02*
X12808139Y-10801332D01*
X12808139Y-10801332D02*
X12008139Y-10801332D01*
X12808139Y-10153713D02*
X12008139Y-10153713D01*
X12808139Y-9696570D02*
X12350996Y-10039428D01*
X12008139Y-9696570D02*
X12465282Y-10153713D01*
X12808139Y-13646046D02*
X12008139Y-13646046D01*
X12008139Y-13646046D02*
X12008139Y-13455570D01*
X12008139Y-13455570D02*
X12046234Y-13341284D01*
X12046234Y-13341284D02*
X12122424Y-13265094D01*
X12122424Y-13265094D02*
X12198615Y-13226999D01*
X12198615Y-13226999D02*
X12350996Y-13188903D01*
X12350996Y-13188903D02*
X12465282Y-13188903D01*
X12465282Y-13188903D02*
X12617663Y-13226999D01*
X12617663Y-13226999D02*
X12693853Y-13265094D01*
X12693853Y-13265094D02*
X12770044Y-13341284D01*
X12770044Y-13341284D02*
X12808139Y-13455570D01*
X12808139Y-13455570D02*
X12808139Y-13646046D01*
X12808139Y-12846046D02*
X12008139Y-12846046D01*
X12008139Y-12312713D02*
X12008139Y-12160332D01*
X12008139Y-12160332D02*
X12046234Y-12084142D01*
X12046234Y-12084142D02*
X12122424Y-12007951D01*
X12122424Y-12007951D02*
X12274805Y-11969856D01*
X12274805Y-11969856D02*
X12541472Y-11969856D01*
X12541472Y-11969856D02*
X12693853Y-12007951D01*
X12693853Y-12007951D02*
X12770044Y-12084142D01*
X12770044Y-12084142D02*
X12808139Y-12160332D01*
X12808139Y-12160332D02*
X12808139Y-12312713D01*
X12808139Y-12312713D02*
X12770044Y-12388904D01*
X12770044Y-12388904D02*
X12693853Y-12465094D01*
X12693853Y-12465094D02*
X12541472Y-12503190D01*
X12541472Y-12503190D02*
X12274805Y-12503190D01*
X12274805Y-12503190D02*
X12122424Y-12465094D01*
X12122424Y-12465094D02*
X12046234Y-12388904D01*
X12046234Y-12388904D02*
X12008139Y-12312713D01*
X5404139Y-41598666D02*
X6204139Y-41331999D01*
X6204139Y-41331999D02*
X5404139Y-41065333D01*
X5404139Y-40798666D02*
X6051758Y-40798666D01*
X6051758Y-40798666D02*
X6127948Y-40760571D01*
X6127948Y-40760571D02*
X6166044Y-40722476D01*
X6166044Y-40722476D02*
X6204139Y-40646285D01*
X6204139Y-40646285D02*
X6204139Y-40493904D01*
X6204139Y-40493904D02*
X6166044Y-40417714D01*
X6166044Y-40417714D02*
X6127948Y-40379619D01*
X6127948Y-40379619D02*
X6051758Y-40341523D01*
X6051758Y-40341523D02*
X5404139Y-40341523D01*
X6166044Y-39998667D02*
X6204139Y-39884381D01*
X6204139Y-39884381D02*
X6204139Y-39693905D01*
X6204139Y-39693905D02*
X6166044Y-39617714D01*
X6166044Y-39617714D02*
X6127948Y-39579619D01*
X6127948Y-39579619D02*
X6051758Y-39541524D01*
X6051758Y-39541524D02*
X5975567Y-39541524D01*
X5975567Y-39541524D02*
X5899377Y-39579619D01*
X5899377Y-39579619D02*
X5861282Y-39617714D01*
X5861282Y-39617714D02*
X5823186Y-39693905D01*
X5823186Y-39693905D02*
X5785091Y-39846286D01*
X5785091Y-39846286D02*
X5746996Y-39922476D01*
X5746996Y-39922476D02*
X5708901Y-39960571D01*
X5708901Y-39960571D02*
X5632710Y-39998667D01*
X5632710Y-39998667D02*
X5556520Y-39998667D01*
X5556520Y-39998667D02*
X5480329Y-39960571D01*
X5480329Y-39960571D02*
X5442234Y-39922476D01*
X5442234Y-39922476D02*
X5404139Y-39846286D01*
X5404139Y-39846286D02*
X5404139Y-39655809D01*
X5404139Y-39655809D02*
X5442234Y-39541524D01*
X5785091Y-38932000D02*
X5823186Y-38817714D01*
X5823186Y-38817714D02*
X5861282Y-38779619D01*
X5861282Y-38779619D02*
X5937472Y-38741523D01*
X5937472Y-38741523D02*
X6051758Y-38741523D01*
X6051758Y-38741523D02*
X6127948Y-38779619D01*
X6127948Y-38779619D02*
X6166044Y-38817714D01*
X6166044Y-38817714D02*
X6204139Y-38893904D01*
X6204139Y-38893904D02*
X6204139Y-39198666D01*
X6204139Y-39198666D02*
X5404139Y-39198666D01*
X5404139Y-39198666D02*
X5404139Y-38932000D01*
X5404139Y-38932000D02*
X5442234Y-38855809D01*
X5442234Y-38855809D02*
X5480329Y-38817714D01*
X5480329Y-38817714D02*
X5556520Y-38779619D01*
X5556520Y-38779619D02*
X5632710Y-38779619D01*
X5632710Y-38779619D02*
X5708901Y-38817714D01*
X5708901Y-38817714D02*
X5746996Y-38855809D01*
X5746996Y-38855809D02*
X5785091Y-38932000D01*
X5785091Y-38932000D02*
X5785091Y-39198666D01*
X35077476Y-3499139D02*
X35572714Y-3499139D01*
X35572714Y-3499139D02*
X35306048Y-3803901D01*
X35306048Y-3803901D02*
X35420333Y-3803901D01*
X35420333Y-3803901D02*
X35496524Y-3841996D01*
X35496524Y-3841996D02*
X35534619Y-3880091D01*
X35534619Y-3880091D02*
X35572714Y-3956282D01*
X35572714Y-3956282D02*
X35572714Y-4146758D01*
X35572714Y-4146758D02*
X35534619Y-4222948D01*
X35534619Y-4222948D02*
X35496524Y-4261044D01*
X35496524Y-4261044D02*
X35420333Y-4299139D01*
X35420333Y-4299139D02*
X35191762Y-4299139D01*
X35191762Y-4299139D02*
X35115571Y-4261044D01*
X35115571Y-4261044D02*
X35077476Y-4222948D01*
X35801286Y-3499139D02*
X36067953Y-4299139D01*
X36067953Y-4299139D02*
X36334619Y-3499139D01*
X13411238Y-34601377D02*
X14020762Y-34601377D01*
X13716000Y-34906139D02*
X13716000Y-34296615D01*
X46158333Y-31947139D02*
X46425000Y-32747139D01*
X46425000Y-32747139D02*
X46691666Y-31947139D01*
X47224999Y-32328091D02*
X47339285Y-32366186D01*
X47339285Y-32366186D02*
X47377380Y-32404282D01*
X47377380Y-32404282D02*
X47415476Y-32480472D01*
X47415476Y-32480472D02*
X47415476Y-32594758D01*
X47415476Y-32594758D02*
X47377380Y-32670948D01*
X47377380Y-32670948D02*
X47339285Y-32709044D01*
X47339285Y-32709044D02*
X47263095Y-32747139D01*
X47263095Y-32747139D02*
X46958333Y-32747139D01*
X46958333Y-32747139D02*
X46958333Y-31947139D01*
X46958333Y-31947139D02*
X47224999Y-31947139D01*
X47224999Y-31947139D02*
X47301190Y-31985234D01*
X47301190Y-31985234D02*
X47339285Y-32023329D01*
X47339285Y-32023329D02*
X47377380Y-32099520D01*
X47377380Y-32099520D02*
X47377380Y-32175710D01*
X47377380Y-32175710D02*
X47339285Y-32251901D01*
X47339285Y-32251901D02*
X47301190Y-32289996D01*
X47301190Y-32289996D02*
X47224999Y-32328091D01*
X47224999Y-32328091D02*
X46958333Y-32328091D01*
X48215476Y-32670948D02*
X48177380Y-32709044D01*
X48177380Y-32709044D02*
X48063095Y-32747139D01*
X48063095Y-32747139D02*
X47986904Y-32747139D01*
X47986904Y-32747139D02*
X47872618Y-32709044D01*
X47872618Y-32709044D02*
X47796428Y-32632853D01*
X47796428Y-32632853D02*
X47758333Y-32556663D01*
X47758333Y-32556663D02*
X47720237Y-32404282D01*
X47720237Y-32404282D02*
X47720237Y-32289996D01*
X47720237Y-32289996D02*
X47758333Y-32137615D01*
X47758333Y-32137615D02*
X47796428Y-32061424D01*
X47796428Y-32061424D02*
X47872618Y-31985234D01*
X47872618Y-31985234D02*
X47986904Y-31947139D01*
X47986904Y-31947139D02*
X48063095Y-31947139D01*
X48063095Y-31947139D02*
X48177380Y-31985234D01*
X48177380Y-31985234D02*
X48215476Y-32023329D01*
X48558333Y-32747139D02*
X48558333Y-31947139D01*
X49015476Y-32747139D02*
X48672618Y-32289996D01*
X49015476Y-31947139D02*
X48558333Y-32404282D01*
X5918238Y-17456377D02*
X6527762Y-17456377D01*
X6223000Y-17761139D02*
X6223000Y-17151615D01*
X5918238Y-25457377D02*
X6527762Y-25457377D01*
X6223000Y-25762139D02*
X6223000Y-25152615D01*
X6839139Y-35077428D02*
X6839139Y-35534571D01*
X6839139Y-35305999D02*
X6039139Y-35305999D01*
X6039139Y-35305999D02*
X6153424Y-35382190D01*
X6153424Y-35382190D02*
X6229615Y-35458380D01*
X6229615Y-35458380D02*
X6267710Y-35534571D01*
X6839139Y-7645381D02*
X6839139Y-8102524D01*
X6839139Y-7873952D02*
X6039139Y-7873952D01*
X6039139Y-7873952D02*
X6153424Y-7950143D01*
X6153424Y-7950143D02*
X6229615Y-8026333D01*
X6229615Y-8026333D02*
X6267710Y-8102524D01*
X6039139Y-6921571D02*
X6039139Y-7302523D01*
X6039139Y-7302523D02*
X6420091Y-7340619D01*
X6420091Y-7340619D02*
X6381996Y-7302523D01*
X6381996Y-7302523D02*
X6343901Y-7226333D01*
X6343901Y-7226333D02*
X6343901Y-7035857D01*
X6343901Y-7035857D02*
X6381996Y-6959666D01*
X6381996Y-6959666D02*
X6420091Y-6921571D01*
X6420091Y-6921571D02*
X6496282Y-6883476D01*
X6496282Y-6883476D02*
X6686758Y-6883476D01*
X6686758Y-6883476D02*
X6762948Y-6921571D01*
X6762948Y-6921571D02*
X6801044Y-6959666D01*
X6801044Y-6959666D02*
X6839139Y-7035857D01*
X6839139Y-7035857D02*
X6839139Y-7226333D01*
X6839139Y-7226333D02*
X6801044Y-7302523D01*
X6801044Y-7302523D02*
X6762948Y-7340619D01*
X60179139Y-34569381D02*
X60179139Y-35026524D01*
X60179139Y-34797952D02*
X59379139Y-34797952D01*
X59379139Y-34797952D02*
X59493424Y-34874143D01*
X59493424Y-34874143D02*
X59569615Y-34950333D01*
X59569615Y-34950333D02*
X59607710Y-35026524D01*
X59645805Y-33883666D02*
X60179139Y-33883666D01*
X59341044Y-34074142D02*
X59912472Y-34264619D01*
X59912472Y-34264619D02*
X59912472Y-33769380D01*
X60179139Y-8140666D02*
X60179139Y-8597809D01*
X60179139Y-8369237D02*
X59379139Y-8369237D01*
X59379139Y-8369237D02*
X59493424Y-8445428D01*
X59493424Y-8445428D02*
X59569615Y-8521618D01*
X59569615Y-8521618D02*
X59607710Y-8597809D01*
X59874377Y-7797808D02*
X59874377Y-7188285D01*
X60179139Y-7493046D02*
X59569615Y-7493046D01*
X32982428Y-36684139D02*
X32982428Y-35884139D01*
X32982428Y-35884139D02*
X33287190Y-35884139D01*
X33287190Y-35884139D02*
X33363380Y-35922234D01*
X33363380Y-35922234D02*
X33401475Y-35960329D01*
X33401475Y-35960329D02*
X33439571Y-36036520D01*
X33439571Y-36036520D02*
X33439571Y-36150805D01*
X33439571Y-36150805D02*
X33401475Y-36226996D01*
X33401475Y-36226996D02*
X33363380Y-36265091D01*
X33363380Y-36265091D02*
X33287190Y-36303186D01*
X33287190Y-36303186D02*
X32982428Y-36303186D01*
X33782428Y-36684139D02*
X33782428Y-36150805D01*
X33782428Y-35884139D02*
X33744332Y-35922234D01*
X33744332Y-35922234D02*
X33782428Y-35960329D01*
X33782428Y-35960329D02*
X33820523Y-35922234D01*
X33820523Y-35922234D02*
X33782428Y-35884139D01*
X33782428Y-35884139D02*
X33782428Y-35960329D01*
X34163380Y-36684139D02*
X34163380Y-36150805D01*
X34163380Y-36226996D02*
X34201475Y-36188901D01*
X34201475Y-36188901D02*
X34277665Y-36150805D01*
X34277665Y-36150805D02*
X34391951Y-36150805D01*
X34391951Y-36150805D02*
X34468142Y-36188901D01*
X34468142Y-36188901D02*
X34506237Y-36265091D01*
X34506237Y-36265091D02*
X34506237Y-36684139D01*
X34506237Y-36265091D02*
X34544332Y-36188901D01*
X34544332Y-36188901D02*
X34620523Y-36150805D01*
X34620523Y-36150805D02*
X34734808Y-36150805D01*
X34734808Y-36150805D02*
X34810999Y-36188901D01*
X34810999Y-36188901D02*
X34849094Y-36265091D01*
X34849094Y-36265091D02*
X34849094Y-36684139D01*
X36106237Y-36265091D02*
X36220523Y-36303186D01*
X36220523Y-36303186D02*
X36258618Y-36341282D01*
X36258618Y-36341282D02*
X36296714Y-36417472D01*
X36296714Y-36417472D02*
X36296714Y-36531758D01*
X36296714Y-36531758D02*
X36258618Y-36607948D01*
X36258618Y-36607948D02*
X36220523Y-36646044D01*
X36220523Y-36646044D02*
X36144333Y-36684139D01*
X36144333Y-36684139D02*
X35839571Y-36684139D01*
X35839571Y-36684139D02*
X35839571Y-35884139D01*
X35839571Y-35884139D02*
X36106237Y-35884139D01*
X36106237Y-35884139D02*
X36182428Y-35922234D01*
X36182428Y-35922234D02*
X36220523Y-35960329D01*
X36220523Y-35960329D02*
X36258618Y-36036520D01*
X36258618Y-36036520D02*
X36258618Y-36112710D01*
X36258618Y-36112710D02*
X36220523Y-36188901D01*
X36220523Y-36188901D02*
X36182428Y-36226996D01*
X36182428Y-36226996D02*
X36106237Y-36265091D01*
X36106237Y-36265091D02*
X35839571Y-36265091D01*
X36753856Y-36684139D02*
X36677666Y-36646044D01*
X36677666Y-36646044D02*
X36639571Y-36607948D01*
X36639571Y-36607948D02*
X36601475Y-36531758D01*
X36601475Y-36531758D02*
X36601475Y-36303186D01*
X36601475Y-36303186D02*
X36639571Y-36226996D01*
X36639571Y-36226996D02*
X36677666Y-36188901D01*
X36677666Y-36188901D02*
X36753856Y-36150805D01*
X36753856Y-36150805D02*
X36868142Y-36150805D01*
X36868142Y-36150805D02*
X36944333Y-36188901D01*
X36944333Y-36188901D02*
X36982428Y-36226996D01*
X36982428Y-36226996D02*
X37020523Y-36303186D01*
X37020523Y-36303186D02*
X37020523Y-36531758D01*
X37020523Y-36531758D02*
X36982428Y-36607948D01*
X36982428Y-36607948D02*
X36944333Y-36646044D01*
X36944333Y-36646044D02*
X36868142Y-36684139D01*
X36868142Y-36684139D02*
X36753856Y-36684139D01*
X37363381Y-36150805D02*
X37363381Y-36684139D01*
X37363381Y-36226996D02*
X37401476Y-36188901D01*
X37401476Y-36188901D02*
X37477666Y-36150805D01*
X37477666Y-36150805D02*
X37591952Y-36150805D01*
X37591952Y-36150805D02*
X37668143Y-36188901D01*
X37668143Y-36188901D02*
X37706238Y-36265091D01*
X37706238Y-36265091D02*
X37706238Y-36684139D01*
X38430048Y-36150805D02*
X38430048Y-36798424D01*
X38430048Y-36798424D02*
X38391953Y-36874615D01*
X38391953Y-36874615D02*
X38353857Y-36912710D01*
X38353857Y-36912710D02*
X38277667Y-36950805D01*
X38277667Y-36950805D02*
X38163381Y-36950805D01*
X38163381Y-36950805D02*
X38087191Y-36912710D01*
X38430048Y-36646044D02*
X38353857Y-36684139D01*
X38353857Y-36684139D02*
X38201476Y-36684139D01*
X38201476Y-36684139D02*
X38125286Y-36646044D01*
X38125286Y-36646044D02*
X38087191Y-36607948D01*
X38087191Y-36607948D02*
X38049095Y-36531758D01*
X38049095Y-36531758D02*
X38049095Y-36303186D01*
X38049095Y-36303186D02*
X38087191Y-36226996D01*
X38087191Y-36226996D02*
X38125286Y-36188901D01*
X38125286Y-36188901D02*
X38201476Y-36150805D01*
X38201476Y-36150805D02*
X38353857Y-36150805D01*
X38353857Y-36150805D02*
X38430048Y-36188901D01*
X39153858Y-36684139D02*
X39153858Y-36265091D01*
X39153858Y-36265091D02*
X39115763Y-36188901D01*
X39115763Y-36188901D02*
X39039572Y-36150805D01*
X39039572Y-36150805D02*
X38887191Y-36150805D01*
X38887191Y-36150805D02*
X38811001Y-36188901D01*
X39153858Y-36646044D02*
X39077667Y-36684139D01*
X39077667Y-36684139D02*
X38887191Y-36684139D01*
X38887191Y-36684139D02*
X38811001Y-36646044D01*
X38811001Y-36646044D02*
X38772905Y-36569853D01*
X38772905Y-36569853D02*
X38772905Y-36493663D01*
X38772905Y-36493663D02*
X38811001Y-36417472D01*
X38811001Y-36417472D02*
X38887191Y-36379377D01*
X38887191Y-36379377D02*
X39077667Y-36379377D01*
X39077667Y-36379377D02*
X39153858Y-36341282D01*
X39839573Y-36646044D02*
X39763382Y-36684139D01*
X39763382Y-36684139D02*
X39611001Y-36684139D01*
X39611001Y-36684139D02*
X39534811Y-36646044D01*
X39534811Y-36646044D02*
X39496715Y-36569853D01*
X39496715Y-36569853D02*
X39496715Y-36265091D01*
X39496715Y-36265091D02*
X39534811Y-36188901D01*
X39534811Y-36188901D02*
X39611001Y-36150805D01*
X39611001Y-36150805D02*
X39763382Y-36150805D01*
X39763382Y-36150805D02*
X39839573Y-36188901D01*
X39839573Y-36188901D02*
X39877668Y-36265091D01*
X39877668Y-36265091D02*
X39877668Y-36341282D01*
X39877668Y-36341282D02*
X39496715Y-36417472D01*
X40220525Y-36684139D02*
X40220525Y-36150805D01*
X40220525Y-36303186D02*
X40258620Y-36226996D01*
X40258620Y-36226996D02*
X40296715Y-36188901D01*
X40296715Y-36188901D02*
X40372906Y-36150805D01*
X40372906Y-36150805D02*
X40449096Y-36150805D01*
X40601477Y-36150805D02*
X40906239Y-36150805D01*
X40715763Y-35884139D02*
X40715763Y-36569853D01*
X40715763Y-36569853D02*
X40753858Y-36646044D01*
X40753858Y-36646044D02*
X40830048Y-36684139D01*
X40830048Y-36684139D02*
X40906239Y-36684139D01*
X41134810Y-36646044D02*
X41211001Y-36684139D01*
X41211001Y-36684139D02*
X41363382Y-36684139D01*
X41363382Y-36684139D02*
X41439572Y-36646044D01*
X41439572Y-36646044D02*
X41477668Y-36569853D01*
X41477668Y-36569853D02*
X41477668Y-36531758D01*
X41477668Y-36531758D02*
X41439572Y-36455567D01*
X41439572Y-36455567D02*
X41363382Y-36417472D01*
X41363382Y-36417472D02*
X41249096Y-36417472D01*
X41249096Y-36417472D02*
X41172906Y-36379377D01*
X41172906Y-36379377D02*
X41134810Y-36303186D01*
X41134810Y-36303186D02*
X41134810Y-36265091D01*
X41134810Y-36265091D02*
X41172906Y-36188901D01*
X41172906Y-36188901D02*
X41249096Y-36150805D01*
X41249096Y-36150805D02*
X41363382Y-36150805D01*
X41363382Y-36150805D02*
X41439572Y-36188901D01*
X33642761Y-6293091D02*
X33376095Y-6293091D01*
X33376095Y-6712139D02*
X33376095Y-5912139D01*
X33376095Y-5912139D02*
X33757047Y-5912139D01*
X34061809Y-6712139D02*
X34061809Y-6178805D01*
X34061809Y-5912139D02*
X34023713Y-5950234D01*
X34023713Y-5950234D02*
X34061809Y-5988329D01*
X34061809Y-5988329D02*
X34099904Y-5950234D01*
X34099904Y-5950234D02*
X34061809Y-5912139D01*
X34061809Y-5912139D02*
X34061809Y-5988329D01*
X34442761Y-6712139D02*
X34442761Y-6178805D01*
X34442761Y-6331186D02*
X34480856Y-6254996D01*
X34480856Y-6254996D02*
X34518951Y-6216901D01*
X34518951Y-6216901D02*
X34595142Y-6178805D01*
X34595142Y-6178805D02*
X34671332Y-6178805D01*
X35242761Y-6674044D02*
X35166570Y-6712139D01*
X35166570Y-6712139D02*
X35014189Y-6712139D01*
X35014189Y-6712139D02*
X34937999Y-6674044D01*
X34937999Y-6674044D02*
X34899903Y-6597853D01*
X34899903Y-6597853D02*
X34899903Y-6293091D01*
X34899903Y-6293091D02*
X34937999Y-6216901D01*
X34937999Y-6216901D02*
X35014189Y-6178805D01*
X35014189Y-6178805D02*
X35166570Y-6178805D01*
X35166570Y-6178805D02*
X35242761Y-6216901D01*
X35242761Y-6216901D02*
X35280856Y-6293091D01*
X35280856Y-6293091D02*
X35280856Y-6369282D01*
X35280856Y-6369282D02*
X34899903Y-6445472D01*
X35509427Y-6178805D02*
X35814189Y-6178805D01*
X35623713Y-6712139D02*
X35623713Y-6026424D01*
X35623713Y-6026424D02*
X35661808Y-5950234D01*
X35661808Y-5950234D02*
X35737998Y-5912139D01*
X35737998Y-5912139D02*
X35814189Y-5912139D01*
X36080856Y-6712139D02*
X36080856Y-6178805D01*
X36080856Y-5912139D02*
X36042760Y-5950234D01*
X36042760Y-5950234D02*
X36080856Y-5988329D01*
X36080856Y-5988329D02*
X36118951Y-5950234D01*
X36118951Y-5950234D02*
X36080856Y-5912139D01*
X36080856Y-5912139D02*
X36080856Y-5988329D01*
X36423712Y-6674044D02*
X36499903Y-6712139D01*
X36499903Y-6712139D02*
X36652284Y-6712139D01*
X36652284Y-6712139D02*
X36728474Y-6674044D01*
X36728474Y-6674044D02*
X36766570Y-6597853D01*
X36766570Y-6597853D02*
X36766570Y-6559758D01*
X36766570Y-6559758D02*
X36728474Y-6483567D01*
X36728474Y-6483567D02*
X36652284Y-6445472D01*
X36652284Y-6445472D02*
X36537998Y-6445472D01*
X36537998Y-6445472D02*
X36461808Y-6407377D01*
X36461808Y-6407377D02*
X36423712Y-6331186D01*
X36423712Y-6331186D02*
X36423712Y-6293091D01*
X36423712Y-6293091D02*
X36461808Y-6216901D01*
X36461808Y-6216901D02*
X36537998Y-6178805D01*
X36537998Y-6178805D02*
X36652284Y-6178805D01*
X36652284Y-6178805D02*
X36728474Y-6216901D01*
X37109427Y-6712139D02*
X37109427Y-5912139D01*
X37452284Y-6712139D02*
X37452284Y-6293091D01*
X37452284Y-6293091D02*
X37414189Y-6216901D01*
X37414189Y-6216901D02*
X37337998Y-6178805D01*
X37337998Y-6178805D02*
X37223712Y-6178805D01*
X37223712Y-6178805D02*
X37147522Y-6216901D01*
X37147522Y-6216901D02*
X37109427Y-6254996D01*
X38366570Y-6178805D02*
X38557046Y-6712139D01*
X38557046Y-6712139D02*
X38747523Y-6178805D01*
X39204666Y-5912139D02*
X39280856Y-5912139D01*
X39280856Y-5912139D02*
X39357047Y-5950234D01*
X39357047Y-5950234D02*
X39395142Y-5988329D01*
X39395142Y-5988329D02*
X39433237Y-6064520D01*
X39433237Y-6064520D02*
X39471332Y-6216901D01*
X39471332Y-6216901D02*
X39471332Y-6407377D01*
X39471332Y-6407377D02*
X39433237Y-6559758D01*
X39433237Y-6559758D02*
X39395142Y-6635948D01*
X39395142Y-6635948D02*
X39357047Y-6674044D01*
X39357047Y-6674044D02*
X39280856Y-6712139D01*
X39280856Y-6712139D02*
X39204666Y-6712139D01*
X39204666Y-6712139D02*
X39128475Y-6674044D01*
X39128475Y-6674044D02*
X39090380Y-6635948D01*
X39090380Y-6635948D02*
X39052285Y-6559758D01*
X39052285Y-6559758D02*
X39014189Y-6407377D01*
X39014189Y-6407377D02*
X39014189Y-6216901D01*
X39014189Y-6216901D02*
X39052285Y-6064520D01*
X39052285Y-6064520D02*
X39090380Y-5988329D01*
X39090380Y-5988329D02*
X39128475Y-5950234D01*
X39128475Y-5950234D02*
X39204666Y-5912139D01*
X39814190Y-6635948D02*
X39852285Y-6674044D01*
X39852285Y-6674044D02*
X39814190Y-6712139D01*
X39814190Y-6712139D02*
X39776094Y-6674044D01*
X39776094Y-6674044D02*
X39814190Y-6635948D01*
X39814190Y-6635948D02*
X39814190Y-6712139D01*
X40537999Y-6178805D02*
X40537999Y-6712139D01*
X40347523Y-5874044D02*
X40157046Y-6445472D01*
X40157046Y-6445472D02*
X40652285Y-6445472D01*
X40957047Y-6712139D02*
X40957047Y-5912139D01*
X40957047Y-6216901D02*
X41033237Y-6178805D01*
X41033237Y-6178805D02*
X41185618Y-6178805D01*
X41185618Y-6178805D02*
X41261809Y-6216901D01*
X41261809Y-6216901D02*
X41299904Y-6254996D01*
X41299904Y-6254996D02*
X41337999Y-6331186D01*
X41337999Y-6331186D02*
X41337999Y-6559758D01*
X41337999Y-6559758D02*
X41299904Y-6635948D01*
X41299904Y-6635948D02*
X41261809Y-6674044D01*
X41261809Y-6674044D02*
X41185618Y-6712139D01*
X41185618Y-6712139D02*
X41033237Y-6712139D01*
X41033237Y-6712139D02*
X40957047Y-6674044D01*
X38455619Y-3499139D02*
X38074667Y-3499139D01*
X38074667Y-3499139D02*
X38036571Y-3880091D01*
X38036571Y-3880091D02*
X38074667Y-3841996D01*
X38074667Y-3841996D02*
X38150857Y-3803901D01*
X38150857Y-3803901D02*
X38341333Y-3803901D01*
X38341333Y-3803901D02*
X38417524Y-3841996D01*
X38417524Y-3841996D02*
X38455619Y-3880091D01*
X38455619Y-3880091D02*
X38493714Y-3956282D01*
X38493714Y-3956282D02*
X38493714Y-4146758D01*
X38493714Y-4146758D02*
X38455619Y-4222948D01*
X38455619Y-4222948D02*
X38417524Y-4261044D01*
X38417524Y-4261044D02*
X38341333Y-4299139D01*
X38341333Y-4299139D02*
X38150857Y-4299139D01*
X38150857Y-4299139D02*
X38074667Y-4261044D01*
X38074667Y-4261044D02*
X38036571Y-4222948D01*
X38722286Y-3499139D02*
X38988953Y-4299139D01*
X38988953Y-4299139D02*
X39255619Y-3499139D01*
X56966139Y-13563523D02*
X57613758Y-13563523D01*
X57613758Y-13563523D02*
X57689948Y-13525428D01*
X57689948Y-13525428D02*
X57728044Y-13487333D01*
X57728044Y-13487333D02*
X57766139Y-13411142D01*
X57766139Y-13411142D02*
X57766139Y-13258761D01*
X57766139Y-13258761D02*
X57728044Y-13182571D01*
X57728044Y-13182571D02*
X57689948Y-13144476D01*
X57689948Y-13144476D02*
X57613758Y-13106380D01*
X57613758Y-13106380D02*
X56966139Y-13106380D01*
X56966139Y-12382571D02*
X56966139Y-12534952D01*
X56966139Y-12534952D02*
X57004234Y-12611143D01*
X57004234Y-12611143D02*
X57042329Y-12649238D01*
X57042329Y-12649238D02*
X57156615Y-12725428D01*
X57156615Y-12725428D02*
X57308996Y-12763524D01*
X57308996Y-12763524D02*
X57613758Y-12763524D01*
X57613758Y-12763524D02*
X57689948Y-12725428D01*
X57689948Y-12725428D02*
X57728044Y-12687333D01*
X57728044Y-12687333D02*
X57766139Y-12611143D01*
X57766139Y-12611143D02*
X57766139Y-12458762D01*
X57766139Y-12458762D02*
X57728044Y-12382571D01*
X57728044Y-12382571D02*
X57689948Y-12344476D01*
X57689948Y-12344476D02*
X57613758Y-12306381D01*
X57613758Y-12306381D02*
X57423282Y-12306381D01*
X57423282Y-12306381D02*
X57347091Y-12344476D01*
X57347091Y-12344476D02*
X57308996Y-12382571D01*
X57308996Y-12382571D02*
X57270901Y-12458762D01*
X57270901Y-12458762D02*
X57270901Y-12611143D01*
X57270901Y-12611143D02*
X57308996Y-12687333D01*
X57308996Y-12687333D02*
X57347091Y-12725428D01*
X57347091Y-12725428D02*
X57423282Y-12763524D01*
X52698714Y-17761139D02*
X52432047Y-17380186D01*
X52241571Y-17761139D02*
X52241571Y-16961139D01*
X52241571Y-16961139D02*
X52546333Y-16961139D01*
X52546333Y-16961139D02*
X52622523Y-16999234D01*
X52622523Y-16999234D02*
X52660618Y-17037329D01*
X52660618Y-17037329D02*
X52698714Y-17113520D01*
X52698714Y-17113520D02*
X52698714Y-17227805D01*
X52698714Y-17227805D02*
X52660618Y-17303996D01*
X52660618Y-17303996D02*
X52622523Y-17342091D01*
X52622523Y-17342091D02*
X52546333Y-17380186D01*
X52546333Y-17380186D02*
X52241571Y-17380186D01*
X53460618Y-17761139D02*
X53003475Y-17761139D01*
X53232047Y-17761139D02*
X53232047Y-16961139D01*
X53232047Y-16961139D02*
X53155856Y-17075424D01*
X53155856Y-17075424D02*
X53079666Y-17151615D01*
X53079666Y-17151615D02*
X53003475Y-17189710D01*
X54184428Y-16961139D02*
X53803476Y-16961139D01*
X53803476Y-16961139D02*
X53765380Y-17342091D01*
X53765380Y-17342091D02*
X53803476Y-17303996D01*
X53803476Y-17303996D02*
X53879666Y-17265901D01*
X53879666Y-17265901D02*
X54070142Y-17265901D01*
X54070142Y-17265901D02*
X54146333Y-17303996D01*
X54146333Y-17303996D02*
X54184428Y-17342091D01*
X54184428Y-17342091D02*
X54222523Y-17418282D01*
X54222523Y-17418282D02*
X54222523Y-17608758D01*
X54222523Y-17608758D02*
X54184428Y-17684948D01*
X54184428Y-17684948D02*
X54146333Y-17723044D01*
X54146333Y-17723044D02*
X54070142Y-17761139D01*
X54070142Y-17761139D02*
X53879666Y-17761139D01*
X53879666Y-17761139D02*
X53803476Y-17723044D01*
X53803476Y-17723044D02*
X53765380Y-17684948D01*
X7728139Y-32518332D02*
X7347186Y-32784999D01*
X7728139Y-32975475D02*
X6928139Y-32975475D01*
X6928139Y-32975475D02*
X6928139Y-32670713D01*
X6928139Y-32670713D02*
X6966234Y-32594523D01*
X6966234Y-32594523D02*
X7004329Y-32556428D01*
X7004329Y-32556428D02*
X7080520Y-32518332D01*
X7080520Y-32518332D02*
X7194805Y-32518332D01*
X7194805Y-32518332D02*
X7270996Y-32556428D01*
X7270996Y-32556428D02*
X7309091Y-32594523D01*
X7309091Y-32594523D02*
X7347186Y-32670713D01*
X7347186Y-32670713D02*
X7347186Y-32975475D01*
X6928139Y-32251666D02*
X6928139Y-31756428D01*
X6928139Y-31756428D02*
X7232901Y-32023094D01*
X7232901Y-32023094D02*
X7232901Y-31908809D01*
X7232901Y-31908809D02*
X7270996Y-31832618D01*
X7270996Y-31832618D02*
X7309091Y-31794523D01*
X7309091Y-31794523D02*
X7385282Y-31756428D01*
X7385282Y-31756428D02*
X7575758Y-31756428D01*
X7575758Y-31756428D02*
X7651948Y-31794523D01*
X7651948Y-31794523D02*
X7690044Y-31832618D01*
X7690044Y-31832618D02*
X7728139Y-31908809D01*
X7728139Y-31908809D02*
X7728139Y-32137380D01*
X7728139Y-32137380D02*
X7690044Y-32213571D01*
X7690044Y-32213571D02*
X7651948Y-32251666D01*
X57397714Y-31477139D02*
X57131047Y-31096186D01*
X56940571Y-31477139D02*
X56940571Y-30677139D01*
X56940571Y-30677139D02*
X57245333Y-30677139D01*
X57245333Y-30677139D02*
X57321523Y-30715234D01*
X57321523Y-30715234D02*
X57359618Y-30753329D01*
X57359618Y-30753329D02*
X57397714Y-30829520D01*
X57397714Y-30829520D02*
X57397714Y-30943805D01*
X57397714Y-30943805D02*
X57359618Y-31019996D01*
X57359618Y-31019996D02*
X57321523Y-31058091D01*
X57321523Y-31058091D02*
X57245333Y-31096186D01*
X57245333Y-31096186D02*
X56940571Y-31096186D01*
X58159618Y-31477139D02*
X57702475Y-31477139D01*
X57931047Y-31477139D02*
X57931047Y-30677139D01*
X57931047Y-30677139D02*
X57854856Y-30791424D01*
X57854856Y-30791424D02*
X57778666Y-30867615D01*
X57778666Y-30867615D02*
X57702475Y-30905710D01*
X58540571Y-31477139D02*
X58692952Y-31477139D01*
X58692952Y-31477139D02*
X58769142Y-31439044D01*
X58769142Y-31439044D02*
X58807238Y-31400948D01*
X58807238Y-31400948D02*
X58883428Y-31286663D01*
X58883428Y-31286663D02*
X58921523Y-31134282D01*
X58921523Y-31134282D02*
X58921523Y-30829520D01*
X58921523Y-30829520D02*
X58883428Y-30753329D01*
X58883428Y-30753329D02*
X58845333Y-30715234D01*
X58845333Y-30715234D02*
X58769142Y-30677139D01*
X58769142Y-30677139D02*
X58616761Y-30677139D01*
X58616761Y-30677139D02*
X58540571Y-30715234D01*
X58540571Y-30715234D02*
X58502476Y-30753329D01*
X58502476Y-30753329D02*
X58464380Y-30829520D01*
X58464380Y-30829520D02*
X58464380Y-31019996D01*
X58464380Y-31019996D02*
X58502476Y-31096186D01*
X58502476Y-31096186D02*
X58540571Y-31134282D01*
X58540571Y-31134282D02*
X58616761Y-31172377D01*
X58616761Y-31172377D02*
X58769142Y-31172377D01*
X58769142Y-31172377D02*
X58845333Y-31134282D01*
X58845333Y-31134282D02*
X58883428Y-31096186D01*
X58883428Y-31096186D02*
X58921523Y-31019996D01*
X53079714Y-31477139D02*
X52813047Y-31096186D01*
X52622571Y-31477139D02*
X52622571Y-30677139D01*
X52622571Y-30677139D02*
X52927333Y-30677139D01*
X52927333Y-30677139D02*
X53003523Y-30715234D01*
X53003523Y-30715234D02*
X53041618Y-30753329D01*
X53041618Y-30753329D02*
X53079714Y-30829520D01*
X53079714Y-30829520D02*
X53079714Y-30943805D01*
X53079714Y-30943805D02*
X53041618Y-31019996D01*
X53041618Y-31019996D02*
X53003523Y-31058091D01*
X53003523Y-31058091D02*
X52927333Y-31096186D01*
X52927333Y-31096186D02*
X52622571Y-31096186D01*
X53841618Y-31477139D02*
X53384475Y-31477139D01*
X53613047Y-31477139D02*
X53613047Y-30677139D01*
X53613047Y-30677139D02*
X53536856Y-30791424D01*
X53536856Y-30791424D02*
X53460666Y-30867615D01*
X53460666Y-30867615D02*
X53384475Y-30905710D01*
X54298761Y-31019996D02*
X54222571Y-30981901D01*
X54222571Y-30981901D02*
X54184476Y-30943805D01*
X54184476Y-30943805D02*
X54146380Y-30867615D01*
X54146380Y-30867615D02*
X54146380Y-30829520D01*
X54146380Y-30829520D02*
X54184476Y-30753329D01*
X54184476Y-30753329D02*
X54222571Y-30715234D01*
X54222571Y-30715234D02*
X54298761Y-30677139D01*
X54298761Y-30677139D02*
X54451142Y-30677139D01*
X54451142Y-30677139D02*
X54527333Y-30715234D01*
X54527333Y-30715234D02*
X54565428Y-30753329D01*
X54565428Y-30753329D02*
X54603523Y-30829520D01*
X54603523Y-30829520D02*
X54603523Y-30867615D01*
X54603523Y-30867615D02*
X54565428Y-30943805D01*
X54565428Y-30943805D02*
X54527333Y-30981901D01*
X54527333Y-30981901D02*
X54451142Y-31019996D01*
X54451142Y-31019996D02*
X54298761Y-31019996D01*
X54298761Y-31019996D02*
X54222571Y-31058091D01*
X54222571Y-31058091D02*
X54184476Y-31096186D01*
X54184476Y-31096186D02*
X54146380Y-31172377D01*
X54146380Y-31172377D02*
X54146380Y-31324758D01*
X54146380Y-31324758D02*
X54184476Y-31400948D01*
X54184476Y-31400948D02*
X54222571Y-31439044D01*
X54222571Y-31439044D02*
X54298761Y-31477139D01*
X54298761Y-31477139D02*
X54451142Y-31477139D01*
X54451142Y-31477139D02*
X54527333Y-31439044D01*
X54527333Y-31439044D02*
X54565428Y-31400948D01*
X54565428Y-31400948D02*
X54603523Y-31324758D01*
X54603523Y-31324758D02*
X54603523Y-31172377D01*
X54603523Y-31172377D02*
X54565428Y-31096186D01*
X54565428Y-31096186D02*
X54527333Y-31058091D01*
X54527333Y-31058091D02*
X54451142Y-31019996D01*
X10141139Y-20707285D02*
X9760186Y-20973952D01*
X10141139Y-21164428D02*
X9341139Y-21164428D01*
X9341139Y-21164428D02*
X9341139Y-20859666D01*
X9341139Y-20859666D02*
X9379234Y-20783476D01*
X9379234Y-20783476D02*
X9417329Y-20745381D01*
X9417329Y-20745381D02*
X9493520Y-20707285D01*
X9493520Y-20707285D02*
X9607805Y-20707285D01*
X9607805Y-20707285D02*
X9683996Y-20745381D01*
X9683996Y-20745381D02*
X9722091Y-20783476D01*
X9722091Y-20783476D02*
X9760186Y-20859666D01*
X9760186Y-20859666D02*
X9760186Y-21164428D01*
X9341139Y-20440619D02*
X9341139Y-19945381D01*
X9341139Y-19945381D02*
X9645901Y-20212047D01*
X9645901Y-20212047D02*
X9645901Y-20097762D01*
X9645901Y-20097762D02*
X9683996Y-20021571D01*
X9683996Y-20021571D02*
X9722091Y-19983476D01*
X9722091Y-19983476D02*
X9798282Y-19945381D01*
X9798282Y-19945381D02*
X9988758Y-19945381D01*
X9988758Y-19945381D02*
X10064948Y-19983476D01*
X10064948Y-19983476D02*
X10103044Y-20021571D01*
X10103044Y-20021571D02*
X10141139Y-20097762D01*
X10141139Y-20097762D02*
X10141139Y-20326333D01*
X10141139Y-20326333D02*
X10103044Y-20402524D01*
X10103044Y-20402524D02*
X10064948Y-20440619D01*
X9341139Y-19221571D02*
X9341139Y-19602523D01*
X9341139Y-19602523D02*
X9722091Y-19640619D01*
X9722091Y-19640619D02*
X9683996Y-19602523D01*
X9683996Y-19602523D02*
X9645901Y-19526333D01*
X9645901Y-19526333D02*
X9645901Y-19335857D01*
X9645901Y-19335857D02*
X9683996Y-19259666D01*
X9683996Y-19259666D02*
X9722091Y-19221571D01*
X9722091Y-19221571D02*
X9798282Y-19183476D01*
X9798282Y-19183476D02*
X9988758Y-19183476D01*
X9988758Y-19183476D02*
X10064948Y-19221571D01*
X10064948Y-19221571D02*
X10103044Y-19259666D01*
X10103044Y-19259666D02*
X10141139Y-19335857D01*
X10141139Y-19335857D02*
X10141139Y-19526333D01*
X10141139Y-19526333D02*
X10103044Y-19602523D01*
X10103044Y-19602523D02*
X10064948Y-19640619D01*
X10064948Y-24780285D02*
X10103044Y-24818381D01*
X10103044Y-24818381D02*
X10141139Y-24932666D01*
X10141139Y-24932666D02*
X10141139Y-25008857D01*
X10141139Y-25008857D02*
X10103044Y-25123143D01*
X10103044Y-25123143D02*
X10026853Y-25199333D01*
X10026853Y-25199333D02*
X9950663Y-25237428D01*
X9950663Y-25237428D02*
X9798282Y-25275524D01*
X9798282Y-25275524D02*
X9683996Y-25275524D01*
X9683996Y-25275524D02*
X9531615Y-25237428D01*
X9531615Y-25237428D02*
X9455424Y-25199333D01*
X9455424Y-25199333D02*
X9379234Y-25123143D01*
X9379234Y-25123143D02*
X9341139Y-25008857D01*
X9341139Y-25008857D02*
X9341139Y-24932666D01*
X9341139Y-24932666D02*
X9379234Y-24818381D01*
X9379234Y-24818381D02*
X9417329Y-24780285D01*
X9417329Y-24475524D02*
X9379234Y-24437428D01*
X9379234Y-24437428D02*
X9341139Y-24361238D01*
X9341139Y-24361238D02*
X9341139Y-24170762D01*
X9341139Y-24170762D02*
X9379234Y-24094571D01*
X9379234Y-24094571D02*
X9417329Y-24056476D01*
X9417329Y-24056476D02*
X9493520Y-24018381D01*
X9493520Y-24018381D02*
X9569710Y-24018381D01*
X9569710Y-24018381D02*
X9683996Y-24056476D01*
X9683996Y-24056476D02*
X10141139Y-24513619D01*
X10141139Y-24513619D02*
X10141139Y-24018381D01*
X9683996Y-23561238D02*
X9645901Y-23637428D01*
X9645901Y-23637428D02*
X9607805Y-23675523D01*
X9607805Y-23675523D02*
X9531615Y-23713619D01*
X9531615Y-23713619D02*
X9493520Y-23713619D01*
X9493520Y-23713619D02*
X9417329Y-23675523D01*
X9417329Y-23675523D02*
X9379234Y-23637428D01*
X9379234Y-23637428D02*
X9341139Y-23561238D01*
X9341139Y-23561238D02*
X9341139Y-23408857D01*
X9341139Y-23408857D02*
X9379234Y-23332666D01*
X9379234Y-23332666D02*
X9417329Y-23294571D01*
X9417329Y-23294571D02*
X9493520Y-23256476D01*
X9493520Y-23256476D02*
X9531615Y-23256476D01*
X9531615Y-23256476D02*
X9607805Y-23294571D01*
X9607805Y-23294571D02*
X9645901Y-23332666D01*
X9645901Y-23332666D02*
X9683996Y-23408857D01*
X9683996Y-23408857D02*
X9683996Y-23561238D01*
X9683996Y-23561238D02*
X9722091Y-23637428D01*
X9722091Y-23637428D02*
X9760186Y-23675523D01*
X9760186Y-23675523D02*
X9836377Y-23713619D01*
X9836377Y-23713619D02*
X9988758Y-23713619D01*
X9988758Y-23713619D02*
X10064948Y-23675523D01*
X10064948Y-23675523D02*
X10103044Y-23637428D01*
X10103044Y-23637428D02*
X10141139Y-23561238D01*
X10141139Y-23561238D02*
X10141139Y-23408857D01*
X10141139Y-23408857D02*
X10103044Y-23332666D01*
X10103044Y-23332666D02*
X10064948Y-23294571D01*
X10064948Y-23294571D02*
X9988758Y-23256476D01*
X9988758Y-23256476D02*
X9836377Y-23256476D01*
X9836377Y-23256476D02*
X9760186Y-23294571D01*
X9760186Y-23294571D02*
X9722091Y-23332666D01*
X9722091Y-23332666D02*
X9683996Y-23408857D01*
X17684948Y-12071285D02*
X17723044Y-12109381D01*
X17723044Y-12109381D02*
X17761139Y-12223666D01*
X17761139Y-12223666D02*
X17761139Y-12299857D01*
X17761139Y-12299857D02*
X17723044Y-12414143D01*
X17723044Y-12414143D02*
X17646853Y-12490333D01*
X17646853Y-12490333D02*
X17570663Y-12528428D01*
X17570663Y-12528428D02*
X17418282Y-12566524D01*
X17418282Y-12566524D02*
X17303996Y-12566524D01*
X17303996Y-12566524D02*
X17151615Y-12528428D01*
X17151615Y-12528428D02*
X17075424Y-12490333D01*
X17075424Y-12490333D02*
X16999234Y-12414143D01*
X16999234Y-12414143D02*
X16961139Y-12299857D01*
X16961139Y-12299857D02*
X16961139Y-12223666D01*
X16961139Y-12223666D02*
X16999234Y-12109381D01*
X16999234Y-12109381D02*
X17037329Y-12071285D01*
X17761139Y-11309381D02*
X17761139Y-11766524D01*
X17761139Y-11537952D02*
X16961139Y-11537952D01*
X16961139Y-11537952D02*
X17075424Y-11614143D01*
X17075424Y-11614143D02*
X17151615Y-11690333D01*
X17151615Y-11690333D02*
X17189710Y-11766524D01*
X17761139Y-10547476D02*
X17761139Y-11004619D01*
X17761139Y-10776047D02*
X16961139Y-10776047D01*
X16961139Y-10776047D02*
X17075424Y-10852238D01*
X17075424Y-10852238D02*
X17151615Y-10928428D01*
X17151615Y-10928428D02*
X17189710Y-11004619D01*
X17253139Y-7372332D02*
X16872186Y-7638999D01*
X17253139Y-7829475D02*
X16453139Y-7829475D01*
X16453139Y-7829475D02*
X16453139Y-7524713D01*
X16453139Y-7524713D02*
X16491234Y-7448523D01*
X16491234Y-7448523D02*
X16529329Y-7410428D01*
X16529329Y-7410428D02*
X16605520Y-7372332D01*
X16605520Y-7372332D02*
X16719805Y-7372332D01*
X16719805Y-7372332D02*
X16795996Y-7410428D01*
X16795996Y-7410428D02*
X16834091Y-7448523D01*
X16834091Y-7448523D02*
X16872186Y-7524713D01*
X16872186Y-7524713D02*
X16872186Y-7829475D01*
X17253139Y-6610428D02*
X17253139Y-7067571D01*
X17253139Y-6838999D02*
X16453139Y-6838999D01*
X16453139Y-6838999D02*
X16567424Y-6915190D01*
X16567424Y-6915190D02*
X16643615Y-6991380D01*
X16643615Y-6991380D02*
X16681710Y-7067571D01*
X20224948Y-11690332D02*
X20263044Y-11728428D01*
X20263044Y-11728428D02*
X20301139Y-11842713D01*
X20301139Y-11842713D02*
X20301139Y-11918904D01*
X20301139Y-11918904D02*
X20263044Y-12033190D01*
X20263044Y-12033190D02*
X20186853Y-12109380D01*
X20186853Y-12109380D02*
X20110663Y-12147475D01*
X20110663Y-12147475D02*
X19958282Y-12185571D01*
X19958282Y-12185571D02*
X19843996Y-12185571D01*
X19843996Y-12185571D02*
X19691615Y-12147475D01*
X19691615Y-12147475D02*
X19615424Y-12109380D01*
X19615424Y-12109380D02*
X19539234Y-12033190D01*
X19539234Y-12033190D02*
X19501139Y-11918904D01*
X19501139Y-11918904D02*
X19501139Y-11842713D01*
X19501139Y-11842713D02*
X19539234Y-11728428D01*
X19539234Y-11728428D02*
X19577329Y-11690332D01*
X19843996Y-11233190D02*
X19805901Y-11309380D01*
X19805901Y-11309380D02*
X19767805Y-11347475D01*
X19767805Y-11347475D02*
X19691615Y-11385571D01*
X19691615Y-11385571D02*
X19653520Y-11385571D01*
X19653520Y-11385571D02*
X19577329Y-11347475D01*
X19577329Y-11347475D02*
X19539234Y-11309380D01*
X19539234Y-11309380D02*
X19501139Y-11233190D01*
X19501139Y-11233190D02*
X19501139Y-11080809D01*
X19501139Y-11080809D02*
X19539234Y-11004618D01*
X19539234Y-11004618D02*
X19577329Y-10966523D01*
X19577329Y-10966523D02*
X19653520Y-10928428D01*
X19653520Y-10928428D02*
X19691615Y-10928428D01*
X19691615Y-10928428D02*
X19767805Y-10966523D01*
X19767805Y-10966523D02*
X19805901Y-11004618D01*
X19805901Y-11004618D02*
X19843996Y-11080809D01*
X19843996Y-11080809D02*
X19843996Y-11233190D01*
X19843996Y-11233190D02*
X19882091Y-11309380D01*
X19882091Y-11309380D02*
X19920186Y-11347475D01*
X19920186Y-11347475D02*
X19996377Y-11385571D01*
X19996377Y-11385571D02*
X20148758Y-11385571D01*
X20148758Y-11385571D02*
X20224948Y-11347475D01*
X20224948Y-11347475D02*
X20263044Y-11309380D01*
X20263044Y-11309380D02*
X20301139Y-11233190D01*
X20301139Y-11233190D02*
X20301139Y-11080809D01*
X20301139Y-11080809D02*
X20263044Y-11004618D01*
X20263044Y-11004618D02*
X20224948Y-10966523D01*
X20224948Y-10966523D02*
X20148758Y-10928428D01*
X20148758Y-10928428D02*
X19996377Y-10928428D01*
X19996377Y-10928428D02*
X19920186Y-10966523D01*
X19920186Y-10966523D02*
X19882091Y-11004618D01*
X19882091Y-11004618D02*
X19843996Y-11080809D01*
X22764948Y-11690332D02*
X22803044Y-11728428D01*
X22803044Y-11728428D02*
X22841139Y-11842713D01*
X22841139Y-11842713D02*
X22841139Y-11918904D01*
X22841139Y-11918904D02*
X22803044Y-12033190D01*
X22803044Y-12033190D02*
X22726853Y-12109380D01*
X22726853Y-12109380D02*
X22650663Y-12147475D01*
X22650663Y-12147475D02*
X22498282Y-12185571D01*
X22498282Y-12185571D02*
X22383996Y-12185571D01*
X22383996Y-12185571D02*
X22231615Y-12147475D01*
X22231615Y-12147475D02*
X22155424Y-12109380D01*
X22155424Y-12109380D02*
X22079234Y-12033190D01*
X22079234Y-12033190D02*
X22041139Y-11918904D01*
X22041139Y-11918904D02*
X22041139Y-11842713D01*
X22041139Y-11842713D02*
X22079234Y-11728428D01*
X22079234Y-11728428D02*
X22117329Y-11690332D01*
X22041139Y-11004618D02*
X22041139Y-11156999D01*
X22041139Y-11156999D02*
X22079234Y-11233190D01*
X22079234Y-11233190D02*
X22117329Y-11271285D01*
X22117329Y-11271285D02*
X22231615Y-11347475D01*
X22231615Y-11347475D02*
X22383996Y-11385571D01*
X22383996Y-11385571D02*
X22688758Y-11385571D01*
X22688758Y-11385571D02*
X22764948Y-11347475D01*
X22764948Y-11347475D02*
X22803044Y-11309380D01*
X22803044Y-11309380D02*
X22841139Y-11233190D01*
X22841139Y-11233190D02*
X22841139Y-11080809D01*
X22841139Y-11080809D02*
X22803044Y-11004618D01*
X22803044Y-11004618D02*
X22764948Y-10966523D01*
X22764948Y-10966523D02*
X22688758Y-10928428D01*
X22688758Y-10928428D02*
X22498282Y-10928428D01*
X22498282Y-10928428D02*
X22422091Y-10966523D01*
X22422091Y-10966523D02*
X22383996Y-11004618D01*
X22383996Y-11004618D02*
X22345901Y-11080809D01*
X22345901Y-11080809D02*
X22345901Y-11233190D01*
X22345901Y-11233190D02*
X22383996Y-11309380D01*
X22383996Y-11309380D02*
X22422091Y-11347475D01*
X22422091Y-11347475D02*
X22498282Y-11385571D01*
X10064948Y-16262285D02*
X10103044Y-16300381D01*
X10103044Y-16300381D02*
X10141139Y-16414666D01*
X10141139Y-16414666D02*
X10141139Y-16490857D01*
X10141139Y-16490857D02*
X10103044Y-16605143D01*
X10103044Y-16605143D02*
X10026853Y-16681333D01*
X10026853Y-16681333D02*
X9950663Y-16719428D01*
X9950663Y-16719428D02*
X9798282Y-16757524D01*
X9798282Y-16757524D02*
X9683996Y-16757524D01*
X9683996Y-16757524D02*
X9531615Y-16719428D01*
X9531615Y-16719428D02*
X9455424Y-16681333D01*
X9455424Y-16681333D02*
X9379234Y-16605143D01*
X9379234Y-16605143D02*
X9341139Y-16490857D01*
X9341139Y-16490857D02*
X9341139Y-16414666D01*
X9341139Y-16414666D02*
X9379234Y-16300381D01*
X9379234Y-16300381D02*
X9417329Y-16262285D01*
X10141139Y-15500381D02*
X10141139Y-15957524D01*
X10141139Y-15728952D02*
X9341139Y-15728952D01*
X9341139Y-15728952D02*
X9455424Y-15805143D01*
X9455424Y-15805143D02*
X9531615Y-15881333D01*
X9531615Y-15881333D02*
X9569710Y-15957524D01*
X9417329Y-15195619D02*
X9379234Y-15157523D01*
X9379234Y-15157523D02*
X9341139Y-15081333D01*
X9341139Y-15081333D02*
X9341139Y-14890857D01*
X9341139Y-14890857D02*
X9379234Y-14814666D01*
X9379234Y-14814666D02*
X9417329Y-14776571D01*
X9417329Y-14776571D02*
X9493520Y-14738476D01*
X9493520Y-14738476D02*
X9569710Y-14738476D01*
X9569710Y-14738476D02*
X9683996Y-14776571D01*
X9683996Y-14776571D02*
X10141139Y-15233714D01*
X10141139Y-15233714D02*
X10141139Y-14738476D01*
X15596933Y-16609739D02*
X15596933Y-17257358D01*
X15596933Y-17257358D02*
X15635028Y-17333548D01*
X15635028Y-17333548D02*
X15673123Y-17371644D01*
X15673123Y-17371644D02*
X15749314Y-17409739D01*
X15749314Y-17409739D02*
X15901695Y-17409739D01*
X15901695Y-17409739D02*
X15977885Y-17371644D01*
X15977885Y-17371644D02*
X16015980Y-17333548D01*
X16015980Y-17333548D02*
X16054076Y-17257358D01*
X16054076Y-17257358D02*
X16054076Y-16609739D01*
X16396932Y-16685929D02*
X16435028Y-16647834D01*
X16435028Y-16647834D02*
X16511218Y-16609739D01*
X16511218Y-16609739D02*
X16701694Y-16609739D01*
X16701694Y-16609739D02*
X16777885Y-16647834D01*
X16777885Y-16647834D02*
X16815980Y-16685929D01*
X16815980Y-16685929D02*
X16854075Y-16762120D01*
X16854075Y-16762120D02*
X16854075Y-16838310D01*
X16854075Y-16838310D02*
X16815980Y-16952596D01*
X16815980Y-16952596D02*
X16358837Y-17409739D01*
X16358837Y-17409739D02*
X16854075Y-17409739D01*
X26397139Y-35566332D02*
X26016186Y-35832999D01*
X26397139Y-36023475D02*
X25597139Y-36023475D01*
X25597139Y-36023475D02*
X25597139Y-35718713D01*
X25597139Y-35718713D02*
X25635234Y-35642523D01*
X25635234Y-35642523D02*
X25673329Y-35604428D01*
X25673329Y-35604428D02*
X25749520Y-35566332D01*
X25749520Y-35566332D02*
X25863805Y-35566332D01*
X25863805Y-35566332D02*
X25939996Y-35604428D01*
X25939996Y-35604428D02*
X25978091Y-35642523D01*
X25978091Y-35642523D02*
X26016186Y-35718713D01*
X26016186Y-35718713D02*
X26016186Y-36023475D01*
X25863805Y-34880618D02*
X26397139Y-34880618D01*
X25559044Y-35071094D02*
X26130472Y-35261571D01*
X26130472Y-35261571D02*
X26130472Y-34766332D01*
X23780948Y-40138285D02*
X23819044Y-40176381D01*
X23819044Y-40176381D02*
X23857139Y-40290666D01*
X23857139Y-40290666D02*
X23857139Y-40366857D01*
X23857139Y-40366857D02*
X23819044Y-40481143D01*
X23819044Y-40481143D02*
X23742853Y-40557333D01*
X23742853Y-40557333D02*
X23666663Y-40595428D01*
X23666663Y-40595428D02*
X23514282Y-40633524D01*
X23514282Y-40633524D02*
X23399996Y-40633524D01*
X23399996Y-40633524D02*
X23247615Y-40595428D01*
X23247615Y-40595428D02*
X23171424Y-40557333D01*
X23171424Y-40557333D02*
X23095234Y-40481143D01*
X23095234Y-40481143D02*
X23057139Y-40366857D01*
X23057139Y-40366857D02*
X23057139Y-40290666D01*
X23057139Y-40290666D02*
X23095234Y-40176381D01*
X23095234Y-40176381D02*
X23133329Y-40138285D01*
X23857139Y-39376381D02*
X23857139Y-39833524D01*
X23857139Y-39604952D02*
X23057139Y-39604952D01*
X23057139Y-39604952D02*
X23171424Y-39681143D01*
X23171424Y-39681143D02*
X23247615Y-39757333D01*
X23247615Y-39757333D02*
X23285710Y-39833524D01*
X23057139Y-38690666D02*
X23057139Y-38843047D01*
X23057139Y-38843047D02*
X23095234Y-38919238D01*
X23095234Y-38919238D02*
X23133329Y-38957333D01*
X23133329Y-38957333D02*
X23247615Y-39033523D01*
X23247615Y-39033523D02*
X23399996Y-39071619D01*
X23399996Y-39071619D02*
X23704758Y-39071619D01*
X23704758Y-39071619D02*
X23780948Y-39033523D01*
X23780948Y-39033523D02*
X23819044Y-38995428D01*
X23819044Y-38995428D02*
X23857139Y-38919238D01*
X23857139Y-38919238D02*
X23857139Y-38766857D01*
X23857139Y-38766857D02*
X23819044Y-38690666D01*
X23819044Y-38690666D02*
X23780948Y-38652571D01*
X23780948Y-38652571D02*
X23704758Y-38614476D01*
X23704758Y-38614476D02*
X23514282Y-38614476D01*
X23514282Y-38614476D02*
X23438091Y-38652571D01*
X23438091Y-38652571D02*
X23399996Y-38690666D01*
X23399996Y-38690666D02*
X23361901Y-38766857D01*
X23361901Y-38766857D02*
X23361901Y-38919238D01*
X23361901Y-38919238D02*
X23399996Y-38995428D01*
X23399996Y-38995428D02*
X23438091Y-39033523D01*
X23438091Y-39033523D02*
X23514282Y-39071619D01*
X33178948Y-40265285D02*
X33217044Y-40303381D01*
X33217044Y-40303381D02*
X33255139Y-40417666D01*
X33255139Y-40417666D02*
X33255139Y-40493857D01*
X33255139Y-40493857D02*
X33217044Y-40608143D01*
X33217044Y-40608143D02*
X33140853Y-40684333D01*
X33140853Y-40684333D02*
X33064663Y-40722428D01*
X33064663Y-40722428D02*
X32912282Y-40760524D01*
X32912282Y-40760524D02*
X32797996Y-40760524D01*
X32797996Y-40760524D02*
X32645615Y-40722428D01*
X32645615Y-40722428D02*
X32569424Y-40684333D01*
X32569424Y-40684333D02*
X32493234Y-40608143D01*
X32493234Y-40608143D02*
X32455139Y-40493857D01*
X32455139Y-40493857D02*
X32455139Y-40417666D01*
X32455139Y-40417666D02*
X32493234Y-40303381D01*
X32493234Y-40303381D02*
X32531329Y-40265285D01*
X33255139Y-39503381D02*
X33255139Y-39960524D01*
X33255139Y-39731952D02*
X32455139Y-39731952D01*
X32455139Y-39731952D02*
X32569424Y-39808143D01*
X32569424Y-39808143D02*
X32645615Y-39884333D01*
X32645615Y-39884333D02*
X32683710Y-39960524D01*
X33255139Y-39122428D02*
X33255139Y-38970047D01*
X33255139Y-38970047D02*
X33217044Y-38893857D01*
X33217044Y-38893857D02*
X33178948Y-38855761D01*
X33178948Y-38855761D02*
X33064663Y-38779571D01*
X33064663Y-38779571D02*
X32912282Y-38741476D01*
X32912282Y-38741476D02*
X32607520Y-38741476D01*
X32607520Y-38741476D02*
X32531329Y-38779571D01*
X32531329Y-38779571D02*
X32493234Y-38817666D01*
X32493234Y-38817666D02*
X32455139Y-38893857D01*
X32455139Y-38893857D02*
X32455139Y-39046238D01*
X32455139Y-39046238D02*
X32493234Y-39122428D01*
X32493234Y-39122428D02*
X32531329Y-39160523D01*
X32531329Y-39160523D02*
X32607520Y-39198619D01*
X32607520Y-39198619D02*
X32797996Y-39198619D01*
X32797996Y-39198619D02*
X32874186Y-39160523D01*
X32874186Y-39160523D02*
X32912282Y-39122428D01*
X32912282Y-39122428D02*
X32950377Y-39046238D01*
X32950377Y-39046238D02*
X32950377Y-38893857D01*
X32950377Y-38893857D02*
X32912282Y-38817666D01*
X32912282Y-38817666D02*
X32874186Y-38779571D01*
X32874186Y-38779571D02*
X32797996Y-38741476D01*
X26524139Y-40011332D02*
X26143186Y-40277999D01*
X26524139Y-40468475D02*
X25724139Y-40468475D01*
X25724139Y-40468475D02*
X25724139Y-40163713D01*
X25724139Y-40163713D02*
X25762234Y-40087523D01*
X25762234Y-40087523D02*
X25800329Y-40049428D01*
X25800329Y-40049428D02*
X25876520Y-40011332D01*
X25876520Y-40011332D02*
X25990805Y-40011332D01*
X25990805Y-40011332D02*
X26066996Y-40049428D01*
X26066996Y-40049428D02*
X26105091Y-40087523D01*
X26105091Y-40087523D02*
X26143186Y-40163713D01*
X26143186Y-40163713D02*
X26143186Y-40468475D01*
X25724139Y-39744666D02*
X25724139Y-39211332D01*
X25724139Y-39211332D02*
X26524139Y-39554190D01*
X42615139Y-40360523D02*
X43262758Y-40360523D01*
X43262758Y-40360523D02*
X43338948Y-40322428D01*
X43338948Y-40322428D02*
X43377044Y-40284333D01*
X43377044Y-40284333D02*
X43415139Y-40208142D01*
X43415139Y-40208142D02*
X43415139Y-40055761D01*
X43415139Y-40055761D02*
X43377044Y-39979571D01*
X43377044Y-39979571D02*
X43338948Y-39941476D01*
X43338948Y-39941476D02*
X43262758Y-39903380D01*
X43262758Y-39903380D02*
X42615139Y-39903380D01*
X42957996Y-39408143D02*
X42919901Y-39484333D01*
X42919901Y-39484333D02*
X42881805Y-39522428D01*
X42881805Y-39522428D02*
X42805615Y-39560524D01*
X42805615Y-39560524D02*
X42767520Y-39560524D01*
X42767520Y-39560524D02*
X42691329Y-39522428D01*
X42691329Y-39522428D02*
X42653234Y-39484333D01*
X42653234Y-39484333D02*
X42615139Y-39408143D01*
X42615139Y-39408143D02*
X42615139Y-39255762D01*
X42615139Y-39255762D02*
X42653234Y-39179571D01*
X42653234Y-39179571D02*
X42691329Y-39141476D01*
X42691329Y-39141476D02*
X42767520Y-39103381D01*
X42767520Y-39103381D02*
X42805615Y-39103381D01*
X42805615Y-39103381D02*
X42881805Y-39141476D01*
X42881805Y-39141476D02*
X42919901Y-39179571D01*
X42919901Y-39179571D02*
X42957996Y-39255762D01*
X42957996Y-39255762D02*
X42957996Y-39408143D01*
X42957996Y-39408143D02*
X42996091Y-39484333D01*
X42996091Y-39484333D02*
X43034186Y-39522428D01*
X43034186Y-39522428D02*
X43110377Y-39560524D01*
X43110377Y-39560524D02*
X43262758Y-39560524D01*
X43262758Y-39560524D02*
X43338948Y-39522428D01*
X43338948Y-39522428D02*
X43377044Y-39484333D01*
X43377044Y-39484333D02*
X43415139Y-39408143D01*
X43415139Y-39408143D02*
X43415139Y-39255762D01*
X43415139Y-39255762D02*
X43377044Y-39179571D01*
X43377044Y-39179571D02*
X43338948Y-39141476D01*
X43338948Y-39141476D02*
X43262758Y-39103381D01*
X43262758Y-39103381D02*
X43110377Y-39103381D01*
X43110377Y-39103381D02*
X43034186Y-39141476D01*
X43034186Y-39141476D02*
X42996091Y-39179571D01*
X42996091Y-39179571D02*
X42957996Y-39255762D01*
X43415139Y-40254285D02*
X43034186Y-40520952D01*
X43415139Y-40711428D02*
X42615139Y-40711428D01*
X42615139Y-40711428D02*
X42615139Y-40406666D01*
X42615139Y-40406666D02*
X42653234Y-40330476D01*
X42653234Y-40330476D02*
X42691329Y-40292381D01*
X42691329Y-40292381D02*
X42767520Y-40254285D01*
X42767520Y-40254285D02*
X42881805Y-40254285D01*
X42881805Y-40254285D02*
X42957996Y-40292381D01*
X42957996Y-40292381D02*
X42996091Y-40330476D01*
X42996091Y-40330476D02*
X43034186Y-40406666D01*
X43034186Y-40406666D02*
X43034186Y-40711428D01*
X43415139Y-39492381D02*
X43415139Y-39949524D01*
X43415139Y-39720952D02*
X42615139Y-39720952D01*
X42615139Y-39720952D02*
X42729424Y-39797143D01*
X42729424Y-39797143D02*
X42805615Y-39873333D01*
X42805615Y-39873333D02*
X42843710Y-39949524D01*
X42691329Y-39187619D02*
X42653234Y-39149523D01*
X42653234Y-39149523D02*
X42615139Y-39073333D01*
X42615139Y-39073333D02*
X42615139Y-38882857D01*
X42615139Y-38882857D02*
X42653234Y-38806666D01*
X42653234Y-38806666D02*
X42691329Y-38768571D01*
X42691329Y-38768571D02*
X42767520Y-38730476D01*
X42767520Y-38730476D02*
X42843710Y-38730476D01*
X42843710Y-38730476D02*
X42957996Y-38768571D01*
X42957996Y-38768571D02*
X43415139Y-39225714D01*
X43415139Y-39225714D02*
X43415139Y-38730476D01*
X40754948Y-40243285D02*
X40793044Y-40281381D01*
X40793044Y-40281381D02*
X40831139Y-40395666D01*
X40831139Y-40395666D02*
X40831139Y-40471857D01*
X40831139Y-40471857D02*
X40793044Y-40586143D01*
X40793044Y-40586143D02*
X40716853Y-40662333D01*
X40716853Y-40662333D02*
X40640663Y-40700428D01*
X40640663Y-40700428D02*
X40488282Y-40738524D01*
X40488282Y-40738524D02*
X40373996Y-40738524D01*
X40373996Y-40738524D02*
X40221615Y-40700428D01*
X40221615Y-40700428D02*
X40145424Y-40662333D01*
X40145424Y-40662333D02*
X40069234Y-40586143D01*
X40069234Y-40586143D02*
X40031139Y-40471857D01*
X40031139Y-40471857D02*
X40031139Y-40395666D01*
X40031139Y-40395666D02*
X40069234Y-40281381D01*
X40069234Y-40281381D02*
X40107329Y-40243285D01*
X40107329Y-39938524D02*
X40069234Y-39900428D01*
X40069234Y-39900428D02*
X40031139Y-39824238D01*
X40031139Y-39824238D02*
X40031139Y-39633762D01*
X40031139Y-39633762D02*
X40069234Y-39557571D01*
X40069234Y-39557571D02*
X40107329Y-39519476D01*
X40107329Y-39519476D02*
X40183520Y-39481381D01*
X40183520Y-39481381D02*
X40259710Y-39481381D01*
X40259710Y-39481381D02*
X40373996Y-39519476D01*
X40373996Y-39519476D02*
X40831139Y-39976619D01*
X40831139Y-39976619D02*
X40831139Y-39481381D01*
X40107329Y-39176619D02*
X40069234Y-39138523D01*
X40069234Y-39138523D02*
X40031139Y-39062333D01*
X40031139Y-39062333D02*
X40031139Y-38871857D01*
X40031139Y-38871857D02*
X40069234Y-38795666D01*
X40069234Y-38795666D02*
X40107329Y-38757571D01*
X40107329Y-38757571D02*
X40183520Y-38719476D01*
X40183520Y-38719476D02*
X40259710Y-38719476D01*
X40259710Y-38719476D02*
X40373996Y-38757571D01*
X40373996Y-38757571D02*
X40831139Y-39214714D01*
X40831139Y-39214714D02*
X40831139Y-38719476D01*
X46640948Y-40254285D02*
X46679044Y-40292381D01*
X46679044Y-40292381D02*
X46717139Y-40406666D01*
X46717139Y-40406666D02*
X46717139Y-40482857D01*
X46717139Y-40482857D02*
X46679044Y-40597143D01*
X46679044Y-40597143D02*
X46602853Y-40673333D01*
X46602853Y-40673333D02*
X46526663Y-40711428D01*
X46526663Y-40711428D02*
X46374282Y-40749524D01*
X46374282Y-40749524D02*
X46259996Y-40749524D01*
X46259996Y-40749524D02*
X46107615Y-40711428D01*
X46107615Y-40711428D02*
X46031424Y-40673333D01*
X46031424Y-40673333D02*
X45955234Y-40597143D01*
X45955234Y-40597143D02*
X45917139Y-40482857D01*
X45917139Y-40482857D02*
X45917139Y-40406666D01*
X45917139Y-40406666D02*
X45955234Y-40292381D01*
X45955234Y-40292381D02*
X45993329Y-40254285D01*
X46717139Y-39492381D02*
X46717139Y-39949524D01*
X46717139Y-39720952D02*
X45917139Y-39720952D01*
X45917139Y-39720952D02*
X46031424Y-39797143D01*
X46031424Y-39797143D02*
X46107615Y-39873333D01*
X46107615Y-39873333D02*
X46145710Y-39949524D01*
X45917139Y-39225714D02*
X45917139Y-38692380D01*
X45917139Y-38692380D02*
X46717139Y-39035238D01*
X30124476Y-38932139D02*
X30124476Y-39579758D01*
X30124476Y-39579758D02*
X30162571Y-39655948D01*
X30162571Y-39655948D02*
X30200666Y-39694044D01*
X30200666Y-39694044D02*
X30276857Y-39732139D01*
X30276857Y-39732139D02*
X30429238Y-39732139D01*
X30429238Y-39732139D02*
X30505428Y-39694044D01*
X30505428Y-39694044D02*
X30543523Y-39655948D01*
X30543523Y-39655948D02*
X30581619Y-39579758D01*
X30581619Y-39579758D02*
X30581619Y-38932139D01*
X30886380Y-38932139D02*
X31419714Y-38932139D01*
X31419714Y-38932139D02*
X31076856Y-39732139D01*
X21005809Y-40316329D02*
X20929619Y-40278234D01*
X20929619Y-40278234D02*
X20853428Y-40202044D01*
X20853428Y-40202044D02*
X20739142Y-40087758D01*
X20739142Y-40087758D02*
X20662952Y-40049663D01*
X20662952Y-40049663D02*
X20586761Y-40049663D01*
X20624857Y-40240139D02*
X20548666Y-40202044D01*
X20548666Y-40202044D02*
X20472476Y-40125853D01*
X20472476Y-40125853D02*
X20434380Y-39973472D01*
X20434380Y-39973472D02*
X20434380Y-39706805D01*
X20434380Y-39706805D02*
X20472476Y-39554424D01*
X20472476Y-39554424D02*
X20548666Y-39478234D01*
X20548666Y-39478234D02*
X20624857Y-39440139D01*
X20624857Y-39440139D02*
X20777238Y-39440139D01*
X20777238Y-39440139D02*
X20853428Y-39478234D01*
X20853428Y-39478234D02*
X20929619Y-39554424D01*
X20929619Y-39554424D02*
X20967714Y-39706805D01*
X20967714Y-39706805D02*
X20967714Y-39973472D01*
X20967714Y-39973472D02*
X20929619Y-40125853D01*
X20929619Y-40125853D02*
X20853428Y-40202044D01*
X20853428Y-40202044D02*
X20777238Y-40240139D01*
X20777238Y-40240139D02*
X20624857Y-40240139D01*
X21729618Y-40240139D02*
X21272475Y-40240139D01*
X21501047Y-40240139D02*
X21501047Y-39440139D01*
X21501047Y-39440139D02*
X21424856Y-39554424D01*
X21424856Y-39554424D02*
X21348666Y-39630615D01*
X21348666Y-39630615D02*
X21272475Y-39668710D01*
X16287948Y-40392285D02*
X16326044Y-40430381D01*
X16326044Y-40430381D02*
X16364139Y-40544666D01*
X16364139Y-40544666D02*
X16364139Y-40620857D01*
X16364139Y-40620857D02*
X16326044Y-40735143D01*
X16326044Y-40735143D02*
X16249853Y-40811333D01*
X16249853Y-40811333D02*
X16173663Y-40849428D01*
X16173663Y-40849428D02*
X16021282Y-40887524D01*
X16021282Y-40887524D02*
X15906996Y-40887524D01*
X15906996Y-40887524D02*
X15754615Y-40849428D01*
X15754615Y-40849428D02*
X15678424Y-40811333D01*
X15678424Y-40811333D02*
X15602234Y-40735143D01*
X15602234Y-40735143D02*
X15564139Y-40620857D01*
X15564139Y-40620857D02*
X15564139Y-40544666D01*
X15564139Y-40544666D02*
X15602234Y-40430381D01*
X15602234Y-40430381D02*
X15640329Y-40392285D01*
X16364139Y-39630381D02*
X16364139Y-40087524D01*
X16364139Y-39858952D02*
X15564139Y-39858952D01*
X15564139Y-39858952D02*
X15678424Y-39935143D01*
X15678424Y-39935143D02*
X15754615Y-40011333D01*
X15754615Y-40011333D02*
X15792710Y-40087524D01*
X15906996Y-39173238D02*
X15868901Y-39249428D01*
X15868901Y-39249428D02*
X15830805Y-39287523D01*
X15830805Y-39287523D02*
X15754615Y-39325619D01*
X15754615Y-39325619D02*
X15716520Y-39325619D01*
X15716520Y-39325619D02*
X15640329Y-39287523D01*
X15640329Y-39287523D02*
X15602234Y-39249428D01*
X15602234Y-39249428D02*
X15564139Y-39173238D01*
X15564139Y-39173238D02*
X15564139Y-39020857D01*
X15564139Y-39020857D02*
X15602234Y-38944666D01*
X15602234Y-38944666D02*
X15640329Y-38906571D01*
X15640329Y-38906571D02*
X15716520Y-38868476D01*
X15716520Y-38868476D02*
X15754615Y-38868476D01*
X15754615Y-38868476D02*
X15830805Y-38906571D01*
X15830805Y-38906571D02*
X15868901Y-38944666D01*
X15868901Y-38944666D02*
X15906996Y-39020857D01*
X15906996Y-39020857D02*
X15906996Y-39173238D01*
X15906996Y-39173238D02*
X15945091Y-39249428D01*
X15945091Y-39249428D02*
X15983186Y-39287523D01*
X15983186Y-39287523D02*
X16059377Y-39325619D01*
X16059377Y-39325619D02*
X16211758Y-39325619D01*
X16211758Y-39325619D02*
X16287948Y-39287523D01*
X16287948Y-39287523D02*
X16326044Y-39249428D01*
X16326044Y-39249428D02*
X16364139Y-39173238D01*
X16364139Y-39173238D02*
X16364139Y-39020857D01*
X16364139Y-39020857D02*
X16326044Y-38944666D01*
X16326044Y-38944666D02*
X16287948Y-38906571D01*
X16287948Y-38906571D02*
X16211758Y-38868476D01*
X16211758Y-38868476D02*
X16059377Y-38868476D01*
X16059377Y-38868476D02*
X15983186Y-38906571D01*
X15983186Y-38906571D02*
X15945091Y-38944666D01*
X15945091Y-38944666D02*
X15906996Y-39020857D01*
X29720667Y-27971948D02*
X29682571Y-28010044D01*
X29682571Y-28010044D02*
X29568286Y-28048139D01*
X29568286Y-28048139D02*
X29492095Y-28048139D01*
X29492095Y-28048139D02*
X29377809Y-28010044D01*
X29377809Y-28010044D02*
X29301619Y-27933853D01*
X29301619Y-27933853D02*
X29263524Y-27857663D01*
X29263524Y-27857663D02*
X29225428Y-27705282D01*
X29225428Y-27705282D02*
X29225428Y-27590996D01*
X29225428Y-27590996D02*
X29263524Y-27438615D01*
X29263524Y-27438615D02*
X29301619Y-27362424D01*
X29301619Y-27362424D02*
X29377809Y-27286234D01*
X29377809Y-27286234D02*
X29492095Y-27248139D01*
X29492095Y-27248139D02*
X29568286Y-27248139D01*
X29568286Y-27248139D02*
X29682571Y-27286234D01*
X29682571Y-27286234D02*
X29720667Y-27324329D01*
X30101619Y-28048139D02*
X30254000Y-28048139D01*
X30254000Y-28048139D02*
X30330190Y-28010044D01*
X30330190Y-28010044D02*
X30368286Y-27971948D01*
X30368286Y-27971948D02*
X30444476Y-27857663D01*
X30444476Y-27857663D02*
X30482571Y-27705282D01*
X30482571Y-27705282D02*
X30482571Y-27400520D01*
X30482571Y-27400520D02*
X30444476Y-27324329D01*
X30444476Y-27324329D02*
X30406381Y-27286234D01*
X30406381Y-27286234D02*
X30330190Y-27248139D01*
X30330190Y-27248139D02*
X30177809Y-27248139D01*
X30177809Y-27248139D02*
X30101619Y-27286234D01*
X30101619Y-27286234D02*
X30063524Y-27324329D01*
X30063524Y-27324329D02*
X30025428Y-27400520D01*
X30025428Y-27400520D02*
X30025428Y-27590996D01*
X30025428Y-27590996D02*
X30063524Y-27667186D01*
X30063524Y-27667186D02*
X30101619Y-27705282D01*
X30101619Y-27705282D02*
X30177809Y-27743377D01*
X30177809Y-27743377D02*
X30330190Y-27743377D01*
X30330190Y-27743377D02*
X30406381Y-27705282D01*
X30406381Y-27705282D02*
X30444476Y-27667186D01*
X30444476Y-27667186D02*
X30482571Y-27590996D01*
X7524948Y-24771285D02*
X7563044Y-24809381D01*
X7563044Y-24809381D02*
X7601139Y-24923666D01*
X7601139Y-24923666D02*
X7601139Y-24999857D01*
X7601139Y-24999857D02*
X7563044Y-25114143D01*
X7563044Y-25114143D02*
X7486853Y-25190333D01*
X7486853Y-25190333D02*
X7410663Y-25228428D01*
X7410663Y-25228428D02*
X7258282Y-25266524D01*
X7258282Y-25266524D02*
X7143996Y-25266524D01*
X7143996Y-25266524D02*
X6991615Y-25228428D01*
X6991615Y-25228428D02*
X6915424Y-25190333D01*
X6915424Y-25190333D02*
X6839234Y-25114143D01*
X6839234Y-25114143D02*
X6801139Y-24999857D01*
X6801139Y-24999857D02*
X6801139Y-24923666D01*
X6801139Y-24923666D02*
X6839234Y-24809381D01*
X6839234Y-24809381D02*
X6877329Y-24771285D01*
X6877329Y-24466524D02*
X6839234Y-24428428D01*
X6839234Y-24428428D02*
X6801139Y-24352238D01*
X6801139Y-24352238D02*
X6801139Y-24161762D01*
X6801139Y-24161762D02*
X6839234Y-24085571D01*
X6839234Y-24085571D02*
X6877329Y-24047476D01*
X6877329Y-24047476D02*
X6953520Y-24009381D01*
X6953520Y-24009381D02*
X7029710Y-24009381D01*
X7029710Y-24009381D02*
X7143996Y-24047476D01*
X7143996Y-24047476D02*
X7601139Y-24504619D01*
X7601139Y-24504619D02*
X7601139Y-24009381D01*
X6801139Y-23742714D02*
X6801139Y-23209380D01*
X6801139Y-23209380D02*
X7601139Y-23552238D01*
X11728524Y-32747139D02*
X11728524Y-31947139D01*
X11728524Y-31947139D02*
X11919000Y-31947139D01*
X11919000Y-31947139D02*
X12033286Y-31985234D01*
X12033286Y-31985234D02*
X12109476Y-32061424D01*
X12109476Y-32061424D02*
X12147571Y-32137615D01*
X12147571Y-32137615D02*
X12185667Y-32289996D01*
X12185667Y-32289996D02*
X12185667Y-32404282D01*
X12185667Y-32404282D02*
X12147571Y-32556663D01*
X12147571Y-32556663D02*
X12109476Y-32632853D01*
X12109476Y-32632853D02*
X12033286Y-32709044D01*
X12033286Y-32709044D02*
X11919000Y-32747139D01*
X11919000Y-32747139D02*
X11728524Y-32747139D01*
X12947571Y-32747139D02*
X12490428Y-32747139D01*
X12719000Y-32747139D02*
X12719000Y-31947139D01*
X12719000Y-31947139D02*
X12642809Y-32061424D01*
X12642809Y-32061424D02*
X12566619Y-32137615D01*
X12566619Y-32137615D02*
X12490428Y-32175710D01*
X15221139Y-12071285D02*
X14840186Y-12337952D01*
X15221139Y-12528428D02*
X14421139Y-12528428D01*
X14421139Y-12528428D02*
X14421139Y-12223666D01*
X14421139Y-12223666D02*
X14459234Y-12147476D01*
X14459234Y-12147476D02*
X14497329Y-12109381D01*
X14497329Y-12109381D02*
X14573520Y-12071285D01*
X14573520Y-12071285D02*
X14687805Y-12071285D01*
X14687805Y-12071285D02*
X14763996Y-12109381D01*
X14763996Y-12109381D02*
X14802091Y-12147476D01*
X14802091Y-12147476D02*
X14840186Y-12223666D01*
X14840186Y-12223666D02*
X14840186Y-12528428D01*
X14497329Y-11766524D02*
X14459234Y-11728428D01*
X14459234Y-11728428D02*
X14421139Y-11652238D01*
X14421139Y-11652238D02*
X14421139Y-11461762D01*
X14421139Y-11461762D02*
X14459234Y-11385571D01*
X14459234Y-11385571D02*
X14497329Y-11347476D01*
X14497329Y-11347476D02*
X14573520Y-11309381D01*
X14573520Y-11309381D02*
X14649710Y-11309381D01*
X14649710Y-11309381D02*
X14763996Y-11347476D01*
X14763996Y-11347476D02*
X15221139Y-11804619D01*
X15221139Y-11804619D02*
X15221139Y-11309381D01*
X14421139Y-10623666D02*
X14421139Y-10776047D01*
X14421139Y-10776047D02*
X14459234Y-10852238D01*
X14459234Y-10852238D02*
X14497329Y-10890333D01*
X14497329Y-10890333D02*
X14611615Y-10966523D01*
X14611615Y-10966523D02*
X14763996Y-11004619D01*
X14763996Y-11004619D02*
X15068758Y-11004619D01*
X15068758Y-11004619D02*
X15144948Y-10966523D01*
X15144948Y-10966523D02*
X15183044Y-10928428D01*
X15183044Y-10928428D02*
X15221139Y-10852238D01*
X15221139Y-10852238D02*
X15221139Y-10699857D01*
X15221139Y-10699857D02*
X15183044Y-10623666D01*
X15183044Y-10623666D02*
X15144948Y-10585571D01*
X15144948Y-10585571D02*
X15068758Y-10547476D01*
X15068758Y-10547476D02*
X14878282Y-10547476D01*
X14878282Y-10547476D02*
X14802091Y-10585571D01*
X14802091Y-10585571D02*
X14763996Y-10623666D01*
X14763996Y-10623666D02*
X14725901Y-10699857D01*
X14725901Y-10699857D02*
X14725901Y-10852238D01*
X14725901Y-10852238D02*
X14763996Y-10928428D01*
X14763996Y-10928428D02*
X14802091Y-10966523D01*
X14802091Y-10966523D02*
X14878282Y-11004619D01*
X12604948Y-16389285D02*
X12643044Y-16427381D01*
X12643044Y-16427381D02*
X12681139Y-16541666D01*
X12681139Y-16541666D02*
X12681139Y-16617857D01*
X12681139Y-16617857D02*
X12643044Y-16732143D01*
X12643044Y-16732143D02*
X12566853Y-16808333D01*
X12566853Y-16808333D02*
X12490663Y-16846428D01*
X12490663Y-16846428D02*
X12338282Y-16884524D01*
X12338282Y-16884524D02*
X12223996Y-16884524D01*
X12223996Y-16884524D02*
X12071615Y-16846428D01*
X12071615Y-16846428D02*
X11995424Y-16808333D01*
X11995424Y-16808333D02*
X11919234Y-16732143D01*
X11919234Y-16732143D02*
X11881139Y-16617857D01*
X11881139Y-16617857D02*
X11881139Y-16541666D01*
X11881139Y-16541666D02*
X11919234Y-16427381D01*
X11919234Y-16427381D02*
X11957329Y-16389285D01*
X12681139Y-15627381D02*
X12681139Y-16084524D01*
X12681139Y-15855952D02*
X11881139Y-15855952D01*
X11881139Y-15855952D02*
X11995424Y-15932143D01*
X11995424Y-15932143D02*
X12071615Y-16008333D01*
X12071615Y-16008333D02*
X12109710Y-16084524D01*
X11881139Y-15132142D02*
X11881139Y-15055952D01*
X11881139Y-15055952D02*
X11919234Y-14979761D01*
X11919234Y-14979761D02*
X11957329Y-14941666D01*
X11957329Y-14941666D02*
X12033520Y-14903571D01*
X12033520Y-14903571D02*
X12185901Y-14865476D01*
X12185901Y-14865476D02*
X12376377Y-14865476D01*
X12376377Y-14865476D02*
X12528758Y-14903571D01*
X12528758Y-14903571D02*
X12604948Y-14941666D01*
X12604948Y-14941666D02*
X12643044Y-14979761D01*
X12643044Y-14979761D02*
X12681139Y-15055952D01*
X12681139Y-15055952D02*
X12681139Y-15132142D01*
X12681139Y-15132142D02*
X12643044Y-15208333D01*
X12643044Y-15208333D02*
X12604948Y-15246428D01*
X12604948Y-15246428D02*
X12528758Y-15284523D01*
X12528758Y-15284523D02*
X12376377Y-15322619D01*
X12376377Y-15322619D02*
X12185901Y-15322619D01*
X12185901Y-15322619D02*
X12033520Y-15284523D01*
X12033520Y-15284523D02*
X11957329Y-15246428D01*
X11957329Y-15246428D02*
X11919234Y-15208333D01*
X11919234Y-15208333D02*
X11881139Y-15132142D01*
X6968091Y-16333200D02*
X6968091Y-16599866D01*
X7387139Y-16599866D02*
X6587139Y-16599866D01*
X6587139Y-16599866D02*
X6587139Y-16218914D01*
X6968091Y-15647486D02*
X7006186Y-15533200D01*
X7006186Y-15533200D02*
X7044282Y-15495105D01*
X7044282Y-15495105D02*
X7120472Y-15457009D01*
X7120472Y-15457009D02*
X7234758Y-15457009D01*
X7234758Y-15457009D02*
X7310948Y-15495105D01*
X7310948Y-15495105D02*
X7349044Y-15533200D01*
X7349044Y-15533200D02*
X7387139Y-15609390D01*
X7387139Y-15609390D02*
X7387139Y-15914152D01*
X7387139Y-15914152D02*
X6587139Y-15914152D01*
X6587139Y-15914152D02*
X6587139Y-15647486D01*
X6587139Y-15647486D02*
X6625234Y-15571295D01*
X6625234Y-15571295D02*
X6663329Y-15533200D01*
X6663329Y-15533200D02*
X6739520Y-15495105D01*
X6739520Y-15495105D02*
X6815710Y-15495105D01*
X6815710Y-15495105D02*
X6891901Y-15533200D01*
X6891901Y-15533200D02*
X6929996Y-15571295D01*
X6929996Y-15571295D02*
X6968091Y-15647486D01*
X6968091Y-15647486D02*
X6968091Y-15914152D01*
X7387139Y-14695105D02*
X7387139Y-15152248D01*
X7387139Y-14923676D02*
X6587139Y-14923676D01*
X6587139Y-14923676D02*
X6701424Y-14999867D01*
X6701424Y-14999867D02*
X6777615Y-15076057D01*
X6777615Y-15076057D02*
X6815710Y-15152248D01*
X7601139Y-28835285D02*
X7220186Y-29101952D01*
X7601139Y-29292428D02*
X6801139Y-29292428D01*
X6801139Y-29292428D02*
X6801139Y-28987666D01*
X6801139Y-28987666D02*
X6839234Y-28911476D01*
X6839234Y-28911476D02*
X6877329Y-28873381D01*
X6877329Y-28873381D02*
X6953520Y-28835285D01*
X6953520Y-28835285D02*
X7067805Y-28835285D01*
X7067805Y-28835285D02*
X7143996Y-28873381D01*
X7143996Y-28873381D02*
X7182091Y-28911476D01*
X7182091Y-28911476D02*
X7220186Y-28987666D01*
X7220186Y-28987666D02*
X7220186Y-29292428D01*
X6877329Y-28530524D02*
X6839234Y-28492428D01*
X6839234Y-28492428D02*
X6801139Y-28416238D01*
X6801139Y-28416238D02*
X6801139Y-28225762D01*
X6801139Y-28225762D02*
X6839234Y-28149571D01*
X6839234Y-28149571D02*
X6877329Y-28111476D01*
X6877329Y-28111476D02*
X6953520Y-28073381D01*
X6953520Y-28073381D02*
X7029710Y-28073381D01*
X7029710Y-28073381D02*
X7143996Y-28111476D01*
X7143996Y-28111476D02*
X7601139Y-28568619D01*
X7601139Y-28568619D02*
X7601139Y-28073381D01*
X7601139Y-27692428D02*
X7601139Y-27540047D01*
X7601139Y-27540047D02*
X7563044Y-27463857D01*
X7563044Y-27463857D02*
X7524948Y-27425761D01*
X7524948Y-27425761D02*
X7410663Y-27349571D01*
X7410663Y-27349571D02*
X7258282Y-27311476D01*
X7258282Y-27311476D02*
X6953520Y-27311476D01*
X6953520Y-27311476D02*
X6877329Y-27349571D01*
X6877329Y-27349571D02*
X6839234Y-27387666D01*
X6839234Y-27387666D02*
X6801139Y-27463857D01*
X6801139Y-27463857D02*
X6801139Y-27616238D01*
X6801139Y-27616238D02*
X6839234Y-27692428D01*
X6839234Y-27692428D02*
X6877329Y-27730523D01*
X6877329Y-27730523D02*
X6953520Y-27768619D01*
X6953520Y-27768619D02*
X7143996Y-27768619D01*
X7143996Y-27768619D02*
X7220186Y-27730523D01*
X7220186Y-27730523D02*
X7258282Y-27692428D01*
X7258282Y-27692428D02*
X7296377Y-27616238D01*
X7296377Y-27616238D02*
X7296377Y-27463857D01*
X7296377Y-27463857D02*
X7258282Y-27387666D01*
X7258282Y-27387666D02*
X7220186Y-27349571D01*
X7220186Y-27349571D02*
X7143996Y-27311476D01*
X49180948Y-40265285D02*
X49219044Y-40303381D01*
X49219044Y-40303381D02*
X49257139Y-40417666D01*
X49257139Y-40417666D02*
X49257139Y-40493857D01*
X49257139Y-40493857D02*
X49219044Y-40608143D01*
X49219044Y-40608143D02*
X49142853Y-40684333D01*
X49142853Y-40684333D02*
X49066663Y-40722428D01*
X49066663Y-40722428D02*
X48914282Y-40760524D01*
X48914282Y-40760524D02*
X48799996Y-40760524D01*
X48799996Y-40760524D02*
X48647615Y-40722428D01*
X48647615Y-40722428D02*
X48571424Y-40684333D01*
X48571424Y-40684333D02*
X48495234Y-40608143D01*
X48495234Y-40608143D02*
X48457139Y-40493857D01*
X48457139Y-40493857D02*
X48457139Y-40417666D01*
X48457139Y-40417666D02*
X48495234Y-40303381D01*
X48495234Y-40303381D02*
X48533329Y-40265285D01*
X48533329Y-39960524D02*
X48495234Y-39922428D01*
X48495234Y-39922428D02*
X48457139Y-39846238D01*
X48457139Y-39846238D02*
X48457139Y-39655762D01*
X48457139Y-39655762D02*
X48495234Y-39579571D01*
X48495234Y-39579571D02*
X48533329Y-39541476D01*
X48533329Y-39541476D02*
X48609520Y-39503381D01*
X48609520Y-39503381D02*
X48685710Y-39503381D01*
X48685710Y-39503381D02*
X48799996Y-39541476D01*
X48799996Y-39541476D02*
X49257139Y-39998619D01*
X49257139Y-39998619D02*
X49257139Y-39503381D01*
X49257139Y-39122428D02*
X49257139Y-38970047D01*
X49257139Y-38970047D02*
X49219044Y-38893857D01*
X49219044Y-38893857D02*
X49180948Y-38855761D01*
X49180948Y-38855761D02*
X49066663Y-38779571D01*
X49066663Y-38779571D02*
X48914282Y-38741476D01*
X48914282Y-38741476D02*
X48609520Y-38741476D01*
X48609520Y-38741476D02*
X48533329Y-38779571D01*
X48533329Y-38779571D02*
X48495234Y-38817666D01*
X48495234Y-38817666D02*
X48457139Y-38893857D01*
X48457139Y-38893857D02*
X48457139Y-39046238D01*
X48457139Y-39046238D02*
X48495234Y-39122428D01*
X48495234Y-39122428D02*
X48533329Y-39160523D01*
X48533329Y-39160523D02*
X48609520Y-39198619D01*
X48609520Y-39198619D02*
X48799996Y-39198619D01*
X48799996Y-39198619D02*
X48876186Y-39160523D01*
X48876186Y-39160523D02*
X48914282Y-39122428D01*
X48914282Y-39122428D02*
X48952377Y-39046238D01*
X48952377Y-39046238D02*
X48952377Y-38893857D01*
X48952377Y-38893857D02*
X48914282Y-38817666D01*
X48914282Y-38817666D02*
X48876186Y-38779571D01*
X48876186Y-38779571D02*
X48799996Y-38741476D01*
X56305524Y-6839139D02*
X56305524Y-6039139D01*
X56305524Y-6039139D02*
X56496000Y-6039139D01*
X56496000Y-6039139D02*
X56610286Y-6077234D01*
X56610286Y-6077234D02*
X56686476Y-6153424D01*
X56686476Y-6153424D02*
X56724571Y-6229615D01*
X56724571Y-6229615D02*
X56762667Y-6381996D01*
X56762667Y-6381996D02*
X56762667Y-6496282D01*
X56762667Y-6496282D02*
X56724571Y-6648663D01*
X56724571Y-6648663D02*
X56686476Y-6724853D01*
X56686476Y-6724853D02*
X56610286Y-6801044D01*
X56610286Y-6801044D02*
X56496000Y-6839139D01*
X56496000Y-6839139D02*
X56305524Y-6839139D01*
X57448381Y-6305805D02*
X57448381Y-6839139D01*
X57257905Y-6001044D02*
X57067428Y-6572472D01*
X57067428Y-6572472D02*
X57562667Y-6572472D01*
X12604948Y-28844285D02*
X12643044Y-28882381D01*
X12643044Y-28882381D02*
X12681139Y-28996666D01*
X12681139Y-28996666D02*
X12681139Y-29072857D01*
X12681139Y-29072857D02*
X12643044Y-29187143D01*
X12643044Y-29187143D02*
X12566853Y-29263333D01*
X12566853Y-29263333D02*
X12490663Y-29301428D01*
X12490663Y-29301428D02*
X12338282Y-29339524D01*
X12338282Y-29339524D02*
X12223996Y-29339524D01*
X12223996Y-29339524D02*
X12071615Y-29301428D01*
X12071615Y-29301428D02*
X11995424Y-29263333D01*
X11995424Y-29263333D02*
X11919234Y-29187143D01*
X11919234Y-29187143D02*
X11881139Y-29072857D01*
X11881139Y-29072857D02*
X11881139Y-28996666D01*
X11881139Y-28996666D02*
X11919234Y-28882381D01*
X11919234Y-28882381D02*
X11957329Y-28844285D01*
X12681139Y-28082381D02*
X12681139Y-28539524D01*
X12681139Y-28310952D02*
X11881139Y-28310952D01*
X11881139Y-28310952D02*
X11995424Y-28387143D01*
X11995424Y-28387143D02*
X12071615Y-28463333D01*
X12071615Y-28463333D02*
X12109710Y-28539524D01*
X11881139Y-27815714D02*
X11881139Y-27320476D01*
X11881139Y-27320476D02*
X12185901Y-27587142D01*
X12185901Y-27587142D02*
X12185901Y-27472857D01*
X12185901Y-27472857D02*
X12223996Y-27396666D01*
X12223996Y-27396666D02*
X12262091Y-27358571D01*
X12262091Y-27358571D02*
X12338282Y-27320476D01*
X12338282Y-27320476D02*
X12528758Y-27320476D01*
X12528758Y-27320476D02*
X12604948Y-27358571D01*
X12604948Y-27358571D02*
X12643044Y-27396666D01*
X12643044Y-27396666D02*
X12681139Y-27472857D01*
X12681139Y-27472857D02*
X12681139Y-27701428D01*
X12681139Y-27701428D02*
X12643044Y-27777619D01*
X12643044Y-27777619D02*
X12604948Y-27815714D01*
X20472476Y-33852139D02*
X20472476Y-34499758D01*
X20472476Y-34499758D02*
X20510571Y-34575948D01*
X20510571Y-34575948D02*
X20548666Y-34614044D01*
X20548666Y-34614044D02*
X20624857Y-34652139D01*
X20624857Y-34652139D02*
X20777238Y-34652139D01*
X20777238Y-34652139D02*
X20853428Y-34614044D01*
X20853428Y-34614044D02*
X20891523Y-34575948D01*
X20891523Y-34575948D02*
X20929619Y-34499758D01*
X20929619Y-34499758D02*
X20929619Y-33852139D01*
X21653428Y-34118805D02*
X21653428Y-34652139D01*
X21462952Y-33814044D02*
X21272475Y-34385472D01*
X21272475Y-34385472D02*
X21767714Y-34385472D01*
X35718948Y-40265285D02*
X35757044Y-40303381D01*
X35757044Y-40303381D02*
X35795139Y-40417666D01*
X35795139Y-40417666D02*
X35795139Y-40493857D01*
X35795139Y-40493857D02*
X35757044Y-40608143D01*
X35757044Y-40608143D02*
X35680853Y-40684333D01*
X35680853Y-40684333D02*
X35604663Y-40722428D01*
X35604663Y-40722428D02*
X35452282Y-40760524D01*
X35452282Y-40760524D02*
X35337996Y-40760524D01*
X35337996Y-40760524D02*
X35185615Y-40722428D01*
X35185615Y-40722428D02*
X35109424Y-40684333D01*
X35109424Y-40684333D02*
X35033234Y-40608143D01*
X35033234Y-40608143D02*
X34995139Y-40493857D01*
X34995139Y-40493857D02*
X34995139Y-40417666D01*
X34995139Y-40417666D02*
X35033234Y-40303381D01*
X35033234Y-40303381D02*
X35071329Y-40265285D01*
X35071329Y-39960524D02*
X35033234Y-39922428D01*
X35033234Y-39922428D02*
X34995139Y-39846238D01*
X34995139Y-39846238D02*
X34995139Y-39655762D01*
X34995139Y-39655762D02*
X35033234Y-39579571D01*
X35033234Y-39579571D02*
X35071329Y-39541476D01*
X35071329Y-39541476D02*
X35147520Y-39503381D01*
X35147520Y-39503381D02*
X35223710Y-39503381D01*
X35223710Y-39503381D02*
X35337996Y-39541476D01*
X35337996Y-39541476D02*
X35795139Y-39998619D01*
X35795139Y-39998619D02*
X35795139Y-39503381D01*
X34995139Y-39008142D02*
X34995139Y-38931952D01*
X34995139Y-38931952D02*
X35033234Y-38855761D01*
X35033234Y-38855761D02*
X35071329Y-38817666D01*
X35071329Y-38817666D02*
X35147520Y-38779571D01*
X35147520Y-38779571D02*
X35299901Y-38741476D01*
X35299901Y-38741476D02*
X35490377Y-38741476D01*
X35490377Y-38741476D02*
X35642758Y-38779571D01*
X35642758Y-38779571D02*
X35718948Y-38817666D01*
X35718948Y-38817666D02*
X35757044Y-38855761D01*
X35757044Y-38855761D02*
X35795139Y-38931952D01*
X35795139Y-38931952D02*
X35795139Y-39008142D01*
X35795139Y-39008142D02*
X35757044Y-39084333D01*
X35757044Y-39084333D02*
X35718948Y-39122428D01*
X35718948Y-39122428D02*
X35642758Y-39160523D01*
X35642758Y-39160523D02*
X35490377Y-39198619D01*
X35490377Y-39198619D02*
X35299901Y-39198619D01*
X35299901Y-39198619D02*
X35147520Y-39160523D01*
X35147520Y-39160523D02*
X35071329Y-39122428D01*
X35071329Y-39122428D02*
X35033234Y-39084333D01*
X35033234Y-39084333D02*
X34995139Y-39008142D01*
X51416139Y-15500285D02*
X51035186Y-15766952D01*
X51416139Y-15957428D02*
X50616139Y-15957428D01*
X50616139Y-15957428D02*
X50616139Y-15652666D01*
X50616139Y-15652666D02*
X50654234Y-15576476D01*
X50654234Y-15576476D02*
X50692329Y-15538381D01*
X50692329Y-15538381D02*
X50768520Y-15500285D01*
X50768520Y-15500285D02*
X50882805Y-15500285D01*
X50882805Y-15500285D02*
X50958996Y-15538381D01*
X50958996Y-15538381D02*
X50997091Y-15576476D01*
X50997091Y-15576476D02*
X51035186Y-15652666D01*
X51035186Y-15652666D02*
X51035186Y-15957428D01*
X51416139Y-14738381D02*
X51416139Y-15195524D01*
X51416139Y-14966952D02*
X50616139Y-14966952D01*
X50616139Y-14966952D02*
X50730424Y-15043143D01*
X50730424Y-15043143D02*
X50806615Y-15119333D01*
X50806615Y-15119333D02*
X50844710Y-15195524D01*
X50616139Y-14471714D02*
X50616139Y-13976476D01*
X50616139Y-13976476D02*
X50920901Y-14243142D01*
X50920901Y-14243142D02*
X50920901Y-14128857D01*
X50920901Y-14128857D02*
X50958996Y-14052666D01*
X50958996Y-14052666D02*
X50997091Y-14014571D01*
X50997091Y-14014571D02*
X51073282Y-13976476D01*
X51073282Y-13976476D02*
X51263758Y-13976476D01*
X51263758Y-13976476D02*
X51339948Y-14014571D01*
X51339948Y-14014571D02*
X51378044Y-14052666D01*
X51378044Y-14052666D02*
X51416139Y-14128857D01*
X51416139Y-14128857D02*
X51416139Y-14357428D01*
X51416139Y-14357428D02*
X51378044Y-14433619D01*
X51378044Y-14433619D02*
X51339948Y-14471714D01*
X57134667Y-17684948D02*
X57096571Y-17723044D01*
X57096571Y-17723044D02*
X56982286Y-17761139D01*
X56982286Y-17761139D02*
X56906095Y-17761139D01*
X56906095Y-17761139D02*
X56791809Y-17723044D01*
X56791809Y-17723044D02*
X56715619Y-17646853D01*
X56715619Y-17646853D02*
X56677524Y-17570663D01*
X56677524Y-17570663D02*
X56639428Y-17418282D01*
X56639428Y-17418282D02*
X56639428Y-17303996D01*
X56639428Y-17303996D02*
X56677524Y-17151615D01*
X56677524Y-17151615D02*
X56715619Y-17075424D01*
X56715619Y-17075424D02*
X56791809Y-16999234D01*
X56791809Y-16999234D02*
X56906095Y-16961139D01*
X56906095Y-16961139D02*
X56982286Y-16961139D01*
X56982286Y-16961139D02*
X57096571Y-16999234D01*
X57096571Y-16999234D02*
X57134667Y-17037329D01*
X57896571Y-17761139D02*
X57439428Y-17761139D01*
X57668000Y-17761139D02*
X57668000Y-16961139D01*
X57668000Y-16961139D02*
X57591809Y-17075424D01*
X57591809Y-17075424D02*
X57515619Y-17151615D01*
X57515619Y-17151615D02*
X57439428Y-17189710D01*
X52902139Y-13471023D02*
X53549758Y-13471023D01*
X53549758Y-13471023D02*
X53625948Y-13432928D01*
X53625948Y-13432928D02*
X53664044Y-13394833D01*
X53664044Y-13394833D02*
X53702139Y-13318642D01*
X53702139Y-13318642D02*
X53702139Y-13166261D01*
X53702139Y-13166261D02*
X53664044Y-13090071D01*
X53664044Y-13090071D02*
X53625948Y-13051976D01*
X53625948Y-13051976D02*
X53549758Y-13013880D01*
X53549758Y-13013880D02*
X52902139Y-13013880D01*
X52902139Y-12251976D02*
X52902139Y-12632928D01*
X52902139Y-12632928D02*
X53283091Y-12671024D01*
X53283091Y-12671024D02*
X53244996Y-12632928D01*
X53244996Y-12632928D02*
X53206901Y-12556738D01*
X53206901Y-12556738D02*
X53206901Y-12366262D01*
X53206901Y-12366262D02*
X53244996Y-12290071D01*
X53244996Y-12290071D02*
X53283091Y-12251976D01*
X53283091Y-12251976D02*
X53359282Y-12213881D01*
X53359282Y-12213881D02*
X53549758Y-12213881D01*
X53549758Y-12213881D02*
X53625948Y-12251976D01*
X53625948Y-12251976D02*
X53664044Y-12290071D01*
X53664044Y-12290071D02*
X53702139Y-12366262D01*
X53702139Y-12366262D02*
X53702139Y-12556738D01*
X53702139Y-12556738D02*
X53664044Y-12632928D01*
X53664044Y-12632928D02*
X53625948Y-12671024D01*
X46720714Y-5365948D02*
X46682618Y-5404044D01*
X46682618Y-5404044D02*
X46568333Y-5442139D01*
X46568333Y-5442139D02*
X46492142Y-5442139D01*
X46492142Y-5442139D02*
X46377856Y-5404044D01*
X46377856Y-5404044D02*
X46301666Y-5327853D01*
X46301666Y-5327853D02*
X46263571Y-5251663D01*
X46263571Y-5251663D02*
X46225475Y-5099282D01*
X46225475Y-5099282D02*
X46225475Y-4984996D01*
X46225475Y-4984996D02*
X46263571Y-4832615D01*
X46263571Y-4832615D02*
X46301666Y-4756424D01*
X46301666Y-4756424D02*
X46377856Y-4680234D01*
X46377856Y-4680234D02*
X46492142Y-4642139D01*
X46492142Y-4642139D02*
X46568333Y-4642139D01*
X46568333Y-4642139D02*
X46682618Y-4680234D01*
X46682618Y-4680234D02*
X46720714Y-4718329D01*
X47025475Y-4718329D02*
X47063571Y-4680234D01*
X47063571Y-4680234D02*
X47139761Y-4642139D01*
X47139761Y-4642139D02*
X47330237Y-4642139D01*
X47330237Y-4642139D02*
X47406428Y-4680234D01*
X47406428Y-4680234D02*
X47444523Y-4718329D01*
X47444523Y-4718329D02*
X47482618Y-4794520D01*
X47482618Y-4794520D02*
X47482618Y-4870710D01*
X47482618Y-4870710D02*
X47444523Y-4984996D01*
X47444523Y-4984996D02*
X46987380Y-5442139D01*
X46987380Y-5442139D02*
X47482618Y-5442139D01*
X48168333Y-4908805D02*
X48168333Y-5442139D01*
X47977857Y-4604044D02*
X47787380Y-5175472D01*
X47787380Y-5175472D02*
X48282619Y-5175472D01*
X29769948Y-18040285D02*
X29808044Y-18078381D01*
X29808044Y-18078381D02*
X29846139Y-18192666D01*
X29846139Y-18192666D02*
X29846139Y-18268857D01*
X29846139Y-18268857D02*
X29808044Y-18383143D01*
X29808044Y-18383143D02*
X29731853Y-18459333D01*
X29731853Y-18459333D02*
X29655663Y-18497428D01*
X29655663Y-18497428D02*
X29503282Y-18535524D01*
X29503282Y-18535524D02*
X29388996Y-18535524D01*
X29388996Y-18535524D02*
X29236615Y-18497428D01*
X29236615Y-18497428D02*
X29160424Y-18459333D01*
X29160424Y-18459333D02*
X29084234Y-18383143D01*
X29084234Y-18383143D02*
X29046139Y-18268857D01*
X29046139Y-18268857D02*
X29046139Y-18192666D01*
X29046139Y-18192666D02*
X29084234Y-18078381D01*
X29084234Y-18078381D02*
X29122329Y-18040285D01*
X29846139Y-17278381D02*
X29846139Y-17735524D01*
X29846139Y-17506952D02*
X29046139Y-17506952D01*
X29046139Y-17506952D02*
X29160424Y-17583143D01*
X29160424Y-17583143D02*
X29236615Y-17659333D01*
X29236615Y-17659333D02*
X29274710Y-17735524D01*
X29312805Y-16592666D02*
X29846139Y-16592666D01*
X29008044Y-16783142D02*
X29579472Y-16973619D01*
X29579472Y-16973619D02*
X29579472Y-16478380D01*
X29339714Y-30588139D02*
X29073047Y-30207186D01*
X28882571Y-30588139D02*
X28882571Y-29788139D01*
X28882571Y-29788139D02*
X29187333Y-29788139D01*
X29187333Y-29788139D02*
X29263523Y-29826234D01*
X29263523Y-29826234D02*
X29301618Y-29864329D01*
X29301618Y-29864329D02*
X29339714Y-29940520D01*
X29339714Y-29940520D02*
X29339714Y-30054805D01*
X29339714Y-30054805D02*
X29301618Y-30130996D01*
X29301618Y-30130996D02*
X29263523Y-30169091D01*
X29263523Y-30169091D02*
X29187333Y-30207186D01*
X29187333Y-30207186D02*
X28882571Y-30207186D01*
X29606380Y-29788139D02*
X30101618Y-29788139D01*
X30101618Y-29788139D02*
X29834952Y-30092901D01*
X29834952Y-30092901D02*
X29949237Y-30092901D01*
X29949237Y-30092901D02*
X30025428Y-30130996D01*
X30025428Y-30130996D02*
X30063523Y-30169091D01*
X30063523Y-30169091D02*
X30101618Y-30245282D01*
X30101618Y-30245282D02*
X30101618Y-30435758D01*
X30101618Y-30435758D02*
X30063523Y-30511948D01*
X30063523Y-30511948D02*
X30025428Y-30550044D01*
X30025428Y-30550044D02*
X29949237Y-30588139D01*
X29949237Y-30588139D02*
X29720666Y-30588139D01*
X29720666Y-30588139D02*
X29644475Y-30550044D01*
X29644475Y-30550044D02*
X29606380Y-30511948D01*
X30787333Y-29788139D02*
X30634952Y-29788139D01*
X30634952Y-29788139D02*
X30558761Y-29826234D01*
X30558761Y-29826234D02*
X30520666Y-29864329D01*
X30520666Y-29864329D02*
X30444476Y-29978615D01*
X30444476Y-29978615D02*
X30406380Y-30130996D01*
X30406380Y-30130996D02*
X30406380Y-30435758D01*
X30406380Y-30435758D02*
X30444476Y-30511948D01*
X30444476Y-30511948D02*
X30482571Y-30550044D01*
X30482571Y-30550044D02*
X30558761Y-30588139D01*
X30558761Y-30588139D02*
X30711142Y-30588139D01*
X30711142Y-30588139D02*
X30787333Y-30550044D01*
X30787333Y-30550044D02*
X30825428Y-30511948D01*
X30825428Y-30511948D02*
X30863523Y-30435758D01*
X30863523Y-30435758D02*
X30863523Y-30245282D01*
X30863523Y-30245282D02*
X30825428Y-30169091D01*
X30825428Y-30169091D02*
X30787333Y-30130996D01*
X30787333Y-30130996D02*
X30711142Y-30092901D01*
X30711142Y-30092901D02*
X30558761Y-30092901D01*
X30558761Y-30092901D02*
X30482571Y-30130996D01*
X30482571Y-30130996D02*
X30444476Y-30169091D01*
X30444476Y-30169091D02*
X30406380Y-30245282D01*
X57194524Y-41129139D02*
X57194524Y-40329139D01*
X57194524Y-40329139D02*
X57385000Y-40329139D01*
X57385000Y-40329139D02*
X57499286Y-40367234D01*
X57499286Y-40367234D02*
X57575476Y-40443424D01*
X57575476Y-40443424D02*
X57613571Y-40519615D01*
X57613571Y-40519615D02*
X57651667Y-40671996D01*
X57651667Y-40671996D02*
X57651667Y-40786282D01*
X57651667Y-40786282D02*
X57613571Y-40938663D01*
X57613571Y-40938663D02*
X57575476Y-41014853D01*
X57575476Y-41014853D02*
X57499286Y-41091044D01*
X57499286Y-41091044D02*
X57385000Y-41129139D01*
X57385000Y-41129139D02*
X57194524Y-41129139D01*
X57918333Y-40329139D02*
X58413571Y-40329139D01*
X58413571Y-40329139D02*
X58146905Y-40633901D01*
X58146905Y-40633901D02*
X58261190Y-40633901D01*
X58261190Y-40633901D02*
X58337381Y-40671996D01*
X58337381Y-40671996D02*
X58375476Y-40710091D01*
X58375476Y-40710091D02*
X58413571Y-40786282D01*
X58413571Y-40786282D02*
X58413571Y-40976758D01*
X58413571Y-40976758D02*
X58375476Y-41052948D01*
X58375476Y-41052948D02*
X58337381Y-41091044D01*
X58337381Y-41091044D02*
X58261190Y-41129139D01*
X58261190Y-41129139D02*
X58032619Y-41129139D01*
X58032619Y-41129139D02*
X57956428Y-41091044D01*
X57956428Y-41091044D02*
X57918333Y-41052948D01*
X7601139Y-20707285D02*
X7220186Y-20973952D01*
X7601139Y-21164428D02*
X6801139Y-21164428D01*
X6801139Y-21164428D02*
X6801139Y-20859666D01*
X6801139Y-20859666D02*
X6839234Y-20783476D01*
X6839234Y-20783476D02*
X6877329Y-20745381D01*
X6877329Y-20745381D02*
X6953520Y-20707285D01*
X6953520Y-20707285D02*
X7067805Y-20707285D01*
X7067805Y-20707285D02*
X7143996Y-20745381D01*
X7143996Y-20745381D02*
X7182091Y-20783476D01*
X7182091Y-20783476D02*
X7220186Y-20859666D01*
X7220186Y-20859666D02*
X7220186Y-21164428D01*
X6801139Y-20440619D02*
X6801139Y-19945381D01*
X6801139Y-19945381D02*
X7105901Y-20212047D01*
X7105901Y-20212047D02*
X7105901Y-20097762D01*
X7105901Y-20097762D02*
X7143996Y-20021571D01*
X7143996Y-20021571D02*
X7182091Y-19983476D01*
X7182091Y-19983476D02*
X7258282Y-19945381D01*
X7258282Y-19945381D02*
X7448758Y-19945381D01*
X7448758Y-19945381D02*
X7524948Y-19983476D01*
X7524948Y-19983476D02*
X7563044Y-20021571D01*
X7563044Y-20021571D02*
X7601139Y-20097762D01*
X7601139Y-20097762D02*
X7601139Y-20326333D01*
X7601139Y-20326333D02*
X7563044Y-20402524D01*
X7563044Y-20402524D02*
X7524948Y-20440619D01*
X7067805Y-19259666D02*
X7601139Y-19259666D01*
X6763044Y-19450142D02*
X7334472Y-19640619D01*
X7334472Y-19640619D02*
X7334472Y-19145380D01*
X25381139Y-12071285D02*
X25000186Y-12337952D01*
X25381139Y-12528428D02*
X24581139Y-12528428D01*
X24581139Y-12528428D02*
X24581139Y-12223666D01*
X24581139Y-12223666D02*
X24619234Y-12147476D01*
X24619234Y-12147476D02*
X24657329Y-12109381D01*
X24657329Y-12109381D02*
X24733520Y-12071285D01*
X24733520Y-12071285D02*
X24847805Y-12071285D01*
X24847805Y-12071285D02*
X24923996Y-12109381D01*
X24923996Y-12109381D02*
X24962091Y-12147476D01*
X24962091Y-12147476D02*
X25000186Y-12223666D01*
X25000186Y-12223666D02*
X25000186Y-12528428D01*
X24657329Y-11766524D02*
X24619234Y-11728428D01*
X24619234Y-11728428D02*
X24581139Y-11652238D01*
X24581139Y-11652238D02*
X24581139Y-11461762D01*
X24581139Y-11461762D02*
X24619234Y-11385571D01*
X24619234Y-11385571D02*
X24657329Y-11347476D01*
X24657329Y-11347476D02*
X24733520Y-11309381D01*
X24733520Y-11309381D02*
X24809710Y-11309381D01*
X24809710Y-11309381D02*
X24923996Y-11347476D01*
X24923996Y-11347476D02*
X25381139Y-11804619D01*
X25381139Y-11804619D02*
X25381139Y-11309381D01*
X24581139Y-11042714D02*
X24581139Y-10509380D01*
X24581139Y-10509380D02*
X25381139Y-10852238D01*
X54254524Y-36138139D02*
X54254524Y-36785758D01*
X54254524Y-36785758D02*
X54292619Y-36861948D01*
X54292619Y-36861948D02*
X54330714Y-36900044D01*
X54330714Y-36900044D02*
X54406905Y-36938139D01*
X54406905Y-36938139D02*
X54559286Y-36938139D01*
X54559286Y-36938139D02*
X54635476Y-36900044D01*
X54635476Y-36900044D02*
X54673571Y-36861948D01*
X54673571Y-36861948D02*
X54711667Y-36785758D01*
X54711667Y-36785758D02*
X54711667Y-36138139D01*
X55511666Y-36938139D02*
X55054523Y-36938139D01*
X55283095Y-36938139D02*
X55283095Y-36138139D01*
X55283095Y-36138139D02*
X55206904Y-36252424D01*
X55206904Y-36252424D02*
X55130714Y-36328615D01*
X55130714Y-36328615D02*
X55054523Y-36366710D01*
X56273571Y-36938139D02*
X55816428Y-36938139D01*
X56045000Y-36938139D02*
X56045000Y-36138139D01*
X56045000Y-36138139D02*
X55968809Y-36252424D01*
X55968809Y-36252424D02*
X55892619Y-36328615D01*
X55892619Y-36328615D02*
X55816428Y-36366710D01*
X10141139Y-28835285D02*
X9760186Y-29101952D01*
X10141139Y-29292428D02*
X9341139Y-29292428D01*
X9341139Y-29292428D02*
X9341139Y-28987666D01*
X9341139Y-28987666D02*
X9379234Y-28911476D01*
X9379234Y-28911476D02*
X9417329Y-28873381D01*
X9417329Y-28873381D02*
X9493520Y-28835285D01*
X9493520Y-28835285D02*
X9607805Y-28835285D01*
X9607805Y-28835285D02*
X9683996Y-28873381D01*
X9683996Y-28873381D02*
X9722091Y-28911476D01*
X9722091Y-28911476D02*
X9760186Y-28987666D01*
X9760186Y-28987666D02*
X9760186Y-29292428D01*
X9341139Y-28568619D02*
X9341139Y-28073381D01*
X9341139Y-28073381D02*
X9645901Y-28340047D01*
X9645901Y-28340047D02*
X9645901Y-28225762D01*
X9645901Y-28225762D02*
X9683996Y-28149571D01*
X9683996Y-28149571D02*
X9722091Y-28111476D01*
X9722091Y-28111476D02*
X9798282Y-28073381D01*
X9798282Y-28073381D02*
X9988758Y-28073381D01*
X9988758Y-28073381D02*
X10064948Y-28111476D01*
X10064948Y-28111476D02*
X10103044Y-28149571D01*
X10103044Y-28149571D02*
X10141139Y-28225762D01*
X10141139Y-28225762D02*
X10141139Y-28454333D01*
X10141139Y-28454333D02*
X10103044Y-28530524D01*
X10103044Y-28530524D02*
X10064948Y-28568619D01*
X9341139Y-27578142D02*
X9341139Y-27501952D01*
X9341139Y-27501952D02*
X9379234Y-27425761D01*
X9379234Y-27425761D02*
X9417329Y-27387666D01*
X9417329Y-27387666D02*
X9493520Y-27349571D01*
X9493520Y-27349571D02*
X9645901Y-27311476D01*
X9645901Y-27311476D02*
X9836377Y-27311476D01*
X9836377Y-27311476D02*
X9988758Y-27349571D01*
X9988758Y-27349571D02*
X10064948Y-27387666D01*
X10064948Y-27387666D02*
X10103044Y-27425761D01*
X10103044Y-27425761D02*
X10141139Y-27501952D01*
X10141139Y-27501952D02*
X10141139Y-27578142D01*
X10141139Y-27578142D02*
X10103044Y-27654333D01*
X10103044Y-27654333D02*
X10064948Y-27692428D01*
X10064948Y-27692428D02*
X9988758Y-27730523D01*
X9988758Y-27730523D02*
X9836377Y-27768619D01*
X9836377Y-27768619D02*
X9645901Y-27768619D01*
X9645901Y-27768619D02*
X9493520Y-27730523D01*
X9493520Y-27730523D02*
X9417329Y-27692428D01*
X9417329Y-27692428D02*
X9379234Y-27654333D01*
X9379234Y-27654333D02*
X9341139Y-27578142D01*
X30130948Y-3435285D02*
X30169044Y-3473381D01*
X30169044Y-3473381D02*
X30207139Y-3587666D01*
X30207139Y-3587666D02*
X30207139Y-3663857D01*
X30207139Y-3663857D02*
X30169044Y-3778143D01*
X30169044Y-3778143D02*
X30092853Y-3854333D01*
X30092853Y-3854333D02*
X30016663Y-3892428D01*
X30016663Y-3892428D02*
X29864282Y-3930524D01*
X29864282Y-3930524D02*
X29749996Y-3930524D01*
X29749996Y-3930524D02*
X29597615Y-3892428D01*
X29597615Y-3892428D02*
X29521424Y-3854333D01*
X29521424Y-3854333D02*
X29445234Y-3778143D01*
X29445234Y-3778143D02*
X29407139Y-3663857D01*
X29407139Y-3663857D02*
X29407139Y-3587666D01*
X29407139Y-3587666D02*
X29445234Y-3473381D01*
X29445234Y-3473381D02*
X29483329Y-3435285D01*
X29483329Y-3130524D02*
X29445234Y-3092428D01*
X29445234Y-3092428D02*
X29407139Y-3016238D01*
X29407139Y-3016238D02*
X29407139Y-2825762D01*
X29407139Y-2825762D02*
X29445234Y-2749571D01*
X29445234Y-2749571D02*
X29483329Y-2711476D01*
X29483329Y-2711476D02*
X29559520Y-2673381D01*
X29559520Y-2673381D02*
X29635710Y-2673381D01*
X29635710Y-2673381D02*
X29749996Y-2711476D01*
X29749996Y-2711476D02*
X30207139Y-3168619D01*
X30207139Y-3168619D02*
X30207139Y-2673381D01*
X30207139Y-1911476D02*
X30207139Y-2368619D01*
X30207139Y-2140047D02*
X29407139Y-2140047D01*
X29407139Y-2140047D02*
X29521424Y-2216238D01*
X29521424Y-2216238D02*
X29597615Y-2292428D01*
X29597615Y-2292428D02*
X29635710Y-2368619D01*
X12604948Y-3435285D02*
X12643044Y-3473381D01*
X12643044Y-3473381D02*
X12681139Y-3587666D01*
X12681139Y-3587666D02*
X12681139Y-3663857D01*
X12681139Y-3663857D02*
X12643044Y-3778143D01*
X12643044Y-3778143D02*
X12566853Y-3854333D01*
X12566853Y-3854333D02*
X12490663Y-3892428D01*
X12490663Y-3892428D02*
X12338282Y-3930524D01*
X12338282Y-3930524D02*
X12223996Y-3930524D01*
X12223996Y-3930524D02*
X12071615Y-3892428D01*
X12071615Y-3892428D02*
X11995424Y-3854333D01*
X11995424Y-3854333D02*
X11919234Y-3778143D01*
X11919234Y-3778143D02*
X11881139Y-3663857D01*
X11881139Y-3663857D02*
X11881139Y-3587666D01*
X11881139Y-3587666D02*
X11919234Y-3473381D01*
X11919234Y-3473381D02*
X11957329Y-3435285D01*
X11881139Y-3168619D02*
X11881139Y-2673381D01*
X11881139Y-2673381D02*
X12185901Y-2940047D01*
X12185901Y-2940047D02*
X12185901Y-2825762D01*
X12185901Y-2825762D02*
X12223996Y-2749571D01*
X12223996Y-2749571D02*
X12262091Y-2711476D01*
X12262091Y-2711476D02*
X12338282Y-2673381D01*
X12338282Y-2673381D02*
X12528758Y-2673381D01*
X12528758Y-2673381D02*
X12604948Y-2711476D01*
X12604948Y-2711476D02*
X12643044Y-2749571D01*
X12643044Y-2749571D02*
X12681139Y-2825762D01*
X12681139Y-2825762D02*
X12681139Y-3054333D01*
X12681139Y-3054333D02*
X12643044Y-3130524D01*
X12643044Y-3130524D02*
X12604948Y-3168619D01*
X11881139Y-2178142D02*
X11881139Y-2101952D01*
X11881139Y-2101952D02*
X11919234Y-2025761D01*
X11919234Y-2025761D02*
X11957329Y-1987666D01*
X11957329Y-1987666D02*
X12033520Y-1949571D01*
X12033520Y-1949571D02*
X12185901Y-1911476D01*
X12185901Y-1911476D02*
X12376377Y-1911476D01*
X12376377Y-1911476D02*
X12528758Y-1949571D01*
X12528758Y-1949571D02*
X12604948Y-1987666D01*
X12604948Y-1987666D02*
X12643044Y-2025761D01*
X12643044Y-2025761D02*
X12681139Y-2101952D01*
X12681139Y-2101952D02*
X12681139Y-2178142D01*
X12681139Y-2178142D02*
X12643044Y-2254333D01*
X12643044Y-2254333D02*
X12604948Y-2292428D01*
X12604948Y-2292428D02*
X12528758Y-2330523D01*
X12528758Y-2330523D02*
X12376377Y-2368619D01*
X12376377Y-2368619D02*
X12185901Y-2368619D01*
X12185901Y-2368619D02*
X12033520Y-2330523D01*
X12033520Y-2330523D02*
X11957329Y-2292428D01*
X11957329Y-2292428D02*
X11919234Y-2254333D01*
X11919234Y-2254333D02*
X11881139Y-2178142D01*
X19716948Y-3435285D02*
X19755044Y-3473381D01*
X19755044Y-3473381D02*
X19793139Y-3587666D01*
X19793139Y-3587666D02*
X19793139Y-3663857D01*
X19793139Y-3663857D02*
X19755044Y-3778143D01*
X19755044Y-3778143D02*
X19678853Y-3854333D01*
X19678853Y-3854333D02*
X19602663Y-3892428D01*
X19602663Y-3892428D02*
X19450282Y-3930524D01*
X19450282Y-3930524D02*
X19335996Y-3930524D01*
X19335996Y-3930524D02*
X19183615Y-3892428D01*
X19183615Y-3892428D02*
X19107424Y-3854333D01*
X19107424Y-3854333D02*
X19031234Y-3778143D01*
X19031234Y-3778143D02*
X18993139Y-3663857D01*
X18993139Y-3663857D02*
X18993139Y-3587666D01*
X18993139Y-3587666D02*
X19031234Y-3473381D01*
X19031234Y-3473381D02*
X19069329Y-3435285D01*
X18993139Y-3168619D02*
X18993139Y-2673381D01*
X18993139Y-2673381D02*
X19297901Y-2940047D01*
X19297901Y-2940047D02*
X19297901Y-2825762D01*
X19297901Y-2825762D02*
X19335996Y-2749571D01*
X19335996Y-2749571D02*
X19374091Y-2711476D01*
X19374091Y-2711476D02*
X19450282Y-2673381D01*
X19450282Y-2673381D02*
X19640758Y-2673381D01*
X19640758Y-2673381D02*
X19716948Y-2711476D01*
X19716948Y-2711476D02*
X19755044Y-2749571D01*
X19755044Y-2749571D02*
X19793139Y-2825762D01*
X19793139Y-2825762D02*
X19793139Y-3054333D01*
X19793139Y-3054333D02*
X19755044Y-3130524D01*
X19755044Y-3130524D02*
X19716948Y-3168619D01*
X19793139Y-1911476D02*
X19793139Y-2368619D01*
X19793139Y-2140047D02*
X18993139Y-2140047D01*
X18993139Y-2140047D02*
X19107424Y-2216238D01*
X19107424Y-2216238D02*
X19183615Y-2292428D01*
X19183615Y-2292428D02*
X19221710Y-2368619D01*
X10141139Y-3054332D02*
X9760186Y-3320999D01*
X10141139Y-3511475D02*
X9341139Y-3511475D01*
X9341139Y-3511475D02*
X9341139Y-3206713D01*
X9341139Y-3206713D02*
X9379234Y-3130523D01*
X9379234Y-3130523D02*
X9417329Y-3092428D01*
X9417329Y-3092428D02*
X9493520Y-3054332D01*
X9493520Y-3054332D02*
X9607805Y-3054332D01*
X9607805Y-3054332D02*
X9683996Y-3092428D01*
X9683996Y-3092428D02*
X9722091Y-3130523D01*
X9722091Y-3130523D02*
X9760186Y-3206713D01*
X9760186Y-3206713D02*
X9760186Y-3511475D01*
X10141139Y-2673380D02*
X10141139Y-2520999D01*
X10141139Y-2520999D02*
X10103044Y-2444809D01*
X10103044Y-2444809D02*
X10064948Y-2406713D01*
X10064948Y-2406713D02*
X9950663Y-2330523D01*
X9950663Y-2330523D02*
X9798282Y-2292428D01*
X9798282Y-2292428D02*
X9493520Y-2292428D01*
X9493520Y-2292428D02*
X9417329Y-2330523D01*
X9417329Y-2330523D02*
X9379234Y-2368618D01*
X9379234Y-2368618D02*
X9341139Y-2444809D01*
X9341139Y-2444809D02*
X9341139Y-2597190D01*
X9341139Y-2597190D02*
X9379234Y-2673380D01*
X9379234Y-2673380D02*
X9417329Y-2711475D01*
X9417329Y-2711475D02*
X9493520Y-2749571D01*
X9493520Y-2749571D02*
X9683996Y-2749571D01*
X9683996Y-2749571D02*
X9760186Y-2711475D01*
X9760186Y-2711475D02*
X9798282Y-2673380D01*
X9798282Y-2673380D02*
X9836377Y-2597190D01*
X9836377Y-2597190D02*
X9836377Y-2444809D01*
X9836377Y-2444809D02*
X9798282Y-2368618D01*
X9798282Y-2368618D02*
X9760186Y-2330523D01*
X9760186Y-2330523D02*
X9683996Y-2292428D01*
X65856139Y-21348666D02*
X66427567Y-21348666D01*
X66427567Y-21348666D02*
X66541853Y-21386761D01*
X66541853Y-21386761D02*
X66618044Y-21462952D01*
X66618044Y-21462952D02*
X66656139Y-21577237D01*
X66656139Y-21577237D02*
X66656139Y-21653428D01*
X66122805Y-20624856D02*
X66656139Y-20624856D01*
X65818044Y-20815332D02*
X66389472Y-21005809D01*
X66389472Y-21005809D02*
X66389472Y-20510570D01*
X70139Y-18046666D02*
X641567Y-18046666D01*
X641567Y-18046666D02*
X755853Y-18084761D01*
X755853Y-18084761D02*
X832044Y-18160952D01*
X832044Y-18160952D02*
X870139Y-18275237D01*
X870139Y-18275237D02*
X870139Y-18351428D01*
X70139Y-17741904D02*
X70139Y-17246666D01*
X70139Y-17246666D02*
X374901Y-17513332D01*
X374901Y-17513332D02*
X374901Y-17399047D01*
X374901Y-17399047D02*
X412996Y-17322856D01*
X412996Y-17322856D02*
X451091Y-17284761D01*
X451091Y-17284761D02*
X527282Y-17246666D01*
X527282Y-17246666D02*
X717758Y-17246666D01*
X717758Y-17246666D02*
X793948Y-17284761D01*
X793948Y-17284761D02*
X832044Y-17322856D01*
X832044Y-17322856D02*
X870139Y-17399047D01*
X870139Y-17399047D02*
X870139Y-17627618D01*
X870139Y-17627618D02*
X832044Y-17703809D01*
X832044Y-17703809D02*
X793948Y-17741904D01*
X51416139Y-10801332D02*
X51035186Y-11067999D01*
X51416139Y-11258475D02*
X50616139Y-11258475D01*
X50616139Y-11258475D02*
X50616139Y-10953713D01*
X50616139Y-10953713D02*
X50654234Y-10877523D01*
X50654234Y-10877523D02*
X50692329Y-10839428D01*
X50692329Y-10839428D02*
X50768520Y-10801332D01*
X50768520Y-10801332D02*
X50882805Y-10801332D01*
X50882805Y-10801332D02*
X50958996Y-10839428D01*
X50958996Y-10839428D02*
X50997091Y-10877523D01*
X50997091Y-10877523D02*
X51035186Y-10953713D01*
X51035186Y-10953713D02*
X51035186Y-11258475D01*
X50616139Y-10115618D02*
X50616139Y-10267999D01*
X50616139Y-10267999D02*
X50654234Y-10344190D01*
X50654234Y-10344190D02*
X50692329Y-10382285D01*
X50692329Y-10382285D02*
X50806615Y-10458475D01*
X50806615Y-10458475D02*
X50958996Y-10496571D01*
X50958996Y-10496571D02*
X51263758Y-10496571D01*
X51263758Y-10496571D02*
X51339948Y-10458475D01*
X51339948Y-10458475D02*
X51378044Y-10420380D01*
X51378044Y-10420380D02*
X51416139Y-10344190D01*
X51416139Y-10344190D02*
X51416139Y-10191809D01*
X51416139Y-10191809D02*
X51378044Y-10115618D01*
X51378044Y-10115618D02*
X51339948Y-10077523D01*
X51339948Y-10077523D02*
X51263758Y-10039428D01*
X51263758Y-10039428D02*
X51073282Y-10039428D01*
X51073282Y-10039428D02*
X50997091Y-10077523D01*
X50997091Y-10077523D02*
X50958996Y-10115618D01*
X50958996Y-10115618D02*
X50920901Y-10191809D01*
X50920901Y-10191809D02*
X50920901Y-10344190D01*
X50920901Y-10344190D02*
X50958996Y-10420380D01*
X50958996Y-10420380D02*
X50997091Y-10458475D01*
X50997091Y-10458475D02*
X51073282Y-10496571D01*
X48749139Y-10801332D02*
X48368186Y-11067999D01*
X48749139Y-11258475D02*
X47949139Y-11258475D01*
X47949139Y-11258475D02*
X47949139Y-10953713D01*
X47949139Y-10953713D02*
X47987234Y-10877523D01*
X47987234Y-10877523D02*
X48025329Y-10839428D01*
X48025329Y-10839428D02*
X48101520Y-10801332D01*
X48101520Y-10801332D02*
X48215805Y-10801332D01*
X48215805Y-10801332D02*
X48291996Y-10839428D01*
X48291996Y-10839428D02*
X48330091Y-10877523D01*
X48330091Y-10877523D02*
X48368186Y-10953713D01*
X48368186Y-10953713D02*
X48368186Y-11258475D01*
X47949139Y-10077523D02*
X47949139Y-10458475D01*
X47949139Y-10458475D02*
X48330091Y-10496571D01*
X48330091Y-10496571D02*
X48291996Y-10458475D01*
X48291996Y-10458475D02*
X48253901Y-10382285D01*
X48253901Y-10382285D02*
X48253901Y-10191809D01*
X48253901Y-10191809D02*
X48291996Y-10115618D01*
X48291996Y-10115618D02*
X48330091Y-10077523D01*
X48330091Y-10077523D02*
X48406282Y-10039428D01*
X48406282Y-10039428D02*
X48596758Y-10039428D01*
X48596758Y-10039428D02*
X48672948Y-10077523D01*
X48672948Y-10077523D02*
X48711044Y-10115618D01*
X48711044Y-10115618D02*
X48749139Y-10191809D01*
X48749139Y-10191809D02*
X48749139Y-10382285D01*
X48749139Y-10382285D02*
X48711044Y-10458475D01*
X48711044Y-10458475D02*
X48672948Y-10496571D01*
X53116139Y-28942085D02*
X53763758Y-28942085D01*
X53763758Y-28942085D02*
X53839948Y-28903990D01*
X53839948Y-28903990D02*
X53878044Y-28865895D01*
X53878044Y-28865895D02*
X53916139Y-28789704D01*
X53916139Y-28789704D02*
X53916139Y-28637323D01*
X53916139Y-28637323D02*
X53878044Y-28561133D01*
X53878044Y-28561133D02*
X53839948Y-28523038D01*
X53839948Y-28523038D02*
X53763758Y-28484942D01*
X53763758Y-28484942D02*
X53116139Y-28484942D01*
X53916139Y-27684943D02*
X53916139Y-28142086D01*
X53916139Y-27913514D02*
X53116139Y-27913514D01*
X53116139Y-27913514D02*
X53230424Y-27989705D01*
X53230424Y-27989705D02*
X53306615Y-28065895D01*
X53306615Y-28065895D02*
X53344710Y-28142086D01*
X53116139Y-27189704D02*
X53116139Y-27113514D01*
X53116139Y-27113514D02*
X53154234Y-27037323D01*
X53154234Y-27037323D02*
X53192329Y-26999228D01*
X53192329Y-26999228D02*
X53268520Y-26961133D01*
X53268520Y-26961133D02*
X53420901Y-26923038D01*
X53420901Y-26923038D02*
X53611377Y-26923038D01*
X53611377Y-26923038D02*
X53763758Y-26961133D01*
X53763758Y-26961133D02*
X53839948Y-26999228D01*
X53839948Y-26999228D02*
X53878044Y-27037323D01*
X53878044Y-27037323D02*
X53916139Y-27113514D01*
X53916139Y-27113514D02*
X53916139Y-27189704D01*
X53916139Y-27189704D02*
X53878044Y-27265895D01*
X53878044Y-27265895D02*
X53839948Y-27303990D01*
X53839948Y-27303990D02*
X53763758Y-27342085D01*
X53763758Y-27342085D02*
X53611377Y-27380181D01*
X53611377Y-27380181D02*
X53420901Y-27380181D01*
X53420901Y-27380181D02*
X53268520Y-27342085D01*
X53268520Y-27342085D02*
X53192329Y-27303990D01*
X53192329Y-27303990D02*
X53154234Y-27265895D01*
X53154234Y-27265895D02*
X53116139Y-27189704D01*
X54635476Y-22295139D02*
X54635476Y-22942758D01*
X54635476Y-22942758D02*
X54673571Y-23018948D01*
X54673571Y-23018948D02*
X54711666Y-23057044D01*
X54711666Y-23057044D02*
X54787857Y-23095139D01*
X54787857Y-23095139D02*
X54940238Y-23095139D01*
X54940238Y-23095139D02*
X55016428Y-23057044D01*
X55016428Y-23057044D02*
X55054523Y-23018948D01*
X55054523Y-23018948D02*
X55092619Y-22942758D01*
X55092619Y-22942758D02*
X55092619Y-22295139D01*
X55892618Y-23095139D02*
X55435475Y-23095139D01*
X55664047Y-23095139D02*
X55664047Y-22295139D01*
X55664047Y-22295139D02*
X55587856Y-22409424D01*
X55587856Y-22409424D02*
X55511666Y-22485615D01*
X55511666Y-22485615D02*
X55435475Y-22523710D01*
X51416139Y-28463285D02*
X51035186Y-28729952D01*
X51416139Y-28920428D02*
X50616139Y-28920428D01*
X50616139Y-28920428D02*
X50616139Y-28615666D01*
X50616139Y-28615666D02*
X50654234Y-28539476D01*
X50654234Y-28539476D02*
X50692329Y-28501381D01*
X50692329Y-28501381D02*
X50768520Y-28463285D01*
X50768520Y-28463285D02*
X50882805Y-28463285D01*
X50882805Y-28463285D02*
X50958996Y-28501381D01*
X50958996Y-28501381D02*
X50997091Y-28539476D01*
X50997091Y-28539476D02*
X51035186Y-28615666D01*
X51035186Y-28615666D02*
X51035186Y-28920428D01*
X50692329Y-28158524D02*
X50654234Y-28120428D01*
X50654234Y-28120428D02*
X50616139Y-28044238D01*
X50616139Y-28044238D02*
X50616139Y-27853762D01*
X50616139Y-27853762D02*
X50654234Y-27777571D01*
X50654234Y-27777571D02*
X50692329Y-27739476D01*
X50692329Y-27739476D02*
X50768520Y-27701381D01*
X50768520Y-27701381D02*
X50844710Y-27701381D01*
X50844710Y-27701381D02*
X50958996Y-27739476D01*
X50958996Y-27739476D02*
X51416139Y-28196619D01*
X51416139Y-28196619D02*
X51416139Y-27701381D01*
X50616139Y-26977571D02*
X50616139Y-27358523D01*
X50616139Y-27358523D02*
X50997091Y-27396619D01*
X50997091Y-27396619D02*
X50958996Y-27358523D01*
X50958996Y-27358523D02*
X50920901Y-27282333D01*
X50920901Y-27282333D02*
X50920901Y-27091857D01*
X50920901Y-27091857D02*
X50958996Y-27015666D01*
X50958996Y-27015666D02*
X50997091Y-26977571D01*
X50997091Y-26977571D02*
X51073282Y-26939476D01*
X51073282Y-26939476D02*
X51263758Y-26939476D01*
X51263758Y-26939476D02*
X51339948Y-26977571D01*
X51339948Y-26977571D02*
X51378044Y-27015666D01*
X51378044Y-27015666D02*
X51416139Y-27091857D01*
X51416139Y-27091857D02*
X51416139Y-27282333D01*
X51416139Y-27282333D02*
X51378044Y-27358523D01*
X51378044Y-27358523D02*
X51339948Y-27396619D01*
X48672948Y-23755332D02*
X48711044Y-23793428D01*
X48711044Y-23793428D02*
X48749139Y-23907713D01*
X48749139Y-23907713D02*
X48749139Y-23983904D01*
X48749139Y-23983904D02*
X48711044Y-24098190D01*
X48711044Y-24098190D02*
X48634853Y-24174380D01*
X48634853Y-24174380D02*
X48558663Y-24212475D01*
X48558663Y-24212475D02*
X48406282Y-24250571D01*
X48406282Y-24250571D02*
X48291996Y-24250571D01*
X48291996Y-24250571D02*
X48139615Y-24212475D01*
X48139615Y-24212475D02*
X48063424Y-24174380D01*
X48063424Y-24174380D02*
X47987234Y-24098190D01*
X47987234Y-24098190D02*
X47949139Y-23983904D01*
X47949139Y-23983904D02*
X47949139Y-23907713D01*
X47949139Y-23907713D02*
X47987234Y-23793428D01*
X47987234Y-23793428D02*
X48025329Y-23755332D01*
X48215805Y-23069618D02*
X48749139Y-23069618D01*
X47911044Y-23260094D02*
X48482472Y-23450571D01*
X48482472Y-23450571D02*
X48482472Y-22955332D01*
X51339948Y-19437332D02*
X51378044Y-19475428D01*
X51378044Y-19475428D02*
X51416139Y-19589713D01*
X51416139Y-19589713D02*
X51416139Y-19665904D01*
X51416139Y-19665904D02*
X51378044Y-19780190D01*
X51378044Y-19780190D02*
X51301853Y-19856380D01*
X51301853Y-19856380D02*
X51225663Y-19894475D01*
X51225663Y-19894475D02*
X51073282Y-19932571D01*
X51073282Y-19932571D02*
X50958996Y-19932571D01*
X50958996Y-19932571D02*
X50806615Y-19894475D01*
X50806615Y-19894475D02*
X50730424Y-19856380D01*
X50730424Y-19856380D02*
X50654234Y-19780190D01*
X50654234Y-19780190D02*
X50616139Y-19665904D01*
X50616139Y-19665904D02*
X50616139Y-19589713D01*
X50616139Y-19589713D02*
X50654234Y-19475428D01*
X50654234Y-19475428D02*
X50692329Y-19437332D01*
X50616139Y-19170666D02*
X50616139Y-18675428D01*
X50616139Y-18675428D02*
X50920901Y-18942094D01*
X50920901Y-18942094D02*
X50920901Y-18827809D01*
X50920901Y-18827809D02*
X50958996Y-18751618D01*
X50958996Y-18751618D02*
X50997091Y-18713523D01*
X50997091Y-18713523D02*
X51073282Y-18675428D01*
X51073282Y-18675428D02*
X51263758Y-18675428D01*
X51263758Y-18675428D02*
X51339948Y-18713523D01*
X51339948Y-18713523D02*
X51378044Y-18751618D01*
X51378044Y-18751618D02*
X51416139Y-18827809D01*
X51416139Y-18827809D02*
X51416139Y-19056380D01*
X51416139Y-19056380D02*
X51378044Y-19132571D01*
X51378044Y-19132571D02*
X51339948Y-19170666D01*
X48672948Y-19437332D02*
X48711044Y-19475428D01*
X48711044Y-19475428D02*
X48749139Y-19589713D01*
X48749139Y-19589713D02*
X48749139Y-19665904D01*
X48749139Y-19665904D02*
X48711044Y-19780190D01*
X48711044Y-19780190D02*
X48634853Y-19856380D01*
X48634853Y-19856380D02*
X48558663Y-19894475D01*
X48558663Y-19894475D02*
X48406282Y-19932571D01*
X48406282Y-19932571D02*
X48291996Y-19932571D01*
X48291996Y-19932571D02*
X48139615Y-19894475D01*
X48139615Y-19894475D02*
X48063424Y-19856380D01*
X48063424Y-19856380D02*
X47987234Y-19780190D01*
X47987234Y-19780190D02*
X47949139Y-19665904D01*
X47949139Y-19665904D02*
X47949139Y-19589713D01*
X47949139Y-19589713D02*
X47987234Y-19475428D01*
X47987234Y-19475428D02*
X48025329Y-19437332D01*
X48025329Y-19132571D02*
X47987234Y-19094475D01*
X47987234Y-19094475D02*
X47949139Y-19018285D01*
X47949139Y-19018285D02*
X47949139Y-18827809D01*
X47949139Y-18827809D02*
X47987234Y-18751618D01*
X47987234Y-18751618D02*
X48025329Y-18713523D01*
X48025329Y-18713523D02*
X48101520Y-18675428D01*
X48101520Y-18675428D02*
X48177710Y-18675428D01*
X48177710Y-18675428D02*
X48291996Y-18713523D01*
X48291996Y-18713523D02*
X48749139Y-19170666D01*
X48749139Y-19170666D02*
X48749139Y-18675428D01*
X51339948Y-23764332D02*
X51378044Y-23802428D01*
X51378044Y-23802428D02*
X51416139Y-23916713D01*
X51416139Y-23916713D02*
X51416139Y-23992904D01*
X51416139Y-23992904D02*
X51378044Y-24107190D01*
X51378044Y-24107190D02*
X51301853Y-24183380D01*
X51301853Y-24183380D02*
X51225663Y-24221475D01*
X51225663Y-24221475D02*
X51073282Y-24259571D01*
X51073282Y-24259571D02*
X50958996Y-24259571D01*
X50958996Y-24259571D02*
X50806615Y-24221475D01*
X50806615Y-24221475D02*
X50730424Y-24183380D01*
X50730424Y-24183380D02*
X50654234Y-24107190D01*
X50654234Y-24107190D02*
X50616139Y-23992904D01*
X50616139Y-23992904D02*
X50616139Y-23916713D01*
X50616139Y-23916713D02*
X50654234Y-23802428D01*
X50654234Y-23802428D02*
X50692329Y-23764332D01*
X50616139Y-23040523D02*
X50616139Y-23421475D01*
X50616139Y-23421475D02*
X50997091Y-23459571D01*
X50997091Y-23459571D02*
X50958996Y-23421475D01*
X50958996Y-23421475D02*
X50920901Y-23345285D01*
X50920901Y-23345285D02*
X50920901Y-23154809D01*
X50920901Y-23154809D02*
X50958996Y-23078618D01*
X50958996Y-23078618D02*
X50997091Y-23040523D01*
X50997091Y-23040523D02*
X51073282Y-23002428D01*
X51073282Y-23002428D02*
X51263758Y-23002428D01*
X51263758Y-23002428D02*
X51339948Y-23040523D01*
X51339948Y-23040523D02*
X51378044Y-23078618D01*
X51378044Y-23078618D02*
X51416139Y-23154809D01*
X51416139Y-23154809D02*
X51416139Y-23345285D01*
X51416139Y-23345285D02*
X51378044Y-23421475D01*
X51378044Y-23421475D02*
X51339948Y-23459571D01*
X53003524Y-41129139D02*
X53003524Y-40329139D01*
X53003524Y-40329139D02*
X53194000Y-40329139D01*
X53194000Y-40329139D02*
X53308286Y-40367234D01*
X53308286Y-40367234D02*
X53384476Y-40443424D01*
X53384476Y-40443424D02*
X53422571Y-40519615D01*
X53422571Y-40519615D02*
X53460667Y-40671996D01*
X53460667Y-40671996D02*
X53460667Y-40786282D01*
X53460667Y-40786282D02*
X53422571Y-40938663D01*
X53422571Y-40938663D02*
X53384476Y-41014853D01*
X53384476Y-41014853D02*
X53308286Y-41091044D01*
X53308286Y-41091044D02*
X53194000Y-41129139D01*
X53194000Y-41129139D02*
X53003524Y-41129139D01*
X53765428Y-40405329D02*
X53803524Y-40367234D01*
X53803524Y-40367234D02*
X53879714Y-40329139D01*
X53879714Y-40329139D02*
X54070190Y-40329139D01*
X54070190Y-40329139D02*
X54146381Y-40367234D01*
X54146381Y-40367234D02*
X54184476Y-40405329D01*
X54184476Y-40405329D02*
X54222571Y-40481520D01*
X54222571Y-40481520D02*
X54222571Y-40557710D01*
X54222571Y-40557710D02*
X54184476Y-40671996D01*
X54184476Y-40671996D02*
X53727333Y-41129139D01*
X53727333Y-41129139D02*
X54222571Y-41129139D01*
X26695476Y-6928139D02*
X26695476Y-7575758D01*
X26695476Y-7575758D02*
X26733571Y-7651948D01*
X26733571Y-7651948D02*
X26771666Y-7690044D01*
X26771666Y-7690044D02*
X26847857Y-7728139D01*
X26847857Y-7728139D02*
X27000238Y-7728139D01*
X27000238Y-7728139D02*
X27076428Y-7690044D01*
X27076428Y-7690044D02*
X27114523Y-7651948D01*
X27114523Y-7651948D02*
X27152619Y-7575758D01*
X27152619Y-7575758D02*
X27152619Y-6928139D01*
X27457380Y-6928139D02*
X27952618Y-6928139D01*
X27952618Y-6928139D02*
X27685952Y-7232901D01*
X27685952Y-7232901D02*
X27800237Y-7232901D01*
X27800237Y-7232901D02*
X27876428Y-7270996D01*
X27876428Y-7270996D02*
X27914523Y-7309091D01*
X27914523Y-7309091D02*
X27952618Y-7385282D01*
X27952618Y-7385282D02*
X27952618Y-7575758D01*
X27952618Y-7575758D02*
X27914523Y-7651948D01*
X27914523Y-7651948D02*
X27876428Y-7690044D01*
X27876428Y-7690044D02*
X27800237Y-7728139D01*
X27800237Y-7728139D02*
X27571666Y-7728139D01*
X27571666Y-7728139D02*
X27495475Y-7690044D01*
X27495475Y-7690044D02*
X27457380Y-7651948D01*
X12471524Y-6801139D02*
X12471524Y-7448758D01*
X12471524Y-7448758D02*
X12509619Y-7524948D01*
X12509619Y-7524948D02*
X12547714Y-7563044D01*
X12547714Y-7563044D02*
X12623905Y-7601139D01*
X12623905Y-7601139D02*
X12776286Y-7601139D01*
X12776286Y-7601139D02*
X12852476Y-7563044D01*
X12852476Y-7563044D02*
X12890571Y-7524948D01*
X12890571Y-7524948D02*
X12928667Y-7448758D01*
X12928667Y-7448758D02*
X12928667Y-6801139D01*
X13728666Y-7601139D02*
X13271523Y-7601139D01*
X13500095Y-7601139D02*
X13500095Y-6801139D01*
X13500095Y-6801139D02*
X13423904Y-6915424D01*
X13423904Y-6915424D02*
X13347714Y-6991615D01*
X13347714Y-6991615D02*
X13271523Y-7029710D01*
X14033428Y-6877329D02*
X14071524Y-6839234D01*
X14071524Y-6839234D02*
X14147714Y-6801139D01*
X14147714Y-6801139D02*
X14338190Y-6801139D01*
X14338190Y-6801139D02*
X14414381Y-6839234D01*
X14414381Y-6839234D02*
X14452476Y-6877329D01*
X14452476Y-6877329D02*
X14490571Y-6953520D01*
X14490571Y-6953520D02*
X14490571Y-7029710D01*
X14490571Y-7029710D02*
X14452476Y-7143996D01*
X14452476Y-7143996D02*
X13995333Y-7601139D01*
X13995333Y-7601139D02*
X14490571Y-7601139D01*
X14715091Y-2617200D02*
X14715091Y-2883866D01*
X15134139Y-2883866D02*
X14334139Y-2883866D01*
X14334139Y-2883866D02*
X14334139Y-2502914D01*
X14715091Y-1931486D02*
X14753186Y-1817200D01*
X14753186Y-1817200D02*
X14791282Y-1779105D01*
X14791282Y-1779105D02*
X14867472Y-1741009D01*
X14867472Y-1741009D02*
X14981758Y-1741009D01*
X14981758Y-1741009D02*
X15057948Y-1779105D01*
X15057948Y-1779105D02*
X15096044Y-1817200D01*
X15096044Y-1817200D02*
X15134139Y-1893390D01*
X15134139Y-1893390D02*
X15134139Y-2198152D01*
X15134139Y-2198152D02*
X14334139Y-2198152D01*
X14334139Y-2198152D02*
X14334139Y-1931486D01*
X14334139Y-1931486D02*
X14372234Y-1855295D01*
X14372234Y-1855295D02*
X14410329Y-1817200D01*
X14410329Y-1817200D02*
X14486520Y-1779105D01*
X14486520Y-1779105D02*
X14562710Y-1779105D01*
X14562710Y-1779105D02*
X14638901Y-1817200D01*
X14638901Y-1817200D02*
X14676996Y-1855295D01*
X14676996Y-1855295D02*
X14715091Y-1931486D01*
X14715091Y-1931486D02*
X14715091Y-2198152D01*
X14334139Y-1474343D02*
X14334139Y-979105D01*
X14334139Y-979105D02*
X14638901Y-1245771D01*
X14638901Y-1245771D02*
X14638901Y-1131486D01*
X14638901Y-1131486D02*
X14676996Y-1055295D01*
X14676996Y-1055295D02*
X14715091Y-1017200D01*
X14715091Y-1017200D02*
X14791282Y-979105D01*
X14791282Y-979105D02*
X14981758Y-979105D01*
X14981758Y-979105D02*
X15057948Y-1017200D01*
X15057948Y-1017200D02*
X15096044Y-1055295D01*
X15096044Y-1055295D02*
X15134139Y-1131486D01*
X15134139Y-1131486D02*
X15134139Y-1360057D01*
X15134139Y-1360057D02*
X15096044Y-1436248D01*
X15096044Y-1436248D02*
X15057948Y-1474343D01*
X14715091Y-4776200D02*
X14715091Y-5042866D01*
X15134139Y-5042866D02*
X14334139Y-5042866D01*
X14334139Y-5042866D02*
X14334139Y-4661914D01*
X14715091Y-4090486D02*
X14753186Y-3976200D01*
X14753186Y-3976200D02*
X14791282Y-3938105D01*
X14791282Y-3938105D02*
X14867472Y-3900009D01*
X14867472Y-3900009D02*
X14981758Y-3900009D01*
X14981758Y-3900009D02*
X15057948Y-3938105D01*
X15057948Y-3938105D02*
X15096044Y-3976200D01*
X15096044Y-3976200D02*
X15134139Y-4052390D01*
X15134139Y-4052390D02*
X15134139Y-4357152D01*
X15134139Y-4357152D02*
X14334139Y-4357152D01*
X14334139Y-4357152D02*
X14334139Y-4090486D01*
X14334139Y-4090486D02*
X14372234Y-4014295D01*
X14372234Y-4014295D02*
X14410329Y-3976200D01*
X14410329Y-3976200D02*
X14486520Y-3938105D01*
X14486520Y-3938105D02*
X14562710Y-3938105D01*
X14562710Y-3938105D02*
X14638901Y-3976200D01*
X14638901Y-3976200D02*
X14676996Y-4014295D01*
X14676996Y-4014295D02*
X14715091Y-4090486D01*
X14715091Y-4090486D02*
X14715091Y-4357152D01*
X14410329Y-3595248D02*
X14372234Y-3557152D01*
X14372234Y-3557152D02*
X14334139Y-3480962D01*
X14334139Y-3480962D02*
X14334139Y-3290486D01*
X14334139Y-3290486D02*
X14372234Y-3214295D01*
X14372234Y-3214295D02*
X14410329Y-3176200D01*
X14410329Y-3176200D02*
X14486520Y-3138105D01*
X14486520Y-3138105D02*
X14562710Y-3138105D01*
X14562710Y-3138105D02*
X14676996Y-3176200D01*
X14676996Y-3176200D02*
X15134139Y-3633343D01*
X15134139Y-3633343D02*
X15134139Y-3138105D01*
X10141139Y-7753285D02*
X9760186Y-8019952D01*
X10141139Y-8210428D02*
X9341139Y-8210428D01*
X9341139Y-8210428D02*
X9341139Y-7905666D01*
X9341139Y-7905666D02*
X9379234Y-7829476D01*
X9379234Y-7829476D02*
X9417329Y-7791381D01*
X9417329Y-7791381D02*
X9493520Y-7753285D01*
X9493520Y-7753285D02*
X9607805Y-7753285D01*
X9607805Y-7753285D02*
X9683996Y-7791381D01*
X9683996Y-7791381D02*
X9722091Y-7829476D01*
X9722091Y-7829476D02*
X9760186Y-7905666D01*
X9760186Y-7905666D02*
X9760186Y-8210428D01*
X9417329Y-7448524D02*
X9379234Y-7410428D01*
X9379234Y-7410428D02*
X9341139Y-7334238D01*
X9341139Y-7334238D02*
X9341139Y-7143762D01*
X9341139Y-7143762D02*
X9379234Y-7067571D01*
X9379234Y-7067571D02*
X9417329Y-7029476D01*
X9417329Y-7029476D02*
X9493520Y-6991381D01*
X9493520Y-6991381D02*
X9569710Y-6991381D01*
X9569710Y-6991381D02*
X9683996Y-7029476D01*
X9683996Y-7029476D02*
X10141139Y-7486619D01*
X10141139Y-7486619D02*
X10141139Y-6991381D01*
X9341139Y-6496142D02*
X9341139Y-6419952D01*
X9341139Y-6419952D02*
X9379234Y-6343761D01*
X9379234Y-6343761D02*
X9417329Y-6305666D01*
X9417329Y-6305666D02*
X9493520Y-6267571D01*
X9493520Y-6267571D02*
X9645901Y-6229476D01*
X9645901Y-6229476D02*
X9836377Y-6229476D01*
X9836377Y-6229476D02*
X9988758Y-6267571D01*
X9988758Y-6267571D02*
X10064948Y-6305666D01*
X10064948Y-6305666D02*
X10103044Y-6343761D01*
X10103044Y-6343761D02*
X10141139Y-6419952D01*
X10141139Y-6419952D02*
X10141139Y-6496142D01*
X10141139Y-6496142D02*
X10103044Y-6572333D01*
X10103044Y-6572333D02*
X10064948Y-6610428D01*
X10064948Y-6610428D02*
X9988758Y-6648523D01*
X9988758Y-6648523D02*
X9836377Y-6686619D01*
X9836377Y-6686619D02*
X9645901Y-6686619D01*
X9645901Y-6686619D02*
X9493520Y-6648523D01*
X9493520Y-6648523D02*
X9417329Y-6610428D01*
X9417329Y-6610428D02*
X9379234Y-6572333D01*
X9379234Y-6572333D02*
X9341139Y-6496142D01*
X22333139Y-7372332D02*
X21952186Y-7638999D01*
X22333139Y-7829475D02*
X21533139Y-7829475D01*
X21533139Y-7829475D02*
X21533139Y-7524713D01*
X21533139Y-7524713D02*
X21571234Y-7448523D01*
X21571234Y-7448523D02*
X21609329Y-7410428D01*
X21609329Y-7410428D02*
X21685520Y-7372332D01*
X21685520Y-7372332D02*
X21799805Y-7372332D01*
X21799805Y-7372332D02*
X21875996Y-7410428D01*
X21875996Y-7410428D02*
X21914091Y-7448523D01*
X21914091Y-7448523D02*
X21952186Y-7524713D01*
X21952186Y-7524713D02*
X21952186Y-7829475D01*
X21609329Y-7067571D02*
X21571234Y-7029475D01*
X21571234Y-7029475D02*
X21533139Y-6953285D01*
X21533139Y-6953285D02*
X21533139Y-6762809D01*
X21533139Y-6762809D02*
X21571234Y-6686618D01*
X21571234Y-6686618D02*
X21609329Y-6648523D01*
X21609329Y-6648523D02*
X21685520Y-6610428D01*
X21685520Y-6610428D02*
X21761710Y-6610428D01*
X21761710Y-6610428D02*
X21875996Y-6648523D01*
X21875996Y-6648523D02*
X22333139Y-7105666D01*
X22333139Y-7105666D02*
X22333139Y-6610428D01*
X19716948Y-7499332D02*
X19755044Y-7537428D01*
X19755044Y-7537428D02*
X19793139Y-7651713D01*
X19793139Y-7651713D02*
X19793139Y-7727904D01*
X19793139Y-7727904D02*
X19755044Y-7842190D01*
X19755044Y-7842190D02*
X19678853Y-7918380D01*
X19678853Y-7918380D02*
X19602663Y-7956475D01*
X19602663Y-7956475D02*
X19450282Y-7994571D01*
X19450282Y-7994571D02*
X19335996Y-7994571D01*
X19335996Y-7994571D02*
X19183615Y-7956475D01*
X19183615Y-7956475D02*
X19107424Y-7918380D01*
X19107424Y-7918380D02*
X19031234Y-7842190D01*
X19031234Y-7842190D02*
X18993139Y-7727904D01*
X18993139Y-7727904D02*
X18993139Y-7651713D01*
X18993139Y-7651713D02*
X19031234Y-7537428D01*
X19031234Y-7537428D02*
X19069329Y-7499332D01*
X18993139Y-7232666D02*
X18993139Y-6699332D01*
X18993139Y-6699332D02*
X19793139Y-7042190D01*
X22256948Y-3435285D02*
X22295044Y-3473381D01*
X22295044Y-3473381D02*
X22333139Y-3587666D01*
X22333139Y-3587666D02*
X22333139Y-3663857D01*
X22333139Y-3663857D02*
X22295044Y-3778143D01*
X22295044Y-3778143D02*
X22218853Y-3854333D01*
X22218853Y-3854333D02*
X22142663Y-3892428D01*
X22142663Y-3892428D02*
X21990282Y-3930524D01*
X21990282Y-3930524D02*
X21875996Y-3930524D01*
X21875996Y-3930524D02*
X21723615Y-3892428D01*
X21723615Y-3892428D02*
X21647424Y-3854333D01*
X21647424Y-3854333D02*
X21571234Y-3778143D01*
X21571234Y-3778143D02*
X21533139Y-3663857D01*
X21533139Y-3663857D02*
X21533139Y-3587666D01*
X21533139Y-3587666D02*
X21571234Y-3473381D01*
X21571234Y-3473381D02*
X21609329Y-3435285D01*
X22333139Y-2673381D02*
X22333139Y-3130524D01*
X22333139Y-2901952D02*
X21533139Y-2901952D01*
X21533139Y-2901952D02*
X21647424Y-2978143D01*
X21647424Y-2978143D02*
X21723615Y-3054333D01*
X21723615Y-3054333D02*
X21761710Y-3130524D01*
X21533139Y-1949571D02*
X21533139Y-2330523D01*
X21533139Y-2330523D02*
X21914091Y-2368619D01*
X21914091Y-2368619D02*
X21875996Y-2330523D01*
X21875996Y-2330523D02*
X21837901Y-2254333D01*
X21837901Y-2254333D02*
X21837901Y-2063857D01*
X21837901Y-2063857D02*
X21875996Y-1987666D01*
X21875996Y-1987666D02*
X21914091Y-1949571D01*
X21914091Y-1949571D02*
X21990282Y-1911476D01*
X21990282Y-1911476D02*
X22180758Y-1911476D01*
X22180758Y-1911476D02*
X22256948Y-1949571D01*
X22256948Y-1949571D02*
X22295044Y-1987666D01*
X22295044Y-1987666D02*
X22333139Y-2063857D01*
X22333139Y-2063857D02*
X22333139Y-2254333D01*
X22333139Y-2254333D02*
X22295044Y-2330523D01*
X22295044Y-2330523D02*
X22256948Y-2368619D01*
X7601139Y-12053285D02*
X7220186Y-12319952D01*
X7601139Y-12510428D02*
X6801139Y-12510428D01*
X6801139Y-12510428D02*
X6801139Y-12205666D01*
X6801139Y-12205666D02*
X6839234Y-12129476D01*
X6839234Y-12129476D02*
X6877329Y-12091381D01*
X6877329Y-12091381D02*
X6953520Y-12053285D01*
X6953520Y-12053285D02*
X7067805Y-12053285D01*
X7067805Y-12053285D02*
X7143996Y-12091381D01*
X7143996Y-12091381D02*
X7182091Y-12129476D01*
X7182091Y-12129476D02*
X7220186Y-12205666D01*
X7220186Y-12205666D02*
X7220186Y-12510428D01*
X7601139Y-11291381D02*
X7601139Y-11748524D01*
X7601139Y-11519952D02*
X6801139Y-11519952D01*
X6801139Y-11519952D02*
X6915424Y-11596143D01*
X6915424Y-11596143D02*
X6991615Y-11672333D01*
X6991615Y-11672333D02*
X7029710Y-11748524D01*
X6801139Y-10796142D02*
X6801139Y-10719952D01*
X6801139Y-10719952D02*
X6839234Y-10643761D01*
X6839234Y-10643761D02*
X6877329Y-10605666D01*
X6877329Y-10605666D02*
X6953520Y-10567571D01*
X6953520Y-10567571D02*
X7105901Y-10529476D01*
X7105901Y-10529476D02*
X7296377Y-10529476D01*
X7296377Y-10529476D02*
X7448758Y-10567571D01*
X7448758Y-10567571D02*
X7524948Y-10605666D01*
X7524948Y-10605666D02*
X7563044Y-10643761D01*
X7563044Y-10643761D02*
X7601139Y-10719952D01*
X7601139Y-10719952D02*
X7601139Y-10796142D01*
X7601139Y-10796142D02*
X7563044Y-10872333D01*
X7563044Y-10872333D02*
X7524948Y-10910428D01*
X7524948Y-10910428D02*
X7448758Y-10948523D01*
X7448758Y-10948523D02*
X7296377Y-10986619D01*
X7296377Y-10986619D02*
X7105901Y-10986619D01*
X7105901Y-10986619D02*
X6953520Y-10948523D01*
X6953520Y-10948523D02*
X6877329Y-10910428D01*
X6877329Y-10910428D02*
X6839234Y-10872333D01*
X6839234Y-10872333D02*
X6801139Y-10796142D01*
X11163333Y-38678139D02*
X11163333Y-39249567D01*
X11163333Y-39249567D02*
X11125238Y-39363853D01*
X11125238Y-39363853D02*
X11049047Y-39440044D01*
X11049047Y-39440044D02*
X10934762Y-39478139D01*
X10934762Y-39478139D02*
X10858571Y-39478139D01*
X11963333Y-39478139D02*
X11506190Y-39478139D01*
X11734762Y-39478139D02*
X11734762Y-38678139D01*
X11734762Y-38678139D02*
X11658571Y-38792424D01*
X11658571Y-38792424D02*
X11582381Y-38868615D01*
X11582381Y-38868615D02*
X11506190Y-38906710D01*
X49130139Y-35947285D02*
X48749186Y-36213952D01*
X49130139Y-36404428D02*
X48330139Y-36404428D01*
X48330139Y-36404428D02*
X48330139Y-36099666D01*
X48330139Y-36099666D02*
X48368234Y-36023476D01*
X48368234Y-36023476D02*
X48406329Y-35985381D01*
X48406329Y-35985381D02*
X48482520Y-35947285D01*
X48482520Y-35947285D02*
X48596805Y-35947285D01*
X48596805Y-35947285D02*
X48672996Y-35985381D01*
X48672996Y-35985381D02*
X48711091Y-36023476D01*
X48711091Y-36023476D02*
X48749186Y-36099666D01*
X48749186Y-36099666D02*
X48749186Y-36404428D01*
X49130139Y-35185381D02*
X49130139Y-35642524D01*
X49130139Y-35413952D02*
X48330139Y-35413952D01*
X48330139Y-35413952D02*
X48444424Y-35490143D01*
X48444424Y-35490143D02*
X48520615Y-35566333D01*
X48520615Y-35566333D02*
X48558710Y-35642524D01*
X48330139Y-34499666D02*
X48330139Y-34652047D01*
X48330139Y-34652047D02*
X48368234Y-34728238D01*
X48368234Y-34728238D02*
X48406329Y-34766333D01*
X48406329Y-34766333D02*
X48520615Y-34842523D01*
X48520615Y-34842523D02*
X48672996Y-34880619D01*
X48672996Y-34880619D02*
X48977758Y-34880619D01*
X48977758Y-34880619D02*
X49053948Y-34842523D01*
X49053948Y-34842523D02*
X49092044Y-34804428D01*
X49092044Y-34804428D02*
X49130139Y-34728238D01*
X49130139Y-34728238D02*
X49130139Y-34575857D01*
X49130139Y-34575857D02*
X49092044Y-34499666D01*
X49092044Y-34499666D02*
X49053948Y-34461571D01*
X49053948Y-34461571D02*
X48977758Y-34423476D01*
X48977758Y-34423476D02*
X48787282Y-34423476D01*
X48787282Y-34423476D02*
X48711091Y-34461571D01*
X48711091Y-34461571D02*
X48672996Y-34499666D01*
X48672996Y-34499666D02*
X48634901Y-34575857D01*
X48634901Y-34575857D02*
X48634901Y-34728238D01*
X48634901Y-34728238D02*
X48672996Y-34804428D01*
X48672996Y-34804428D02*
X48711091Y-34842523D01*
X48711091Y-34842523D02*
X48787282Y-34880619D01*
X46590139Y-35947285D02*
X46209186Y-36213952D01*
X46590139Y-36404428D02*
X45790139Y-36404428D01*
X45790139Y-36404428D02*
X45790139Y-36099666D01*
X45790139Y-36099666D02*
X45828234Y-36023476D01*
X45828234Y-36023476D02*
X45866329Y-35985381D01*
X45866329Y-35985381D02*
X45942520Y-35947285D01*
X45942520Y-35947285D02*
X46056805Y-35947285D01*
X46056805Y-35947285D02*
X46132996Y-35985381D01*
X46132996Y-35985381D02*
X46171091Y-36023476D01*
X46171091Y-36023476D02*
X46209186Y-36099666D01*
X46209186Y-36099666D02*
X46209186Y-36404428D01*
X46590139Y-35185381D02*
X46590139Y-35642524D01*
X46590139Y-35413952D02*
X45790139Y-35413952D01*
X45790139Y-35413952D02*
X45904424Y-35490143D01*
X45904424Y-35490143D02*
X45980615Y-35566333D01*
X45980615Y-35566333D02*
X46018710Y-35642524D01*
X45790139Y-34918714D02*
X45790139Y-34385380D01*
X45790139Y-34385380D02*
X46590139Y-34728238D01*
X26790714Y-2444948D02*
X26752618Y-2483044D01*
X26752618Y-2483044D02*
X26638333Y-2521139D01*
X26638333Y-2521139D02*
X26562142Y-2521139D01*
X26562142Y-2521139D02*
X26447856Y-2483044D01*
X26447856Y-2483044D02*
X26371666Y-2406853D01*
X26371666Y-2406853D02*
X26333571Y-2330663D01*
X26333571Y-2330663D02*
X26295475Y-2178282D01*
X26295475Y-2178282D02*
X26295475Y-2063996D01*
X26295475Y-2063996D02*
X26333571Y-1911615D01*
X26333571Y-1911615D02*
X26371666Y-1835424D01*
X26371666Y-1835424D02*
X26447856Y-1759234D01*
X26447856Y-1759234D02*
X26562142Y-1721139D01*
X26562142Y-1721139D02*
X26638333Y-1721139D01*
X26638333Y-1721139D02*
X26752618Y-1759234D01*
X26752618Y-1759234D02*
X26790714Y-1797329D01*
X27095475Y-1797329D02*
X27133571Y-1759234D01*
X27133571Y-1759234D02*
X27209761Y-1721139D01*
X27209761Y-1721139D02*
X27400237Y-1721139D01*
X27400237Y-1721139D02*
X27476428Y-1759234D01*
X27476428Y-1759234D02*
X27514523Y-1797329D01*
X27514523Y-1797329D02*
X27552618Y-1873520D01*
X27552618Y-1873520D02*
X27552618Y-1949710D01*
X27552618Y-1949710D02*
X27514523Y-2063996D01*
X27514523Y-2063996D02*
X27057380Y-2521139D01*
X27057380Y-2521139D02*
X27552618Y-2521139D01*
X27819285Y-1721139D02*
X28314523Y-1721139D01*
X28314523Y-1721139D02*
X28047857Y-2025901D01*
X28047857Y-2025901D02*
X28162142Y-2025901D01*
X28162142Y-2025901D02*
X28238333Y-2063996D01*
X28238333Y-2063996D02*
X28276428Y-2102091D01*
X28276428Y-2102091D02*
X28314523Y-2178282D01*
X28314523Y-2178282D02*
X28314523Y-2368758D01*
X28314523Y-2368758D02*
X28276428Y-2444948D01*
X28276428Y-2444948D02*
X28238333Y-2483044D01*
X28238333Y-2483044D02*
X28162142Y-2521139D01*
X28162142Y-2521139D02*
X27933571Y-2521139D01*
X27933571Y-2521139D02*
X27857380Y-2483044D01*
X27857380Y-2483044D02*
X27819285Y-2444948D01*
X36201476Y-1467139D02*
X36658619Y-1467139D01*
X36430047Y-2267139D02*
X36430047Y-1467139D01*
X36925286Y-2267139D02*
X36925286Y-1467139D01*
X36925286Y-1467139D02*
X37230048Y-1467139D01*
X37230048Y-1467139D02*
X37306238Y-1505234D01*
X37306238Y-1505234D02*
X37344333Y-1543329D01*
X37344333Y-1543329D02*
X37382429Y-1619520D01*
X37382429Y-1619520D02*
X37382429Y-1733805D01*
X37382429Y-1733805D02*
X37344333Y-1809996D01*
X37344333Y-1809996D02*
X37306238Y-1848091D01*
X37306238Y-1848091D02*
X37230048Y-1886186D01*
X37230048Y-1886186D02*
X36925286Y-1886186D01*
X38144333Y-2267139D02*
X37687190Y-2267139D01*
X37915762Y-2267139D02*
X37915762Y-1467139D01*
X37915762Y-1467139D02*
X37839571Y-1581424D01*
X37839571Y-1581424D02*
X37763381Y-1657615D01*
X37763381Y-1657615D02*
X37687190Y-1695710D01*
X10141139Y-12062285D02*
X9760186Y-12328952D01*
X10141139Y-12519428D02*
X9341139Y-12519428D01*
X9341139Y-12519428D02*
X9341139Y-12214666D01*
X9341139Y-12214666D02*
X9379234Y-12138476D01*
X9379234Y-12138476D02*
X9417329Y-12100381D01*
X9417329Y-12100381D02*
X9493520Y-12062285D01*
X9493520Y-12062285D02*
X9607805Y-12062285D01*
X9607805Y-12062285D02*
X9683996Y-12100381D01*
X9683996Y-12100381D02*
X9722091Y-12138476D01*
X9722091Y-12138476D02*
X9760186Y-12214666D01*
X9760186Y-12214666D02*
X9760186Y-12519428D01*
X10141139Y-11300381D02*
X10141139Y-11757524D01*
X10141139Y-11528952D02*
X9341139Y-11528952D01*
X9341139Y-11528952D02*
X9455424Y-11605143D01*
X9455424Y-11605143D02*
X9531615Y-11681333D01*
X9531615Y-11681333D02*
X9569710Y-11757524D01*
X10141139Y-10538476D02*
X10141139Y-10995619D01*
X10141139Y-10767047D02*
X9341139Y-10767047D01*
X9341139Y-10767047D02*
X9455424Y-10843238D01*
X9455424Y-10843238D02*
X9531615Y-10919428D01*
X9531615Y-10919428D02*
X9569710Y-10995619D01*
X44685139Y-3435285D02*
X44304186Y-3701952D01*
X44685139Y-3892428D02*
X43885139Y-3892428D01*
X43885139Y-3892428D02*
X43885139Y-3587666D01*
X43885139Y-3587666D02*
X43923234Y-3511476D01*
X43923234Y-3511476D02*
X43961329Y-3473381D01*
X43961329Y-3473381D02*
X44037520Y-3435285D01*
X44037520Y-3435285D02*
X44151805Y-3435285D01*
X44151805Y-3435285D02*
X44227996Y-3473381D01*
X44227996Y-3473381D02*
X44266091Y-3511476D01*
X44266091Y-3511476D02*
X44304186Y-3587666D01*
X44304186Y-3587666D02*
X44304186Y-3892428D01*
X43961329Y-3130524D02*
X43923234Y-3092428D01*
X43923234Y-3092428D02*
X43885139Y-3016238D01*
X43885139Y-3016238D02*
X43885139Y-2825762D01*
X43885139Y-2825762D02*
X43923234Y-2749571D01*
X43923234Y-2749571D02*
X43961329Y-2711476D01*
X43961329Y-2711476D02*
X44037520Y-2673381D01*
X44037520Y-2673381D02*
X44113710Y-2673381D01*
X44113710Y-2673381D02*
X44227996Y-2711476D01*
X44227996Y-2711476D02*
X44685139Y-3168619D01*
X44685139Y-3168619D02*
X44685139Y-2673381D01*
X44685139Y-1911476D02*
X44685139Y-2368619D01*
X44685139Y-2140047D02*
X43885139Y-2140047D01*
X43885139Y-2140047D02*
X43999424Y-2216238D01*
X43999424Y-2216238D02*
X44075615Y-2292428D01*
X44075615Y-2292428D02*
X44113710Y-2368619D01*
X52178139Y-3435285D02*
X51797186Y-3701952D01*
X52178139Y-3892428D02*
X51378139Y-3892428D01*
X51378139Y-3892428D02*
X51378139Y-3587666D01*
X51378139Y-3587666D02*
X51416234Y-3511476D01*
X51416234Y-3511476D02*
X51454329Y-3473381D01*
X51454329Y-3473381D02*
X51530520Y-3435285D01*
X51530520Y-3435285D02*
X51644805Y-3435285D01*
X51644805Y-3435285D02*
X51720996Y-3473381D01*
X51720996Y-3473381D02*
X51759091Y-3511476D01*
X51759091Y-3511476D02*
X51797186Y-3587666D01*
X51797186Y-3587666D02*
X51797186Y-3892428D01*
X51454329Y-3130524D02*
X51416234Y-3092428D01*
X51416234Y-3092428D02*
X51378139Y-3016238D01*
X51378139Y-3016238D02*
X51378139Y-2825762D01*
X51378139Y-2825762D02*
X51416234Y-2749571D01*
X51416234Y-2749571D02*
X51454329Y-2711476D01*
X51454329Y-2711476D02*
X51530520Y-2673381D01*
X51530520Y-2673381D02*
X51606710Y-2673381D01*
X51606710Y-2673381D02*
X51720996Y-2711476D01*
X51720996Y-2711476D02*
X52178139Y-3168619D01*
X52178139Y-3168619D02*
X52178139Y-2673381D01*
X51378139Y-2406714D02*
X51378139Y-1911476D01*
X51378139Y-1911476D02*
X51682901Y-2178142D01*
X51682901Y-2178142D02*
X51682901Y-2063857D01*
X51682901Y-2063857D02*
X51720996Y-1987666D01*
X51720996Y-1987666D02*
X51759091Y-1949571D01*
X51759091Y-1949571D02*
X51835282Y-1911476D01*
X51835282Y-1911476D02*
X52025758Y-1911476D01*
X52025758Y-1911476D02*
X52101948Y-1949571D01*
X52101948Y-1949571D02*
X52140044Y-1987666D01*
X52140044Y-1987666D02*
X52178139Y-2063857D01*
X52178139Y-2063857D02*
X52178139Y-2292428D01*
X52178139Y-2292428D02*
X52140044Y-2368619D01*
X52140044Y-2368619D02*
X52101948Y-2406714D01*
X48732476Y-2610139D02*
X48732476Y-3257758D01*
X48732476Y-3257758D02*
X48770571Y-3333948D01*
X48770571Y-3333948D02*
X48808666Y-3372044D01*
X48808666Y-3372044D02*
X48884857Y-3410139D01*
X48884857Y-3410139D02*
X49037238Y-3410139D01*
X49037238Y-3410139D02*
X49113428Y-3372044D01*
X49113428Y-3372044D02*
X49151523Y-3333948D01*
X49151523Y-3333948D02*
X49189619Y-3257758D01*
X49189619Y-3257758D02*
X49189619Y-2610139D01*
X49608666Y-3410139D02*
X49761047Y-3410139D01*
X49761047Y-3410139D02*
X49837237Y-3372044D01*
X49837237Y-3372044D02*
X49875333Y-3333948D01*
X49875333Y-3333948D02*
X49951523Y-3219663D01*
X49951523Y-3219663D02*
X49989618Y-3067282D01*
X49989618Y-3067282D02*
X49989618Y-2762520D01*
X49989618Y-2762520D02*
X49951523Y-2686329D01*
X49951523Y-2686329D02*
X49913428Y-2648234D01*
X49913428Y-2648234D02*
X49837237Y-2610139D01*
X49837237Y-2610139D02*
X49684856Y-2610139D01*
X49684856Y-2610139D02*
X49608666Y-2648234D01*
X49608666Y-2648234D02*
X49570571Y-2686329D01*
X49570571Y-2686329D02*
X49532475Y-2762520D01*
X49532475Y-2762520D02*
X49532475Y-2952996D01*
X49532475Y-2952996D02*
X49570571Y-3029186D01*
X49570571Y-3029186D02*
X49608666Y-3067282D01*
X49608666Y-3067282D02*
X49684856Y-3105377D01*
X49684856Y-3105377D02*
X49837237Y-3105377D01*
X49837237Y-3105377D02*
X49913428Y-3067282D01*
X49913428Y-3067282D02*
X49951523Y-3029186D01*
X49951523Y-3029186D02*
X49989618Y-2952996D01*
X54718139Y-3435285D02*
X54337186Y-3701952D01*
X54718139Y-3892428D02*
X53918139Y-3892428D01*
X53918139Y-3892428D02*
X53918139Y-3587666D01*
X53918139Y-3587666D02*
X53956234Y-3511476D01*
X53956234Y-3511476D02*
X53994329Y-3473381D01*
X53994329Y-3473381D02*
X54070520Y-3435285D01*
X54070520Y-3435285D02*
X54184805Y-3435285D01*
X54184805Y-3435285D02*
X54260996Y-3473381D01*
X54260996Y-3473381D02*
X54299091Y-3511476D01*
X54299091Y-3511476D02*
X54337186Y-3587666D01*
X54337186Y-3587666D02*
X54337186Y-3892428D01*
X53994329Y-3130524D02*
X53956234Y-3092428D01*
X53956234Y-3092428D02*
X53918139Y-3016238D01*
X53918139Y-3016238D02*
X53918139Y-2825762D01*
X53918139Y-2825762D02*
X53956234Y-2749571D01*
X53956234Y-2749571D02*
X53994329Y-2711476D01*
X53994329Y-2711476D02*
X54070520Y-2673381D01*
X54070520Y-2673381D02*
X54146710Y-2673381D01*
X54146710Y-2673381D02*
X54260996Y-2711476D01*
X54260996Y-2711476D02*
X54718139Y-3168619D01*
X54718139Y-3168619D02*
X54718139Y-2673381D01*
X54184805Y-1987666D02*
X54718139Y-1987666D01*
X53880044Y-2178142D02*
X54451472Y-2368619D01*
X54451472Y-2368619D02*
X54451472Y-1873380D01*
X42145139Y-3435285D02*
X41764186Y-3701952D01*
X42145139Y-3892428D02*
X41345139Y-3892428D01*
X41345139Y-3892428D02*
X41345139Y-3587666D01*
X41345139Y-3587666D02*
X41383234Y-3511476D01*
X41383234Y-3511476D02*
X41421329Y-3473381D01*
X41421329Y-3473381D02*
X41497520Y-3435285D01*
X41497520Y-3435285D02*
X41611805Y-3435285D01*
X41611805Y-3435285D02*
X41687996Y-3473381D01*
X41687996Y-3473381D02*
X41726091Y-3511476D01*
X41726091Y-3511476D02*
X41764186Y-3587666D01*
X41764186Y-3587666D02*
X41764186Y-3892428D01*
X41421329Y-3130524D02*
X41383234Y-3092428D01*
X41383234Y-3092428D02*
X41345139Y-3016238D01*
X41345139Y-3016238D02*
X41345139Y-2825762D01*
X41345139Y-2825762D02*
X41383234Y-2749571D01*
X41383234Y-2749571D02*
X41421329Y-2711476D01*
X41421329Y-2711476D02*
X41497520Y-2673381D01*
X41497520Y-2673381D02*
X41573710Y-2673381D01*
X41573710Y-2673381D02*
X41687996Y-2711476D01*
X41687996Y-2711476D02*
X42145139Y-3168619D01*
X42145139Y-3168619D02*
X42145139Y-2673381D01*
X41421329Y-2368619D02*
X41383234Y-2330523D01*
X41383234Y-2330523D02*
X41345139Y-2254333D01*
X41345139Y-2254333D02*
X41345139Y-2063857D01*
X41345139Y-2063857D02*
X41383234Y-1987666D01*
X41383234Y-1987666D02*
X41421329Y-1949571D01*
X41421329Y-1949571D02*
X41497520Y-1911476D01*
X41497520Y-1911476D02*
X41573710Y-1911476D01*
X41573710Y-1911476D02*
X41687996Y-1949571D01*
X41687996Y-1949571D02*
X42145139Y-2406714D01*
X42145139Y-2406714D02*
X42145139Y-1911476D01*
X57181948Y-3426285D02*
X57220044Y-3464381D01*
X57220044Y-3464381D02*
X57258139Y-3578666D01*
X57258139Y-3578666D02*
X57258139Y-3654857D01*
X57258139Y-3654857D02*
X57220044Y-3769143D01*
X57220044Y-3769143D02*
X57143853Y-3845333D01*
X57143853Y-3845333D02*
X57067663Y-3883428D01*
X57067663Y-3883428D02*
X56915282Y-3921524D01*
X56915282Y-3921524D02*
X56800996Y-3921524D01*
X56800996Y-3921524D02*
X56648615Y-3883428D01*
X56648615Y-3883428D02*
X56572424Y-3845333D01*
X56572424Y-3845333D02*
X56496234Y-3769143D01*
X56496234Y-3769143D02*
X56458139Y-3654857D01*
X56458139Y-3654857D02*
X56458139Y-3578666D01*
X56458139Y-3578666D02*
X56496234Y-3464381D01*
X56496234Y-3464381D02*
X56534329Y-3426285D01*
X56534329Y-3121524D02*
X56496234Y-3083428D01*
X56496234Y-3083428D02*
X56458139Y-3007238D01*
X56458139Y-3007238D02*
X56458139Y-2816762D01*
X56458139Y-2816762D02*
X56496234Y-2740571D01*
X56496234Y-2740571D02*
X56534329Y-2702476D01*
X56534329Y-2702476D02*
X56610520Y-2664381D01*
X56610520Y-2664381D02*
X56686710Y-2664381D01*
X56686710Y-2664381D02*
X56800996Y-2702476D01*
X56800996Y-2702476D02*
X57258139Y-3159619D01*
X57258139Y-3159619D02*
X57258139Y-2664381D01*
X56458139Y-1940571D02*
X56458139Y-2321523D01*
X56458139Y-2321523D02*
X56839091Y-2359619D01*
X56839091Y-2359619D02*
X56800996Y-2321523D01*
X56800996Y-2321523D02*
X56762901Y-2245333D01*
X56762901Y-2245333D02*
X56762901Y-2054857D01*
X56762901Y-2054857D02*
X56800996Y-1978666D01*
X56800996Y-1978666D02*
X56839091Y-1940571D01*
X56839091Y-1940571D02*
X56915282Y-1902476D01*
X56915282Y-1902476D02*
X57105758Y-1902476D01*
X57105758Y-1902476D02*
X57181948Y-1940571D01*
X57181948Y-1940571D02*
X57220044Y-1978666D01*
X57220044Y-1978666D02*
X57258139Y-2054857D01*
X57258139Y-2054857D02*
X57258139Y-2245333D01*
X57258139Y-2245333D02*
X57220044Y-2321523D01*
X57220044Y-2321523D02*
X57181948Y-2359619D01*
X51682666Y-6458139D02*
X51301714Y-6458139D01*
X51301714Y-6458139D02*
X51301714Y-5658139D01*
X52368380Y-6458139D02*
X51911237Y-6458139D01*
X52139809Y-6458139D02*
X52139809Y-5658139D01*
X52139809Y-5658139D02*
X52063618Y-5772424D01*
X52063618Y-5772424D02*
X51987428Y-5848615D01*
X51987428Y-5848615D02*
X51911237Y-5886710D01*
X7601139Y-3054332D02*
X7220186Y-3320999D01*
X7601139Y-3511475D02*
X6801139Y-3511475D01*
X6801139Y-3511475D02*
X6801139Y-3206713D01*
X6801139Y-3206713D02*
X6839234Y-3130523D01*
X6839234Y-3130523D02*
X6877329Y-3092428D01*
X6877329Y-3092428D02*
X6953520Y-3054332D01*
X6953520Y-3054332D02*
X7067805Y-3054332D01*
X7067805Y-3054332D02*
X7143996Y-3092428D01*
X7143996Y-3092428D02*
X7182091Y-3130523D01*
X7182091Y-3130523D02*
X7220186Y-3206713D01*
X7220186Y-3206713D02*
X7220186Y-3511475D01*
X7143996Y-2597190D02*
X7105901Y-2673380D01*
X7105901Y-2673380D02*
X7067805Y-2711475D01*
X7067805Y-2711475D02*
X6991615Y-2749571D01*
X6991615Y-2749571D02*
X6953520Y-2749571D01*
X6953520Y-2749571D02*
X6877329Y-2711475D01*
X6877329Y-2711475D02*
X6839234Y-2673380D01*
X6839234Y-2673380D02*
X6801139Y-2597190D01*
X6801139Y-2597190D02*
X6801139Y-2444809D01*
X6801139Y-2444809D02*
X6839234Y-2368618D01*
X6839234Y-2368618D02*
X6877329Y-2330523D01*
X6877329Y-2330523D02*
X6953520Y-2292428D01*
X6953520Y-2292428D02*
X6991615Y-2292428D01*
X6991615Y-2292428D02*
X7067805Y-2330523D01*
X7067805Y-2330523D02*
X7105901Y-2368618D01*
X7105901Y-2368618D02*
X7143996Y-2444809D01*
X7143996Y-2444809D02*
X7143996Y-2597190D01*
X7143996Y-2597190D02*
X7182091Y-2673380D01*
X7182091Y-2673380D02*
X7220186Y-2711475D01*
X7220186Y-2711475D02*
X7296377Y-2749571D01*
X7296377Y-2749571D02*
X7448758Y-2749571D01*
X7448758Y-2749571D02*
X7524948Y-2711475D01*
X7524948Y-2711475D02*
X7563044Y-2673380D01*
X7563044Y-2673380D02*
X7601139Y-2597190D01*
X7601139Y-2597190D02*
X7601139Y-2444809D01*
X7601139Y-2444809D02*
X7563044Y-2368618D01*
X7563044Y-2368618D02*
X7524948Y-2330523D01*
X7524948Y-2330523D02*
X7448758Y-2292428D01*
X7448758Y-2292428D02*
X7296377Y-2292428D01*
X7296377Y-2292428D02*
X7220186Y-2330523D01*
X7220186Y-2330523D02*
X7182091Y-2368618D01*
X7182091Y-2368618D02*
X7143996Y-2444809D01*
X48672948Y-28454285D02*
X48711044Y-28492381D01*
X48711044Y-28492381D02*
X48749139Y-28606666D01*
X48749139Y-28606666D02*
X48749139Y-28682857D01*
X48749139Y-28682857D02*
X48711044Y-28797143D01*
X48711044Y-28797143D02*
X48634853Y-28873333D01*
X48634853Y-28873333D02*
X48558663Y-28911428D01*
X48558663Y-28911428D02*
X48406282Y-28949524D01*
X48406282Y-28949524D02*
X48291996Y-28949524D01*
X48291996Y-28949524D02*
X48139615Y-28911428D01*
X48139615Y-28911428D02*
X48063424Y-28873333D01*
X48063424Y-28873333D02*
X47987234Y-28797143D01*
X47987234Y-28797143D02*
X47949139Y-28682857D01*
X47949139Y-28682857D02*
X47949139Y-28606666D01*
X47949139Y-28606666D02*
X47987234Y-28492381D01*
X47987234Y-28492381D02*
X48025329Y-28454285D01*
X48025329Y-28149524D02*
X47987234Y-28111428D01*
X47987234Y-28111428D02*
X47949139Y-28035238D01*
X47949139Y-28035238D02*
X47949139Y-27844762D01*
X47949139Y-27844762D02*
X47987234Y-27768571D01*
X47987234Y-27768571D02*
X48025329Y-27730476D01*
X48025329Y-27730476D02*
X48101520Y-27692381D01*
X48101520Y-27692381D02*
X48177710Y-27692381D01*
X48177710Y-27692381D02*
X48291996Y-27730476D01*
X48291996Y-27730476D02*
X48749139Y-28187619D01*
X48749139Y-28187619D02*
X48749139Y-27692381D01*
X47949139Y-27006666D02*
X47949139Y-27159047D01*
X47949139Y-27159047D02*
X47987234Y-27235238D01*
X47987234Y-27235238D02*
X48025329Y-27273333D01*
X48025329Y-27273333D02*
X48139615Y-27349523D01*
X48139615Y-27349523D02*
X48291996Y-27387619D01*
X48291996Y-27387619D02*
X48596758Y-27387619D01*
X48596758Y-27387619D02*
X48672948Y-27349523D01*
X48672948Y-27349523D02*
X48711044Y-27311428D01*
X48711044Y-27311428D02*
X48749139Y-27235238D01*
X48749139Y-27235238D02*
X48749139Y-27082857D01*
X48749139Y-27082857D02*
X48711044Y-27006666D01*
X48711044Y-27006666D02*
X48672948Y-26968571D01*
X48672948Y-26968571D02*
X48596758Y-26930476D01*
X48596758Y-26930476D02*
X48406282Y-26930476D01*
X48406282Y-26930476D02*
X48330091Y-26968571D01*
X48330091Y-26968571D02*
X48291996Y-27006666D01*
X48291996Y-27006666D02*
X48253901Y-27082857D01*
X48253901Y-27082857D02*
X48253901Y-27235238D01*
X48253901Y-27235238D02*
X48291996Y-27311428D01*
X48291996Y-27311428D02*
X48330091Y-27349523D01*
X48330091Y-27349523D02*
X48406282Y-27387619D01*
X48749139Y-15500285D02*
X48368186Y-15766952D01*
X48749139Y-15957428D02*
X47949139Y-15957428D01*
X47949139Y-15957428D02*
X47949139Y-15652666D01*
X47949139Y-15652666D02*
X47987234Y-15576476D01*
X47987234Y-15576476D02*
X48025329Y-15538381D01*
X48025329Y-15538381D02*
X48101520Y-15500285D01*
X48101520Y-15500285D02*
X48215805Y-15500285D01*
X48215805Y-15500285D02*
X48291996Y-15538381D01*
X48291996Y-15538381D02*
X48330091Y-15576476D01*
X48330091Y-15576476D02*
X48368186Y-15652666D01*
X48368186Y-15652666D02*
X48368186Y-15957428D01*
X48749139Y-14738381D02*
X48749139Y-15195524D01*
X48749139Y-14966952D02*
X47949139Y-14966952D01*
X47949139Y-14966952D02*
X48063424Y-15043143D01*
X48063424Y-15043143D02*
X48139615Y-15119333D01*
X48139615Y-15119333D02*
X48177710Y-15195524D01*
X48215805Y-14052666D02*
X48749139Y-14052666D01*
X47911044Y-14243142D02*
X48482472Y-14433619D01*
X48482472Y-14433619D02*
X48482472Y-13938380D01*
D11*
X56121000Y-10644000D02*
X56336000Y-10644000D01*
X56121000Y-12954000D02*
X56121000Y-10644000D01*
X56121000Y-12954000D02*
X56121000Y-15264000D01*
X56121000Y-15264000D02*
X56336000Y-15264000D01*
X58726000Y-10644000D02*
X58726000Y-8954000D01*
X58941000Y-10644000D02*
X58726000Y-10644000D01*
X58941000Y-12954000D02*
X58941000Y-10644000D01*
X58941000Y-12954000D02*
X58941000Y-15264000D01*
X58941000Y-15264000D02*
X58726000Y-15264000D01*
X52951748Y-17959000D02*
X53474252Y-17959000D01*
X52951748Y-19379000D02*
X53474252Y-19379000D01*
X7799000Y-32655252D02*
X7799000Y-32132748D01*
X9219000Y-32655252D02*
X9219000Y-32132748D01*
D12*
X35035001Y-32371998D02*
X35035001Y-9972000D01*
X39234977Y-8672000D02*
X37835000Y-8672000D01*
X39234977Y-9122001D02*
X39234977Y-8672000D01*
X39234977Y-33672069D02*
X37835000Y-33672069D01*
X39234977Y-33672069D02*
X39234977Y-33222103D01*
X40634985Y-7760000D02*
X40723011Y-7671999D01*
X40634985Y-9122001D02*
X39234977Y-9122001D01*
X40634985Y-9122001D02*
X40634985Y-7760000D01*
X40634985Y-33222103D02*
X39234977Y-33222103D01*
X40634985Y-34584112D02*
X40634985Y-33222103D01*
X40723011Y-34672057D02*
X40635066Y-34584112D01*
X41647002Y-7671999D02*
X40723011Y-7671999D01*
X41647002Y-34672057D02*
X40723011Y-34672057D01*
X41647043Y-34672057D02*
X41734988Y-34584112D01*
X41734988Y-7760000D02*
X41647002Y-7671999D01*
X41734988Y-34584112D02*
X41734988Y-7760000D01*
D13*
X32310000Y-30671999D02*
G75*
G02*
X32059998Y-30671999I-125001J0D01*
G01*
X32059998Y-30671999D02*
G75*
G02*
X32310000Y-30671999I125001J0D01*
G01*
D11*
X58173252Y-31675000D02*
X57650748Y-31675000D01*
X58173252Y-33095000D02*
X57650748Y-33095000D01*
X53332748Y-31675000D02*
X53855252Y-31675000D01*
X53332748Y-33095000D02*
X53855252Y-33095000D01*
X10339000Y-19962748D02*
X10339000Y-20485252D01*
X11759000Y-19962748D02*
X11759000Y-20485252D01*
X10339000Y-24004748D02*
X10339000Y-24527252D01*
X11759000Y-24004748D02*
X11759000Y-24527252D01*
X17959000Y-11809252D02*
X17959000Y-11286748D01*
X19379000Y-11809252D02*
X19379000Y-11286748D01*
X17451000Y-6968748D02*
X17451000Y-7491252D01*
X18871000Y-6968748D02*
X18871000Y-7491252D01*
X20499000Y-11818252D02*
X20499000Y-11295748D01*
X21919000Y-11818252D02*
X21919000Y-11295748D01*
X23039000Y-11809252D02*
X23039000Y-11286748D01*
X24459000Y-11809252D02*
X24459000Y-11286748D01*
X10339000Y-16127252D02*
X10339000Y-15604748D01*
X11759000Y-16127252D02*
X11759000Y-15604748D01*
D14*
X16170000Y-17840000D02*
X16570000Y-17440000D01*
X16170000Y-26640000D02*
X16170000Y-17840000D01*
X16570000Y-17440000D02*
X25370000Y-17440000D01*
X16570000Y-27040000D02*
X16170000Y-26640000D01*
X25370000Y-17440000D02*
X25770000Y-17840000D01*
X25370000Y-27040000D02*
X16570000Y-27040000D01*
X25770000Y-17840000D02*
X25770000Y-26640000D01*
X25770000Y-26640000D02*
X25370000Y-27040000D01*
D15*
X17252700Y-18240000D02*
G75*
G02*
X16687300Y-18240000I-282700J0D01*
G01*
X16687300Y-18240000D02*
G75*
G02*
X17252700Y-18240000I282700J0D01*
G01*
D16*
G36*
X16170000Y-18590000D02*
G01*
X15890000Y-18590000D01*
X15890000Y-18390000D01*
X16170000Y-18390000D01*
X16170000Y-18590000D01*
G37*
G36*
X16170000Y-19090000D02*
G01*
X15890000Y-19090000D01*
X15890000Y-18890000D01*
X16170000Y-18890000D01*
X16170000Y-19090000D01*
G37*
G36*
X16170000Y-19590000D02*
G01*
X15890000Y-19590000D01*
X15890000Y-19390000D01*
X16170000Y-19390000D01*
X16170000Y-19590000D01*
G37*
G36*
X16170000Y-20090000D02*
G01*
X15890000Y-20090000D01*
X15890000Y-19890000D01*
X16170000Y-19890000D01*
X16170000Y-20090000D01*
G37*
G36*
X16170000Y-20590000D02*
G01*
X15890000Y-20590000D01*
X15890000Y-20390000D01*
X16170000Y-20390000D01*
X16170000Y-20590000D01*
G37*
G36*
X16170000Y-21090000D02*
G01*
X15890000Y-21090000D01*
X15890000Y-20890000D01*
X16170000Y-20890000D01*
X16170000Y-21090000D01*
G37*
G36*
X16170000Y-21590000D02*
G01*
X15890000Y-21590000D01*
X15890000Y-21390000D01*
X16170000Y-21390000D01*
X16170000Y-21590000D01*
G37*
G36*
X16170000Y-21890000D02*
G01*
X16170000Y-22090000D01*
X15890000Y-22086000D01*
X15890000Y-21886000D01*
X16170000Y-21890000D01*
G37*
G36*
X16170000Y-22590000D02*
G01*
X15890000Y-22590000D01*
X15890000Y-22390000D01*
X16170000Y-22390000D01*
X16170000Y-22590000D01*
G37*
G36*
X16170000Y-23090000D02*
G01*
X15890000Y-23090000D01*
X15890000Y-22890000D01*
X16170000Y-22890000D01*
X16170000Y-23090000D01*
G37*
G36*
X16170000Y-23590000D02*
G01*
X15890000Y-23590000D01*
X15890000Y-23390000D01*
X16170000Y-23390000D01*
X16170000Y-23590000D01*
G37*
G36*
X16170000Y-24090000D02*
G01*
X15890000Y-24090000D01*
X15890000Y-23890000D01*
X16170000Y-23890000D01*
X16170000Y-24090000D01*
G37*
G36*
X16170000Y-24590000D02*
G01*
X15890000Y-24590000D01*
X15890000Y-24390000D01*
X16170000Y-24390000D01*
X16170000Y-24590000D01*
G37*
G36*
X16170000Y-25090000D02*
G01*
X15890000Y-25090000D01*
X15890000Y-24890000D01*
X16170000Y-24890000D01*
X16170000Y-25090000D01*
G37*
G36*
X16170000Y-25590000D02*
G01*
X15890000Y-25590000D01*
X15890000Y-25390000D01*
X16170000Y-25390000D01*
X16170000Y-25590000D01*
G37*
G36*
X16170000Y-25890000D02*
G01*
X16170000Y-26090000D01*
X15890000Y-26086500D01*
X15890000Y-25886500D01*
X16170000Y-25890000D01*
G37*
G36*
X17320000Y-27320000D02*
G01*
X17120000Y-27320000D01*
X17120000Y-27040000D01*
X17320000Y-27040000D01*
X17320000Y-27320000D01*
G37*
G36*
X17320000Y-17440000D02*
G01*
X17120000Y-17440000D01*
X17123500Y-17160000D01*
X17323500Y-17160000D01*
X17320000Y-17440000D01*
G37*
G36*
X17820000Y-17440000D02*
G01*
X17620000Y-17440000D01*
X17620000Y-17160000D01*
X17820000Y-17160000D01*
X17820000Y-17440000D01*
G37*
G36*
X17820000Y-27320000D02*
G01*
X17620000Y-27320000D01*
X17620000Y-27040000D01*
X17820000Y-27040000D01*
X17820000Y-27320000D01*
G37*
G36*
X18320000Y-17440000D02*
G01*
X18120000Y-17440000D01*
X18120000Y-17160000D01*
X18320000Y-17160000D01*
X18320000Y-17440000D01*
G37*
G36*
X18320000Y-27320000D02*
G01*
X18120000Y-27320000D01*
X18120000Y-27040000D01*
X18320000Y-27040000D01*
X18320000Y-27320000D01*
G37*
G36*
X18820000Y-17440000D02*
G01*
X18620000Y-17440000D01*
X18620000Y-17160000D01*
X18820000Y-17160000D01*
X18820000Y-17440000D01*
G37*
G36*
X18820000Y-27320000D02*
G01*
X18620000Y-27320000D01*
X18620000Y-27040000D01*
X18820000Y-27040000D01*
X18820000Y-27320000D01*
G37*
G36*
X19320000Y-17440000D02*
G01*
X19120000Y-17440000D01*
X19120000Y-17160000D01*
X19320000Y-17160000D01*
X19320000Y-17440000D01*
G37*
G36*
X19320000Y-27320000D02*
G01*
X19120000Y-27320000D01*
X19120000Y-27040000D01*
X19320000Y-27040000D01*
X19320000Y-27320000D01*
G37*
G36*
X19820000Y-17440000D02*
G01*
X19620000Y-17440000D01*
X19620000Y-17160000D01*
X19820000Y-17160000D01*
X19820000Y-17440000D01*
G37*
G36*
X19820000Y-27320000D02*
G01*
X19620000Y-27320000D01*
X19620000Y-27040000D01*
X19820000Y-27040000D01*
X19820000Y-27320000D01*
G37*
G36*
X20320000Y-17440000D02*
G01*
X20120000Y-17440000D01*
X20120000Y-17160000D01*
X20320000Y-17160000D01*
X20320000Y-17440000D01*
G37*
G36*
X20320000Y-27320000D02*
G01*
X20120000Y-27320000D01*
X20120000Y-27040000D01*
X20320000Y-27040000D01*
X20320000Y-27320000D01*
G37*
G36*
X20820000Y-17440000D02*
G01*
X20620000Y-17440000D01*
X20620000Y-17160000D01*
X20820000Y-17160000D01*
X20820000Y-17440000D01*
G37*
G36*
X20820380Y-27320000D02*
G01*
X20620380Y-27320000D01*
X20620380Y-27040000D01*
X20820380Y-27040000D01*
X20820380Y-27320000D01*
G37*
G36*
X21320000Y-17440000D02*
G01*
X21120000Y-17440000D01*
X21124000Y-17160000D01*
X21324000Y-17160000D01*
X21320000Y-17440000D01*
G37*
G36*
X21324000Y-27320000D02*
G01*
X21124000Y-27320000D01*
X21124000Y-27040600D01*
X21324000Y-27040600D01*
X21324000Y-27320000D01*
G37*
G36*
X21820000Y-17440000D02*
G01*
X21620000Y-17440000D01*
X21620000Y-17160000D01*
X21820000Y-17160000D01*
X21820000Y-17440000D01*
G37*
G36*
X21821140Y-27320000D02*
G01*
X21621140Y-27320000D01*
X21621140Y-27040000D01*
X21821140Y-27040000D01*
X21821140Y-27320000D01*
G37*
G36*
X22318980Y-27320000D02*
G01*
X22118980Y-27320000D01*
X22118980Y-27040000D01*
X22318980Y-27040000D01*
X22318980Y-27320000D01*
G37*
G36*
X22320000Y-17440000D02*
G01*
X22120000Y-17440000D01*
X22120000Y-17160000D01*
X22320000Y-17160000D01*
X22320000Y-17440000D01*
G37*
G36*
X22819360Y-27320000D02*
G01*
X22619360Y-27320000D01*
X22619360Y-27040000D01*
X22819360Y-27040000D01*
X22819360Y-27320000D01*
G37*
G36*
X22820000Y-17440000D02*
G01*
X22620000Y-17440000D01*
X22620000Y-17160000D01*
X22820000Y-17160000D01*
X22820000Y-17440000D01*
G37*
G36*
X23319740Y-27320000D02*
G01*
X23119740Y-27320000D01*
X23119740Y-27040000D01*
X23319740Y-27040000D01*
X23319740Y-27320000D01*
G37*
G36*
X23320000Y-17440000D02*
G01*
X23120000Y-17440000D01*
X23120000Y-17160000D01*
X23320000Y-17160000D01*
X23320000Y-17440000D01*
G37*
G36*
X23820000Y-17440000D02*
G01*
X23620000Y-17440000D01*
X23620000Y-17160000D01*
X23820000Y-17160000D01*
X23820000Y-17440000D01*
G37*
G36*
X23820120Y-27320000D02*
G01*
X23620120Y-27320000D01*
X23620120Y-27040000D01*
X23820120Y-27040000D01*
X23820120Y-27320000D01*
G37*
G36*
X24320000Y-17440000D02*
G01*
X24120000Y-17440000D01*
X24120000Y-17160000D01*
X24320000Y-17160000D01*
X24320000Y-17440000D01*
G37*
G36*
X24320500Y-27320000D02*
G01*
X24120500Y-27320000D01*
X24120500Y-27040000D01*
X24320500Y-27040000D01*
X24320500Y-27320000D01*
G37*
G36*
X24820000Y-17440000D02*
G01*
X24620000Y-17440000D01*
X24620000Y-17160000D01*
X24820000Y-17160000D01*
X24820000Y-17440000D01*
G37*
G36*
X24820880Y-27320000D02*
G01*
X24620880Y-27320000D01*
X24620880Y-27040000D01*
X24820880Y-27040000D01*
X24820880Y-27320000D01*
G37*
G36*
X26050000Y-18393500D02*
G01*
X26050000Y-18593500D01*
X25770000Y-18590000D01*
X25770000Y-18390000D01*
X26050000Y-18393500D01*
G37*
G36*
X26050000Y-19090000D02*
G01*
X25770000Y-19090000D01*
X25770000Y-18890000D01*
X26050000Y-18890000D01*
X26050000Y-19090000D01*
G37*
G36*
X26050000Y-19590000D02*
G01*
X25770000Y-19590000D01*
X25770000Y-19390000D01*
X26050000Y-19390000D01*
X26050000Y-19590000D01*
G37*
G36*
X26050000Y-20090000D02*
G01*
X25770000Y-20090000D01*
X25770000Y-19890000D01*
X26050000Y-19890000D01*
X26050000Y-20090000D01*
G37*
G36*
X26050000Y-20590000D02*
G01*
X25770000Y-20590000D01*
X25770000Y-20390000D01*
X26050000Y-20390000D01*
X26050000Y-20590000D01*
G37*
G36*
X26050000Y-21090000D02*
G01*
X25770000Y-21090000D01*
X25770000Y-20890000D01*
X26050000Y-20890000D01*
X26050000Y-21090000D01*
G37*
G36*
X26050000Y-21590000D02*
G01*
X25770000Y-21590000D01*
X25770000Y-21390000D01*
X26050000Y-21390000D01*
X26050000Y-21590000D01*
G37*
G36*
X26050000Y-22090000D02*
G01*
X25770000Y-22090000D01*
X25770000Y-21890000D01*
X26050000Y-21890000D01*
X26050000Y-22090000D01*
G37*
G36*
X26050000Y-22394000D02*
G01*
X26050000Y-22594000D01*
X25770000Y-22590000D01*
X25770000Y-22390000D01*
X26050000Y-22394000D01*
G37*
G36*
X26050000Y-23090000D02*
G01*
X25770000Y-23090000D01*
X25770000Y-22890000D01*
X26050000Y-22890000D01*
X26050000Y-23090000D01*
G37*
G36*
X26050000Y-23590000D02*
G01*
X25770000Y-23590000D01*
X25770000Y-23390000D01*
X26050000Y-23390000D01*
X26050000Y-23590000D01*
G37*
G36*
X26050000Y-24090000D02*
G01*
X25770000Y-24090000D01*
X25770000Y-23890000D01*
X26050000Y-23890000D01*
X26050000Y-24090000D01*
G37*
G36*
X26050000Y-24590000D02*
G01*
X25770000Y-24590000D01*
X25770000Y-24390000D01*
X26050000Y-24390000D01*
X26050000Y-24590000D01*
G37*
G36*
X26050000Y-25090000D02*
G01*
X25770000Y-25090000D01*
X25770000Y-24890000D01*
X26050000Y-24890000D01*
X26050000Y-25090000D01*
G37*
G36*
X26050000Y-25590000D02*
G01*
X25770000Y-25590000D01*
X25770000Y-25390000D01*
X26050000Y-25390000D01*
X26050000Y-25590000D01*
G37*
G36*
X26050000Y-26090000D02*
G01*
X25770000Y-26090000D01*
X25770000Y-25890000D01*
X26050000Y-25890000D01*
X26050000Y-26090000D01*
G37*
D11*
X26586000Y-35694252D02*
X26586000Y-35171748D01*
X28006000Y-35694252D02*
X28006000Y-35171748D01*
X24055000Y-40001252D02*
X24055000Y-39478748D01*
X25475000Y-40001252D02*
X25475000Y-39478748D01*
X33453000Y-39478748D02*
X33453000Y-40001252D01*
X34873000Y-39478748D02*
X34873000Y-40001252D01*
X26595000Y-39478748D02*
X26595000Y-40001252D01*
X28015000Y-39478748D02*
X28015000Y-40001252D01*
D17*
X43519000Y-40410000D02*
X43519000Y-39160000D01*
X45859000Y-39160000D02*
X45859000Y-40410000D01*
D18*
X44139000Y-41885000D02*
G75*
G02*
X43939000Y-41885000I-100000J0D01*
G01*
X43939000Y-41885000D02*
G75*
G02*
X44139000Y-41885000I100000J0D01*
G01*
D11*
X41073000Y-39478748D02*
X41073000Y-40001252D01*
X42493000Y-39478748D02*
X42493000Y-40001252D01*
X38511000Y-39478748D02*
X38511000Y-40001252D01*
X39931000Y-39478748D02*
X39931000Y-40001252D01*
X46915000Y-39478748D02*
X46915000Y-40001252D01*
X48335000Y-39478748D02*
X48335000Y-40001252D01*
D17*
X29184000Y-40380000D02*
X29184000Y-38580000D01*
X32284000Y-38580000D02*
X32284000Y-40380000D01*
D18*
X29834000Y-41880000D02*
G75*
G02*
X29634000Y-41880000I-100000J0D01*
G01*
X29634000Y-41880000D02*
G75*
G02*
X29834000Y-41880000I100000J0D01*
G01*
D11*
X19441000Y-40650000D02*
X19441000Y-39190000D01*
X19441000Y-40650000D02*
X20371000Y-40650000D01*
X22601000Y-40650000D02*
X21671000Y-40650000D01*
X22601000Y-40650000D02*
X22601000Y-38490000D01*
X16562000Y-39498748D02*
X16562000Y-40021252D01*
X17982000Y-39498748D02*
X17982000Y-40021252D01*
X29592748Y-25706000D02*
X30115252Y-25706000D01*
X29592748Y-27126000D02*
X30115252Y-27126000D01*
X7799000Y-24518252D02*
X7799000Y-23995748D01*
X9219000Y-24518252D02*
X9219000Y-23995748D01*
X14516000Y-31385000D02*
X10666000Y-31385000D01*
X14516000Y-33385000D02*
X10666000Y-33385000D01*
X14516000Y-33385000D02*
X14516000Y-31385000D01*
X15419000Y-11827252D02*
X15419000Y-11304748D01*
X16839000Y-11827252D02*
X16839000Y-11304748D01*
X12879000Y-16127252D02*
X12879000Y-15604748D01*
X14299000Y-16127252D02*
X14299000Y-15604748D01*
D14*
X7509000Y-14016000D02*
X9509000Y-14016000D01*
X7509000Y-17716000D02*
X7509000Y-14016000D01*
X9509000Y-14016000D02*
X9509000Y-17716000D01*
X9509000Y-17716000D02*
X7509000Y-17716000D01*
D11*
X7799000Y-28059748D02*
X7799000Y-28582252D01*
X9219000Y-28059748D02*
X9219000Y-28582252D01*
X49455000Y-39480748D02*
X49455000Y-40003252D01*
X50875000Y-39480748D02*
X50875000Y-40003252D01*
X6542000Y-37465000D02*
G75*
G02*
X5142000Y-37465000I-700000J0D01*
G01*
X5142000Y-37465000D02*
G75*
G02*
X6542000Y-37465000I700000J0D01*
G01*
X59099000Y-5347000D02*
X55249000Y-5347000D01*
X59099000Y-7347000D02*
X55249000Y-7347000D01*
X59099000Y-7347000D02*
X59099000Y-5347000D01*
X34609000Y-3937000D02*
G75*
G02*
X33209000Y-3937000I-700000J0D01*
G01*
X33209000Y-3937000D02*
G75*
G02*
X34609000Y-3937000I700000J0D01*
G01*
X34609000Y-1905000D02*
G75*
G02*
X33209000Y-1905000I-700000J0D01*
G01*
X33209000Y-1905000D02*
G75*
G02*
X34609000Y-1905000I700000J0D01*
G01*
X12879000Y-28591252D02*
X12879000Y-28068748D01*
X14299000Y-28591252D02*
X14299000Y-28068748D01*
D17*
X23595000Y-31802000D02*
X18315000Y-31802000D01*
X23595000Y-37032000D02*
X18315000Y-37032000D01*
D18*
X26270000Y-36932000D02*
G75*
G02*
X26070000Y-36932000I-100000J0D01*
G01*
X26070000Y-36932000D02*
G75*
G02*
X26270000Y-36932000I100000J0D01*
G01*
D11*
X35993000Y-39478748D02*
X35993000Y-40001252D01*
X37413000Y-39478748D02*
X37413000Y-40001252D01*
X48947000Y-15247252D02*
X48947000Y-14724748D01*
X50367000Y-15247252D02*
X50367000Y-14724748D01*
X57015748Y-17959000D02*
X57538252Y-17959000D01*
X57015748Y-19379000D02*
X57538252Y-19379000D01*
X52057000Y-10644000D02*
X52272000Y-10644000D01*
X52057000Y-12954000D02*
X52057000Y-10644000D01*
X52057000Y-12954000D02*
X52057000Y-15264000D01*
X52057000Y-15264000D02*
X52272000Y-15264000D01*
X54662000Y-10644000D02*
X54662000Y-8954000D01*
X54877000Y-10644000D02*
X54662000Y-10644000D01*
X54877000Y-12954000D02*
X54877000Y-10644000D01*
X54877000Y-12954000D02*
X54877000Y-15264000D01*
X54877000Y-15264000D02*
X54662000Y-15264000D01*
X47496252Y-5640000D02*
X46973748Y-5640000D01*
X47496252Y-7060000D02*
X46973748Y-7060000D01*
X30044000Y-17264748D02*
X30044000Y-17787252D01*
X31464000Y-17264748D02*
X31464000Y-17787252D01*
X30115252Y-28246000D02*
X29592748Y-28246000D01*
X30115252Y-29666000D02*
X29592748Y-29666000D01*
X56052000Y-39680000D02*
X56052000Y-41600000D01*
X56052000Y-41600000D02*
X58912000Y-41600000D01*
X58912000Y-39680000D02*
X56052000Y-39680000D01*
X7799000Y-20485252D02*
X7799000Y-19962748D01*
X9219000Y-20485252D02*
X9219000Y-19962748D01*
X25579000Y-11818252D02*
X25579000Y-11295748D01*
X26999000Y-11818252D02*
X26999000Y-11295748D01*
X55372000Y-34016000D02*
X51922000Y-34016000D01*
X55372000Y-34016000D02*
X57322000Y-34016000D01*
X55372000Y-39136000D02*
X53422000Y-39136000D01*
X55372000Y-39136000D02*
X57322000Y-39136000D01*
X10339000Y-28582252D02*
X10339000Y-28059748D01*
X11759000Y-28582252D02*
X11759000Y-28059748D01*
X30532000Y-3182252D02*
X30532000Y-2659748D01*
X31952000Y-3182252D02*
X31952000Y-2659748D01*
X41086000Y-3937000D02*
G75*
G02*
X39686000Y-3937000I-700000J0D01*
G01*
X39686000Y-3937000D02*
G75*
G02*
X41086000Y-3937000I700000J0D01*
G01*
X12879000Y-3182252D02*
X12879000Y-2659748D01*
X14299000Y-3182252D02*
X14299000Y-2659748D01*
X19991000Y-3182252D02*
X19991000Y-2659748D01*
X21411000Y-3182252D02*
X21411000Y-2659748D01*
X10339000Y-3182252D02*
X10339000Y-2659748D01*
X11759000Y-3182252D02*
X11759000Y-2659748D01*
X61702000Y-5226000D02*
X61702000Y-7576000D01*
X61702000Y-7576000D02*
X60312000Y-7576000D01*
X61702000Y-37446000D02*
X61702000Y-35096000D01*
X64352000Y-5226000D02*
X61702000Y-5226000D01*
X64352000Y-37446000D02*
X61702000Y-37446000D01*
X68772000Y-5336000D02*
X68772000Y-37336000D01*
X14162000Y-12827000D02*
G75*
G02*
X12762000Y-12827000I-700000J0D01*
G01*
X12762000Y-12827000D02*
G75*
G02*
X14162000Y-12827000I700000J0D01*
G01*
X-2605000Y-38400000D02*
X-2605000Y-4400000D01*
X1815000Y-4290000D02*
X4465000Y-4290000D01*
X1815000Y-38510000D02*
X4465000Y-38510000D01*
X4465000Y-4290000D02*
X4465000Y-6640000D01*
X4465000Y-36160000D02*
X5855000Y-36160000D01*
X4465000Y-38510000D02*
X4465000Y-36160000D01*
X48947000Y-10929252D02*
X48947000Y-10406748D01*
X50367000Y-10929252D02*
X50367000Y-10406748D01*
X46407000Y-10929252D02*
X46407000Y-10406748D01*
X47827000Y-10929252D02*
X47827000Y-10406748D01*
X53808000Y-21763000D02*
X53808000Y-21163000D01*
X54508000Y-20463000D02*
X55908000Y-20463000D01*
X55908000Y-22463000D02*
X54508000Y-22463000D01*
X56608000Y-21163000D02*
X56608000Y-21763000D01*
X53808000Y-21163000D02*
G75*
G02*
X54508000Y-20463000I700000J0D01*
G01*
X54508000Y-22463000D02*
G75*
G02*
X53808000Y-21763000I0J700000D01*
G01*
X55908000Y-20463000D02*
G75*
G02*
X56608000Y-21163000I1J-699999D01*
G01*
X56608000Y-21763000D02*
G75*
G02*
X55908000Y-22463000I-699999J-1D01*
G01*
D14*
X52386900Y-28274000D02*
X52386900Y-27474000D01*
X52636900Y-26224000D02*
X54236900Y-26224000D01*
X52636900Y-29524000D02*
X54236900Y-29524000D01*
D11*
X53808000Y-24303000D02*
X53808000Y-23703000D01*
X54508000Y-23003000D02*
X55908000Y-23003000D01*
X55908000Y-25003000D02*
X54508000Y-25003000D01*
X56608000Y-23703000D02*
X56608000Y-24303000D01*
X53808000Y-23703000D02*
G75*
G02*
X54508000Y-23003000I700000J0D01*
G01*
X54508000Y-25003000D02*
G75*
G02*
X53808000Y-24303000I0J700000D01*
G01*
X55908000Y-23003000D02*
G75*
G02*
X56608000Y-23703000I1J-699999D01*
G01*
X56608000Y-24303000D02*
G75*
G02*
X55908000Y-25003000I-699999J-1D01*
G01*
D17*
X53509000Y-20233000D02*
X57039000Y-20233000D01*
X57039000Y-25233000D02*
X53509000Y-25233000D01*
D18*
X51184000Y-20458000D02*
G75*
G02*
X50984000Y-20458000I-100000J0D01*
G01*
X50984000Y-20458000D02*
G75*
G02*
X51184000Y-20458000I100000J0D01*
G01*
D11*
X48947000Y-28210252D02*
X48947000Y-27687748D01*
X50367000Y-28210252D02*
X50367000Y-27687748D01*
X46407000Y-23369748D02*
X46407000Y-23892252D01*
X47827000Y-23369748D02*
X47827000Y-23892252D01*
X48947000Y-19033748D02*
X48947000Y-19556252D01*
X50367000Y-19033748D02*
X50367000Y-19556252D01*
X46407000Y-19051748D02*
X46407000Y-19574252D01*
X47827000Y-19051748D02*
X47827000Y-19574252D01*
X48947000Y-23369748D02*
X48947000Y-23892252D01*
X50367000Y-23369748D02*
X50367000Y-23892252D01*
X52594000Y-41600000D02*
X55454000Y-41600000D01*
X55454000Y-39680000D02*
X52594000Y-39680000D01*
X55454000Y-41600000D02*
X55454000Y-39680000D01*
D19*
X24705000Y-5639000D02*
X24705000Y-5939000D01*
X24705000Y-5639000D02*
X24905000Y-5639000D01*
X24705000Y-8839000D02*
X24705000Y-8539000D01*
X24705000Y-8839000D02*
X24905000Y-8839000D01*
X29705000Y-5839000D02*
X29705000Y-5639000D01*
X29905000Y-6039000D02*
X29705000Y-5839000D01*
X29905000Y-6339000D02*
X29905000Y-6039000D01*
X29905000Y-8839000D02*
X29705000Y-8839000D01*
X29905000Y-8839000D02*
X29905000Y-8539000D01*
D11*
X13462000Y-5629000D02*
X11962000Y-5629000D01*
X13462000Y-5629000D02*
X14962000Y-5629000D01*
X13462000Y-8849000D02*
X11962000Y-8849000D01*
X13462000Y-8849000D02*
X14962000Y-8849000D01*
X11249500Y-5804000D02*
X11009500Y-5474000D01*
X11489500Y-5474000D01*
X11249500Y-5804000D01*
G36*
X11249500Y-5804000D02*
G01*
X11009500Y-5474000D01*
X11489500Y-5474000D01*
X11249500Y-5804000D01*
G37*
D14*
X15295000Y-905000D02*
X18995000Y-905000D01*
X15295000Y-2905000D02*
X15295000Y-905000D01*
X18995000Y-905000D02*
X18995000Y-2905000D01*
X18995000Y-2905000D02*
X15295000Y-2905000D01*
X15295000Y-3064000D02*
X18995000Y-3064000D01*
X15295000Y-5064000D02*
X15295000Y-3064000D01*
X18995000Y-3064000D02*
X18995000Y-5064000D01*
X18995000Y-5064000D02*
X15295000Y-5064000D01*
D11*
X7799000Y-7500252D02*
X7799000Y-6977748D01*
X9219000Y-7500252D02*
X9219000Y-6977748D01*
X22531000Y-7491252D02*
X22531000Y-6968748D01*
X23951000Y-7491252D02*
X23951000Y-6968748D01*
X19991000Y-7500252D02*
X19991000Y-6977748D01*
X21411000Y-7500252D02*
X21411000Y-6977748D01*
X22531000Y-3182252D02*
X22531000Y-2659748D01*
X23951000Y-3182252D02*
X23951000Y-2659748D01*
X7799000Y-11809252D02*
X7799000Y-11286748D01*
X9219000Y-11809252D02*
X9219000Y-11286748D01*
X7447000Y-35314000D02*
X9797000Y-35314000D01*
X7447000Y-37964000D02*
X7447000Y-35314000D01*
X13317000Y-35314000D02*
X13317000Y-33924000D01*
X15557000Y-42384000D02*
X7557000Y-42384000D01*
X15667000Y-35314000D02*
X13317000Y-35314000D01*
X15667000Y-37964000D02*
X15667000Y-35314000D01*
X49455000Y-35171748D02*
X49455000Y-35694252D01*
X50875000Y-35171748D02*
X50875000Y-35694252D01*
X46915000Y-35171748D02*
X46915000Y-35694252D01*
X48335000Y-35171748D02*
X48335000Y-35694252D01*
X24995000Y-2748000D02*
X24995000Y-4618000D01*
X24995000Y-4618000D02*
X28905000Y-4618000D01*
X28905000Y-2748000D02*
X24995000Y-2748000D01*
X41086000Y-1905000D02*
G75*
G02*
X39686000Y-1905000I-700000J0D01*
G01*
X39686000Y-1905000D02*
G75*
G02*
X41086000Y-1905000I700000J0D01*
G01*
X10339000Y-11809252D02*
X10339000Y-11286748D01*
X11759000Y-11809252D02*
X11759000Y-11286748D01*
X44874000Y-2659748D02*
X44874000Y-3182252D01*
X46294000Y-2659748D02*
X46294000Y-3182252D01*
X52376000Y-2650748D02*
X52376000Y-3173252D01*
X53796000Y-2650748D02*
X53796000Y-3173252D01*
X48462000Y-4391000D02*
X50892000Y-4391000D01*
X50222000Y-1321000D02*
X48462000Y-1321000D01*
X54907000Y-3182252D02*
X54907000Y-2659748D01*
X56327000Y-3182252D02*
X56327000Y-2659748D01*
X42343000Y-3173252D02*
X42343000Y-2650748D01*
X43763000Y-3173252D02*
X43763000Y-2650748D01*
X57456000Y-3173252D02*
X57456000Y-2650748D01*
X58876000Y-3173252D02*
X58876000Y-2650748D01*
X50865000Y-32258000D02*
G75*
G02*
X49465000Y-32258000I-700000J0D01*
G01*
X49465000Y-32258000D02*
G75*
G02*
X50865000Y-32258000I700000J0D01*
G01*
D17*
X50211000Y-4903000D02*
X53411000Y-4903000D01*
X50211000Y-7543000D02*
X53411000Y-7543000D01*
D11*
X14162000Y-10541000D02*
G75*
G02*
X12762000Y-10541000I-700000J0D01*
G01*
X12762000Y-10541000D02*
G75*
G02*
X14162000Y-10541000I700000J0D01*
G01*
X7799000Y-2659748D02*
X7799000Y-3182252D01*
X9219000Y-2659748D02*
X9219000Y-3182252D01*
X46407000Y-28192252D02*
X46407000Y-27669748D01*
X47827000Y-28192252D02*
X47827000Y-27669748D01*
X46407000Y-15247252D02*
X46407000Y-14724748D01*
X47827000Y-15247252D02*
X47827000Y-14724748D01*
%LPC*%
D20*
X58166000Y-9766500D03*
X56896000Y-9766500D03*
X56896000Y-16141500D03*
X58166000Y-16141500D03*
D21*
X52188000Y-18669000D03*
X54238000Y-18669000D03*
D22*
X8509000Y-33419000D03*
X8509000Y-31369000D03*
D23*
X33684999Y-30671999D03*
X33684999Y-29671998D03*
X33684999Y-28671998D03*
X33684999Y-27672000D03*
X33684999Y-26671999D03*
X33684999Y-25671999D03*
X33684999Y-24671998D03*
X33684999Y-23671998D03*
X33684999Y-22672000D03*
X33684999Y-21671999D03*
X33684999Y-20671998D03*
X33684999Y-19671998D03*
X33684999Y-18672000D03*
X33684999Y-17671999D03*
X33684999Y-16671999D03*
X33684999Y-15671998D03*
X33684999Y-14671998D03*
X33684999Y-13672000D03*
X33684999Y-12671999D03*
X33684999Y-11671999D03*
D24*
X36035000Y-33821998D03*
X36035000Y-8522000D03*
D25*
X58937000Y-32385000D03*
X56887000Y-32385000D03*
D21*
X52569000Y-32385000D03*
X54619000Y-32385000D03*
D26*
X11049000Y-19199000D03*
X11049000Y-21249000D03*
X11049000Y-23241000D03*
X11049000Y-25291000D03*
D22*
X18669000Y-12573000D03*
X18669000Y-10523000D03*
D26*
X18161000Y-6205000D03*
X18161000Y-8255000D03*
D22*
X21209000Y-12582000D03*
X21209000Y-10532000D03*
X23749000Y-12573000D03*
X23749000Y-10523000D03*
X11049000Y-16891000D03*
X11049000Y-14841000D03*
D27*
X15270000Y-18490000D03*
X15270000Y-18990000D03*
X15270000Y-19490000D03*
X15270000Y-19990000D03*
X15270000Y-20490000D03*
X15270000Y-20990000D03*
X15270000Y-21490000D03*
X15270000Y-21990000D03*
X15270000Y-22490000D03*
X15270000Y-22990000D03*
X15270000Y-23490000D03*
X15270000Y-23990000D03*
X15270000Y-24490000D03*
X15270000Y-24990000D03*
X15270000Y-25490000D03*
X15270000Y-25990000D03*
D28*
X17220000Y-27940000D03*
X17720000Y-27940000D03*
X18220000Y-27940000D03*
X18720000Y-27940000D03*
X19220000Y-27940000D03*
X19720000Y-27940000D03*
X20220000Y-27940000D03*
X20720000Y-27940000D03*
X21220000Y-27940000D03*
X21720000Y-27940000D03*
X22220000Y-27940000D03*
X22720000Y-27940000D03*
X23220000Y-27940000D03*
X23720000Y-27940000D03*
X24220000Y-27940000D03*
X24720000Y-27940000D03*
D27*
X26670000Y-25990000D03*
X26670000Y-25490000D03*
X26670000Y-24990000D03*
X26670000Y-24490000D03*
X26670000Y-23990000D03*
X26670000Y-23490000D03*
X26670000Y-22990000D03*
X26670000Y-22490000D03*
X26670000Y-21990000D03*
X26670000Y-21490000D03*
X26670000Y-20990000D03*
X26670000Y-20490000D03*
X26670000Y-19990000D03*
X26670000Y-19490000D03*
X26670000Y-18990000D03*
X26670000Y-18490000D03*
D28*
X24720000Y-16540000D03*
X24220000Y-16540000D03*
X23720000Y-16540000D03*
X23220000Y-16540000D03*
X22720000Y-16540000D03*
X22220000Y-16540000D03*
X21720000Y-16540000D03*
X21220000Y-16540000D03*
X20720000Y-16540000D03*
X20220000Y-16540000D03*
X19720000Y-16540000D03*
X19220000Y-16540000D03*
X18720000Y-16540000D03*
X18220000Y-16540000D03*
X17720000Y-16540000D03*
X17220000Y-16540000D03*
D22*
X27296000Y-36458000D03*
X27296000Y-34408000D03*
X24765000Y-40765000D03*
X24765000Y-38715000D03*
D26*
X34163000Y-38715000D03*
X34163000Y-40765000D03*
X27305000Y-38715000D03*
X27305000Y-40765000D03*
D29*
X44039000Y-40745000D03*
X44689000Y-40745000D03*
X45339000Y-40745000D03*
X45339000Y-38825000D03*
X44039000Y-38825000D03*
D26*
X41783000Y-38715000D03*
X41783000Y-40765000D03*
X39221000Y-38715000D03*
X39221000Y-40765000D03*
X47625000Y-38715000D03*
X47625000Y-40765000D03*
D30*
X29784000Y-40685000D03*
X30734000Y-40685000D03*
X31684000Y-40685000D03*
X31684000Y-38275000D03*
X29784000Y-38275000D03*
D31*
X21971000Y-38890000D03*
X20071000Y-38890000D03*
X21021000Y-40890000D03*
D26*
X17272000Y-38735000D03*
X17272000Y-40785000D03*
D21*
X28829000Y-26416000D03*
X30879000Y-26416000D03*
D22*
X8509000Y-25282000D03*
X8509000Y-23232000D03*
D32*
X13716000Y-32385000D03*
X10916000Y-32385000D03*
D22*
X16129000Y-12591000D03*
X16129000Y-10541000D03*
X13589000Y-16891000D03*
X13589000Y-14841000D03*
D33*
X8509000Y-16816000D03*
X8509000Y-14916000D03*
D26*
X8509000Y-27296000D03*
X8509000Y-29346000D03*
X50165000Y-38717000D03*
X50165000Y-40767000D03*
D34*
X5842000Y-37465000D03*
D32*
X58299000Y-6347000D03*
X55499000Y-6347000D03*
D34*
X33909000Y-3937000D03*
X33909000Y-1905000D03*
D22*
X13589000Y-29355000D03*
X13589000Y-27305000D03*
D35*
X24560000Y-36322000D03*
X24560000Y-35052000D03*
X24560000Y-33782000D03*
X24560000Y-32512000D03*
X17350000Y-32512000D03*
X17350000Y-33782000D03*
X17350000Y-35052000D03*
X17350000Y-36322000D03*
D26*
X36703000Y-38715000D03*
X36703000Y-40765000D03*
D22*
X49657000Y-16011000D03*
X49657000Y-13961000D03*
D21*
X56252000Y-18669000D03*
X58302000Y-18669000D03*
D20*
X54102000Y-9766500D03*
X52832000Y-9766500D03*
X52832000Y-16141500D03*
X54102000Y-16141500D03*
D25*
X48260000Y-6350000D03*
X46210000Y-6350000D03*
D26*
X30754000Y-16501000D03*
X30754000Y-18551000D03*
D25*
X30879000Y-28956000D03*
X28829000Y-28956000D03*
D21*
X56887000Y-40640000D03*
X58937000Y-40640000D03*
D22*
X8509000Y-21249000D03*
X8509000Y-19199000D03*
X26289000Y-12582000D03*
X26289000Y-10532000D03*
D36*
X52897000Y-34671000D03*
X52897000Y-35941000D03*
X52897000Y-37211000D03*
X52897000Y-38481000D03*
X57847000Y-38481000D03*
X57847000Y-37211000D03*
X57847000Y-35941000D03*
X57847000Y-34671000D03*
D22*
X11049000Y-29346000D03*
X11049000Y-27296000D03*
D37*
X3937000Y-42037000D03*
X3937000Y-812000D03*
D22*
X31242000Y-3946000D03*
X31242000Y-1896000D03*
D34*
X40386000Y-3937000D03*
D22*
X13589000Y-3946000D03*
X13589000Y-1896000D03*
X20701000Y-3946000D03*
X20701000Y-1896000D03*
X11049000Y-3946000D03*
X11049000Y-1896000D03*
D38*
X61762000Y-8336000D03*
X61762000Y-10336000D03*
X61762000Y-12336000D03*
X61762000Y-14336000D03*
X61762000Y-16336000D03*
X61762000Y-18336000D03*
X61762000Y-20336000D03*
X61762000Y-22336000D03*
X61762000Y-24336000D03*
X61762000Y-26336000D03*
X61762000Y-28336000D03*
X61762000Y-30336000D03*
X61762000Y-32336000D03*
X61762000Y-34336000D03*
D39*
X66412000Y-5986000D03*
X66412000Y-36686000D03*
D34*
X13462000Y-12827000D03*
D40*
X4405000Y-35400000D03*
X4405000Y-33400000D03*
X4405000Y-31400000D03*
X4405000Y-29400000D03*
X4405000Y-27400000D03*
X4405000Y-25400000D03*
X4405000Y-23400000D03*
X4405000Y-21400000D03*
X4405000Y-19400000D03*
X4405000Y-17400000D03*
X4405000Y-15400000D03*
X4405000Y-13400000D03*
X4405000Y-11400000D03*
X4405000Y-9400000D03*
X4405000Y-7400000D03*
D41*
X-245000Y-37750000D03*
X-245000Y-5050000D03*
D22*
X49657000Y-11693000D03*
X49657000Y-9643000D03*
X47117000Y-11693000D03*
X47117000Y-9643000D03*
D42*
X55858000Y-21463000D03*
D43*
X54558000Y-21463000D03*
D44*
X54737000Y-28824000D03*
X54737000Y-27874000D03*
X54737000Y-26924000D03*
X52136800Y-26924000D03*
X52136800Y-28824000D03*
D42*
X55858000Y-24003000D03*
D43*
X54558000Y-24003000D03*
D45*
X52404000Y-20458000D03*
X52404000Y-21108000D03*
X52404000Y-21758000D03*
X52404000Y-22408000D03*
X52404000Y-23058000D03*
X52404000Y-23708000D03*
X52404000Y-24358000D03*
X52404000Y-25008000D03*
X58144000Y-25008000D03*
X58144000Y-24358000D03*
X58144000Y-23708000D03*
X58144000Y-23058000D03*
X58144000Y-22408000D03*
X58144000Y-21758000D03*
X58144000Y-21108000D03*
X58144000Y-20458000D03*
D22*
X49657000Y-28974000D03*
X49657000Y-26924000D03*
D26*
X47117000Y-22606000D03*
X47117000Y-24656000D03*
X49657000Y-18270000D03*
X49657000Y-20320000D03*
X47117000Y-18288000D03*
X47117000Y-20338000D03*
X49657000Y-22606000D03*
X49657000Y-24656000D03*
D25*
X54619000Y-40640000D03*
X52569000Y-40640000D03*
D46*
X29305000Y-6141500D03*
X28505000Y-6141500D03*
X27705000Y-6141500D03*
X26905000Y-6141500D03*
X26105000Y-6141500D03*
X25305000Y-6141500D03*
D47*
X25207500Y-7239000D03*
D46*
X25305000Y-8336500D03*
X26105000Y-8336500D03*
X26905000Y-8336500D03*
X27705000Y-8336500D03*
X28505000Y-8336500D03*
X29305000Y-8336500D03*
D47*
X29402500Y-7239000D03*
D48*
X11349500Y-6239000D03*
X11349500Y-6739000D03*
X11349500Y-7239000D03*
X11349500Y-7739000D03*
X11349500Y-8239000D03*
X15574500Y-8239000D03*
X15574500Y-7739000D03*
X15574500Y-7239000D03*
X15574500Y-6739000D03*
X15574500Y-6239000D03*
D49*
X18095000Y-1905000D03*
X16195000Y-1905000D03*
X18095000Y-4064000D03*
X16195000Y-4064000D03*
D22*
X8509000Y-8264000D03*
X8509000Y-6214000D03*
X23241000Y-8255000D03*
X23241000Y-6205000D03*
X20701000Y-8264000D03*
X20701000Y-6214000D03*
X23241000Y-3946000D03*
X23241000Y-1896000D03*
X8509000Y-12573000D03*
X8509000Y-10523000D03*
D50*
X12557000Y-35374000D03*
X10557000Y-35374000D03*
D51*
X14907000Y-40024000D03*
X8207000Y-40024000D03*
D26*
X50165000Y-34408000D03*
X50165000Y-36458000D03*
X47625000Y-34408000D03*
X47625000Y-36458000D03*
D52*
X25955000Y-3683000D03*
X28655000Y-3683000D03*
D34*
X40386000Y-1905000D03*
D22*
X11049000Y-12573000D03*
X11049000Y-10523000D03*
D26*
X45584000Y-1896000D03*
X45584000Y-3946000D03*
X53086000Y-1887000D03*
X53086000Y-3937000D03*
D53*
X50652000Y-3831000D03*
X50652000Y-2881000D03*
X50652000Y-1931000D03*
X48032000Y-1931000D03*
X48032000Y-2881000D03*
X48032000Y-3831000D03*
D22*
X55617000Y-3946000D03*
X55617000Y-1896000D03*
X43053000Y-3937000D03*
X43053000Y-1887000D03*
X58166000Y-3937000D03*
X58166000Y-1887000D03*
D34*
X50165000Y-32258000D03*
D54*
X50536000Y-6223000D03*
X53086000Y-6223000D03*
D34*
X13462000Y-10541000D03*
D26*
X8509000Y-1896000D03*
X8509000Y-3946000D03*
D22*
X47117000Y-28956000D03*
X47117000Y-26906000D03*
X47117000Y-16011000D03*
X47117000Y-13961000D03*
%LPD*%
M02*
