G04 #@! TF.GenerationSoftware,KiCad,Pcbnew,8.0.4*
G04 #@! TF.CreationDate,2024-08-23T15:34:52+12:00*
G04 #@! TF.ProjectId,firefish,66697265-6669-4736-982e-6b696361645f,v0.1*
G04 #@! TF.SameCoordinates,Original*
G04 #@! TF.FileFunction,Paste,Top*
G04 #@! TF.FilePolarity,Positive*
%FSLAX46Y46*%
G04 Gerber Fmt 4.6, Leading zero omitted, Abs format (unit mm)*
G04 Created by KiCad (PCBNEW 8.0.4) date 2024-08-23 15:34:52*
%MOMM*%
%LPD*%
G01*
G04 APERTURE LIST*
G04 Aperture macros list*
%AMRoundRect*
0 Rectangle with rounded corners*
0 $1 Rounding radius*
0 $2 $3 $4 $5 $6 $7 $8 $9 X,Y pos of 4 corners*
0 Add a 4 corners polygon primitive as box body*
4,1,4,$2,$3,$4,$5,$6,$7,$8,$9,$2,$3,0*
0 Add four circle primitives for the rounded corners*
1,1,$1+$1,$2,$3*
1,1,$1+$1,$4,$5*
1,1,$1+$1,$6,$7*
1,1,$1+$1,$8,$9*
0 Add four rect primitives between the rounded corners*
20,1,$1+$1,$2,$3,$4,$5,0*
20,1,$1+$1,$4,$5,$6,$7,0*
20,1,$1+$1,$6,$7,$8,$9,0*
20,1,$1+$1,$8,$9,$2,$3,0*%
G04 Aperture macros list end*
%ADD10RoundRect,0.150000X-0.150000X0.662500X-0.150000X-0.662500X0.150000X-0.662500X0.150000X0.662500X0*%
%ADD11RoundRect,0.250000X-0.325000X-0.450000X0.325000X-0.450000X0.325000X0.450000X-0.325000X0.450000X0*%
%ADD12RoundRect,0.250000X0.450000X-0.325000X0.450000X0.325000X-0.450000X0.325000X-0.450000X-0.325000X0*%
%ADD13R,1.899999X0.599999*%
%ADD14R,2.799999X2.100001*%
%ADD15RoundRect,0.250000X0.325000X0.450000X-0.325000X0.450000X-0.325000X-0.450000X0.325000X-0.450000X0*%
%ADD16RoundRect,0.250000X-0.450000X0.325000X-0.450000X-0.325000X0.450000X-0.325000X0.450000X0.325000X0*%
%ADD17R,1.200000X0.300000*%
%ADD18R,0.300000X1.200000*%
%ADD19R,0.400000X1.190000*%
%ADD20R,0.580000X1.310000*%
%ADD21R,0.800000X0.900000*%
%ADD22R,1.100000X1.100000*%
%ADD23R,1.500000X1.300000*%
%ADD24R,1.610000X0.610000*%
%ADD25RoundRect,0.150000X-0.825000X-0.150000X0.825000X-0.150000X0.825000X0.150000X-0.825000X0.150000X0*%
%ADD26RoundRect,0.250000X-1.200000X0.250000X-1.200000X-0.250000X1.200000X-0.250000X1.200000X0.250000X0*%
%ADD27RoundRect,0.250000X-1.550000X0.650000X-1.550000X-0.650000X1.550000X-0.650000X1.550000X0.650000X0*%
%ADD28RoundRect,0.250000X1.200000X-0.250000X1.200000X0.250000X-1.200000X0.250000X-1.200000X-0.250000X0*%
%ADD29RoundRect,0.250000X1.550000X-0.650000X1.550000X0.650000X-1.550000X0.650000X-1.550000X-0.650000X0*%
%ADD30R,1.200000X0.550000*%
%ADD31R,1.570000X0.410000*%
%ADD32R,0.550000X1.145000*%
%ADD33R,1.145000X0.550000*%
%ADD34RoundRect,0.087500X-0.725000X-0.087500X0.725000X-0.087500X0.725000X0.087500X-0.725000X0.087500X0*%
%ADD35R,1.300000X1.500000*%
%ADD36RoundRect,0.250000X0.250000X1.200000X-0.250000X1.200000X-0.250000X-1.200000X0.250000X-1.200000X0*%
%ADD37RoundRect,0.250000X0.650000X1.550000X-0.650000X1.550000X-0.650000X-1.550000X0.650000X-1.550000X0*%
%ADD38RoundRect,0.250000X-0.450000X-0.425000X0.450000X-0.425000X0.450000X0.425000X-0.450000X0.425000X0*%
%ADD39R,1.220000X0.650000*%
%ADD40R,1.250000X2.000000*%
G04 APERTURE END LIST*
D10*
X58166000Y-9766500D03*
X56896000Y-9766500D03*
X56896000Y-16141500D03*
X58166000Y-16141500D03*
D11*
X52188000Y-18669000D03*
X54238000Y-18669000D03*
D12*
X8509000Y-33419000D03*
X8509000Y-31369000D03*
D13*
X33684999Y-30671999D03*
X33684999Y-29671998D03*
X33684999Y-28671998D03*
X33684999Y-27672000D03*
X33684999Y-26671999D03*
X33684999Y-25671999D03*
X33684999Y-24671998D03*
X33684999Y-23671998D03*
X33684999Y-22672000D03*
X33684999Y-21671999D03*
X33684999Y-20671998D03*
X33684999Y-19671998D03*
X33684999Y-18672000D03*
X33684999Y-17671999D03*
X33684999Y-16671999D03*
X33684999Y-15671998D03*
X33684999Y-14671998D03*
X33684999Y-13672000D03*
X33684999Y-12671999D03*
X33684999Y-11671999D03*
D14*
X36035000Y-33821998D03*
X36035000Y-8522000D03*
D15*
X58937000Y-32385000D03*
X56887000Y-32385000D03*
D11*
X52569000Y-32385000D03*
X54619000Y-32385000D03*
D16*
X11049000Y-19199000D03*
X11049000Y-21249000D03*
X11049000Y-23241000D03*
X11049000Y-25291000D03*
D12*
X18669000Y-12573000D03*
X18669000Y-10523000D03*
D16*
X18161000Y-6205000D03*
X18161000Y-8255000D03*
D12*
X21209000Y-12582000D03*
X21209000Y-10532000D03*
X23749000Y-12573000D03*
X23749000Y-10523000D03*
X11049000Y-16891000D03*
X11049000Y-14841000D03*
D17*
X15270000Y-18490000D03*
X15270000Y-18990000D03*
X15270000Y-19490000D03*
X15270000Y-19990000D03*
X15270000Y-20490000D03*
X15270000Y-20990000D03*
X15270000Y-21490000D03*
X15270000Y-21990000D03*
X15270000Y-22490000D03*
X15270000Y-22990000D03*
X15270000Y-23490000D03*
X15270000Y-23990000D03*
X15270000Y-24490000D03*
X15270000Y-24990000D03*
X15270000Y-25490000D03*
X15270000Y-25990000D03*
D18*
X17220000Y-27940000D03*
X17720000Y-27940000D03*
X18220000Y-27940000D03*
X18720000Y-27940000D03*
X19220000Y-27940000D03*
X19720000Y-27940000D03*
X20220000Y-27940000D03*
X20720000Y-27940000D03*
X21220000Y-27940000D03*
X21720000Y-27940000D03*
X22220000Y-27940000D03*
X22720000Y-27940000D03*
X23220000Y-27940000D03*
X23720000Y-27940000D03*
X24220000Y-27940000D03*
X24720000Y-27940000D03*
D17*
X26670000Y-25990000D03*
X26670000Y-25490000D03*
X26670000Y-24990000D03*
X26670000Y-24490000D03*
X26670000Y-23990000D03*
X26670000Y-23490000D03*
X26670000Y-22990000D03*
X26670000Y-22490000D03*
X26670000Y-21990000D03*
X26670000Y-21490000D03*
X26670000Y-20990000D03*
X26670000Y-20490000D03*
X26670000Y-19990000D03*
X26670000Y-19490000D03*
X26670000Y-18990000D03*
X26670000Y-18490000D03*
D18*
X24720000Y-16540000D03*
X24220000Y-16540000D03*
X23720000Y-16540000D03*
X23220000Y-16540000D03*
X22720000Y-16540000D03*
X22220000Y-16540000D03*
X21720000Y-16540000D03*
X21220000Y-16540000D03*
X20720000Y-16540000D03*
X20220000Y-16540000D03*
X19720000Y-16540000D03*
X19220000Y-16540000D03*
X18720000Y-16540000D03*
X18220000Y-16540000D03*
X17720000Y-16540000D03*
X17220000Y-16540000D03*
D12*
X27296000Y-36458000D03*
X27296000Y-34408000D03*
X24765000Y-40765000D03*
X24765000Y-38715000D03*
D16*
X34163000Y-38715000D03*
X34163000Y-40765000D03*
X27305000Y-38715000D03*
X27305000Y-40765000D03*
D19*
X44039000Y-40745000D03*
X44689000Y-40745000D03*
X45339000Y-40745000D03*
X45339000Y-38825000D03*
X44039000Y-38825000D03*
D16*
X41783000Y-38715000D03*
X41783000Y-40765000D03*
X39221000Y-38715000D03*
X39221000Y-40765000D03*
X47625000Y-38715000D03*
X47625000Y-40765000D03*
D20*
X29784000Y-40685000D03*
X30734000Y-40685000D03*
X31684000Y-40685000D03*
X31684000Y-38275000D03*
X29784000Y-38275000D03*
D21*
X21971000Y-38890000D03*
X20071000Y-38890000D03*
X21021000Y-40890000D03*
D16*
X17272000Y-38735000D03*
X17272000Y-40785000D03*
D11*
X28829000Y-26416000D03*
X30879000Y-26416000D03*
D12*
X8509000Y-25282000D03*
X8509000Y-23232000D03*
D22*
X13716000Y-32385000D03*
X10916000Y-32385000D03*
D12*
X16129000Y-12591000D03*
X16129000Y-10541000D03*
X13589000Y-16891000D03*
X13589000Y-14841000D03*
D23*
X8509000Y-16816000D03*
X8509000Y-14916000D03*
D16*
X8509000Y-27296000D03*
X8509000Y-29346000D03*
X50165000Y-38717000D03*
X50165000Y-40767000D03*
D22*
X58299000Y-6347000D03*
X55499000Y-6347000D03*
D12*
X13589000Y-29355000D03*
X13589000Y-27305000D03*
D24*
X24560000Y-36322000D03*
X24560000Y-35052000D03*
X24560000Y-33782000D03*
X24560000Y-32512000D03*
X17350000Y-32512000D03*
X17350000Y-33782000D03*
X17350000Y-35052000D03*
X17350000Y-36322000D03*
D16*
X36703000Y-38715000D03*
X36703000Y-40765000D03*
D12*
X49657000Y-16011000D03*
X49657000Y-13961000D03*
D11*
X56252000Y-18669000D03*
X58302000Y-18669000D03*
D10*
X54102000Y-9766500D03*
X52832000Y-9766500D03*
X52832000Y-16141500D03*
X54102000Y-16141500D03*
D15*
X48260000Y-6350000D03*
X46210000Y-6350000D03*
D16*
X30754000Y-16501000D03*
X30754000Y-18551000D03*
D15*
X30879000Y-28956000D03*
X28829000Y-28956000D03*
D11*
X56887000Y-40640000D03*
X58937000Y-40640000D03*
D12*
X8509000Y-21249000D03*
X8509000Y-19199000D03*
X26289000Y-12582000D03*
X26289000Y-10532000D03*
D25*
X52897000Y-34671000D03*
X52897000Y-35941000D03*
X52897000Y-37211000D03*
X52897000Y-38481000D03*
X57847000Y-38481000D03*
X57847000Y-37211000D03*
X57847000Y-35941000D03*
X57847000Y-34671000D03*
D12*
X11049000Y-29346000D03*
X11049000Y-27296000D03*
X31242000Y-3946000D03*
X31242000Y-1896000D03*
X13589000Y-3946000D03*
X13589000Y-1896000D03*
X20701000Y-3946000D03*
X20701000Y-1896000D03*
X11049000Y-3946000D03*
X11049000Y-1896000D03*
D26*
X61762000Y-8336000D03*
X61762000Y-10336000D03*
X61762000Y-12336000D03*
X61762000Y-14336000D03*
X61762000Y-16336000D03*
X61762000Y-18336000D03*
X61762000Y-20336000D03*
X61762000Y-22336000D03*
X61762000Y-24336000D03*
X61762000Y-26336000D03*
X61762000Y-28336000D03*
X61762000Y-30336000D03*
X61762000Y-32336000D03*
X61762000Y-34336000D03*
D27*
X66412000Y-5986000D03*
X66412000Y-36686000D03*
D28*
X4405000Y-35400000D03*
X4405000Y-33400000D03*
X4405000Y-31400000D03*
X4405000Y-29400000D03*
X4405000Y-27400000D03*
X4405000Y-25400000D03*
X4405000Y-23400000D03*
X4405000Y-21400000D03*
X4405000Y-19400000D03*
X4405000Y-17400000D03*
X4405000Y-15400000D03*
X4405000Y-13400000D03*
X4405000Y-11400000D03*
X4405000Y-9400000D03*
X4405000Y-7400000D03*
D29*
X-245000Y-37750000D03*
X-245000Y-5050000D03*
D12*
X49657000Y-11693000D03*
X49657000Y-9643000D03*
X47117000Y-11693000D03*
X47117000Y-9643000D03*
D30*
X54737000Y-28824000D03*
X54737000Y-27874000D03*
X54737000Y-26924000D03*
X52136800Y-26924000D03*
X52136800Y-28824000D03*
D31*
X52404000Y-20458000D03*
X52404000Y-21108000D03*
X52404000Y-21758000D03*
X52404000Y-22408000D03*
X52404000Y-23058000D03*
X52404000Y-23708000D03*
X52404000Y-24358000D03*
X52404000Y-25008000D03*
X58144000Y-25008000D03*
X58144000Y-24358000D03*
X58144000Y-23708000D03*
X58144000Y-23058000D03*
X58144000Y-22408000D03*
X58144000Y-21758000D03*
X58144000Y-21108000D03*
X58144000Y-20458000D03*
D12*
X49657000Y-28974000D03*
X49657000Y-26924000D03*
D16*
X47117000Y-22606000D03*
X47117000Y-24656000D03*
X49657000Y-18270000D03*
X49657000Y-20320000D03*
X47117000Y-18288000D03*
X47117000Y-20338000D03*
X49657000Y-22606000D03*
X49657000Y-24656000D03*
D15*
X54619000Y-40640000D03*
X52569000Y-40640000D03*
D32*
X29305000Y-6141500D03*
X28505000Y-6141500D03*
X27705000Y-6141500D03*
X26905000Y-6141500D03*
X26105000Y-6141500D03*
X25305000Y-6141500D03*
D33*
X25207500Y-7239000D03*
D32*
X25305000Y-8336500D03*
X26105000Y-8336500D03*
X26905000Y-8336500D03*
X27705000Y-8336500D03*
X28505000Y-8336500D03*
X29305000Y-8336500D03*
D33*
X29402500Y-7239000D03*
D34*
X11349500Y-6239000D03*
X11349500Y-6739000D03*
X11349500Y-7239000D03*
X11349500Y-7739000D03*
X11349500Y-8239000D03*
X15574500Y-8239000D03*
X15574500Y-7739000D03*
X15574500Y-7239000D03*
X15574500Y-6739000D03*
X15574500Y-6239000D03*
D35*
X18095000Y-1905000D03*
X16195000Y-1905000D03*
X18095000Y-4064000D03*
X16195000Y-4064000D03*
D12*
X8509000Y-8264000D03*
X8509000Y-6214000D03*
X23241000Y-8255000D03*
X23241000Y-6205000D03*
X20701000Y-8264000D03*
X20701000Y-6214000D03*
X23241000Y-3946000D03*
X23241000Y-1896000D03*
X8509000Y-12573000D03*
X8509000Y-10523000D03*
D36*
X12557000Y-35374000D03*
X10557000Y-35374000D03*
D37*
X14907000Y-40024000D03*
X8207000Y-40024000D03*
D16*
X50165000Y-34408000D03*
X50165000Y-36458000D03*
X47625000Y-34408000D03*
X47625000Y-36458000D03*
D38*
X25955000Y-3683000D03*
X28655000Y-3683000D03*
D12*
X11049000Y-12573000D03*
X11049000Y-10523000D03*
D16*
X45584000Y-1896000D03*
X45584000Y-3946000D03*
X53086000Y-1887000D03*
X53086000Y-3937000D03*
D39*
X50652000Y-3831000D03*
X50652000Y-2881000D03*
X50652000Y-1931000D03*
X48032000Y-1931000D03*
X48032000Y-2881000D03*
X48032000Y-3831000D03*
D12*
X55617000Y-3946000D03*
X55617000Y-1896000D03*
X43053000Y-3937000D03*
X43053000Y-1887000D03*
X58166000Y-3937000D03*
X58166000Y-1887000D03*
D40*
X50536000Y-6223000D03*
X53086000Y-6223000D03*
D16*
X8509000Y-1896000D03*
X8509000Y-3946000D03*
D12*
X47117000Y-28956000D03*
X47117000Y-26906000D03*
X47117000Y-16011000D03*
X47117000Y-13961000D03*
M02*
