G04 #@! TF.GenerationSoftware,KiCad,Pcbnew,8.0.4*
G04 #@! TF.CreationDate,2024-08-23T15:34:52+12:00*
G04 #@! TF.ProjectId,firefish,66697265-6669-4736-982e-6b696361645f,v0.1*
G04 #@! TF.SameCoordinates,Original*
G04 #@! TF.FileFunction,Legend,Bot*
G04 #@! TF.FilePolarity,Positive*
%FSLAX46Y46*%
G04 Gerber Fmt 4.6, Leading zero omitted, Abs format (unit mm)*
G04 Created by KiCad (PCBNEW 8.0.4) date 2024-08-23 15:34:52*
%MOMM*%
%LPD*%
G01*
G04 APERTURE LIST*
G04 Aperture macros list*
%AMRoundRect*
0 Rectangle with rounded corners*
0 $1 Rounding radius*
0 $2 $3 $4 $5 $6 $7 $8 $9 X,Y pos of 4 corners*
0 Add a 4 corners polygon primitive as box body*
4,1,4,$2,$3,$4,$5,$6,$7,$8,$9,$2,$3,0*
0 Add four circle primitives for the rounded corners*
1,1,$1+$1,$2,$3*
1,1,$1+$1,$4,$5*
1,1,$1+$1,$6,$7*
1,1,$1+$1,$8,$9*
0 Add four rect primitives between the rounded corners*
20,1,$1+$1,$2,$3,$4,$5,0*
20,1,$1+$1,$4,$5,$6,$7,0*
20,1,$1+$1,$6,$7,$8,$9,0*
20,1,$1+$1,$8,$9,$2,$3,0*%
G04 Aperture macros list end*
%ADD10C,0.153000*%
%ADD11C,0.800000*%
%ADD12C,0.150000*%
%ADD13C,0.120000*%
%ADD14C,0.100000*%
%ADD15C,0.127000*%
%ADD16C,0.200000*%
%ADD17C,1.601600*%
%ADD18RoundRect,0.272087X-0.353713X-0.478713X0.353713X-0.478713X0.353713X0.478713X-0.353713X0.478713X0*%
%ADD19RoundRect,0.050800X0.675000X-0.200000X0.675000X0.200000X-0.675000X0.200000X-0.675000X-0.200000X0*%
%ADD20RoundRect,0.050800X0.950000X-0.900000X0.950000X0.900000X-0.950000X0.900000X-0.950000X-0.900000X0*%
%ADD21RoundRect,0.050800X0.800000X-1.050000X0.800000X1.050000X-0.800000X1.050000X-0.800000X-1.050000X0*%
%ADD22RoundRect,0.050800X0.950000X-0.950000X0.950000X0.950000X-0.950000X0.950000X-0.950000X-0.950000X0*%
%ADD23RoundRect,0.050800X-0.850000X-0.300000X0.850000X-0.300000X0.850000X0.300000X-0.850000X0.300000X0*%
%ADD24RoundRect,0.050800X-1.350000X-0.500000X1.350000X-0.500000X1.350000X0.500000X-1.350000X0.500000X0*%
%ADD25RoundRect,0.175400X0.650400X-0.175400X0.650400X0.175400X-0.650400X0.175400X-0.650400X-0.175400X0*%
%ADD26RoundRect,0.271166X0.679634X-0.379634X0.679634X0.379634X-0.679634X0.379634X-0.679634X-0.379634X0*%
%ADD27RoundRect,0.050800X0.450000X0.500000X-0.450000X0.500000X-0.450000X-0.500000X0.450000X-0.500000X0*%
G04 APERTURE END LIST*
D10*
X2851377Y-24841238D02*
X2851377Y-25450762D01*
X3156139Y-25146000D02*
X2546615Y-25146000D01*
X3105377Y-35509238D02*
X3105377Y-36118762D01*
X3410139Y-35814000D02*
X2800615Y-35814000D01*
X-1161904Y-8019860D02*
X-1428571Y-8400813D01*
X-1619047Y-8019860D02*
X-1619047Y-8819860D01*
X-1619047Y-8819860D02*
X-1314285Y-8819860D01*
X-1314285Y-8819860D02*
X-1238095Y-8781765D01*
X-1238095Y-8781765D02*
X-1200000Y-8743670D01*
X-1200000Y-8743670D02*
X-1161904Y-8667479D01*
X-1161904Y-8667479D02*
X-1161904Y-8553194D01*
X-1161904Y-8553194D02*
X-1200000Y-8477003D01*
X-1200000Y-8477003D02*
X-1238095Y-8438908D01*
X-1238095Y-8438908D02*
X-1314285Y-8400813D01*
X-1314285Y-8400813D02*
X-1619047Y-8400813D01*
X-819047Y-8438908D02*
X-552381Y-8438908D01*
X-438095Y-8019860D02*
X-819047Y-8019860D01*
X-819047Y-8019860D02*
X-819047Y-8819860D01*
X-819047Y-8819860D02*
X-438095Y-8819860D01*
X-133333Y-8057956D02*
X-19047Y-8019860D01*
X-19047Y-8019860D02*
X171428Y-8019860D01*
X171428Y-8019860D02*
X247619Y-8057956D01*
X247619Y-8057956D02*
X285714Y-8096051D01*
X285714Y-8096051D02*
X323809Y-8172241D01*
X323809Y-8172241D02*
X323809Y-8248432D01*
X323809Y-8248432D02*
X285714Y-8324622D01*
X285714Y-8324622D02*
X247619Y-8362717D01*
X247619Y-8362717D02*
X171428Y-8400813D01*
X171428Y-8400813D02*
X19047Y-8438908D01*
X19047Y-8438908D02*
X-57142Y-8477003D01*
X-57142Y-8477003D02*
X-95237Y-8515098D01*
X-95237Y-8515098D02*
X-133333Y-8591289D01*
X-133333Y-8591289D02*
X-133333Y-8667479D01*
X-133333Y-8667479D02*
X-95237Y-8743670D01*
X-95237Y-8743670D02*
X-57142Y-8781765D01*
X-57142Y-8781765D02*
X19047Y-8819860D01*
X19047Y-8819860D02*
X209524Y-8819860D01*
X209524Y-8819860D02*
X323809Y-8781765D01*
X666667Y-8438908D02*
X933333Y-8438908D01*
X1047619Y-8019860D02*
X666667Y-8019860D01*
X666667Y-8019860D02*
X666667Y-8819860D01*
X666667Y-8819860D02*
X1047619Y-8819860D01*
X1276191Y-8819860D02*
X1733334Y-8819860D01*
X1504762Y-8019860D02*
X1504762Y-8819860D01*
X-1853952Y-4374956D02*
X-1739666Y-4336860D01*
X-1739666Y-4336860D02*
X-1549190Y-4336860D01*
X-1549190Y-4336860D02*
X-1472999Y-4374956D01*
X-1472999Y-4374956D02*
X-1434904Y-4413051D01*
X-1434904Y-4413051D02*
X-1396809Y-4489241D01*
X-1396809Y-4489241D02*
X-1396809Y-4565432D01*
X-1396809Y-4565432D02*
X-1434904Y-4641622D01*
X-1434904Y-4641622D02*
X-1472999Y-4679717D01*
X-1472999Y-4679717D02*
X-1549190Y-4717813D01*
X-1549190Y-4717813D02*
X-1701571Y-4755908D01*
X-1701571Y-4755908D02*
X-1777761Y-4794003D01*
X-1777761Y-4794003D02*
X-1815856Y-4832098D01*
X-1815856Y-4832098D02*
X-1853952Y-4908289D01*
X-1853952Y-4908289D02*
X-1853952Y-4984479D01*
X-1853952Y-4984479D02*
X-1815856Y-5060670D01*
X-1815856Y-5060670D02*
X-1777761Y-5098765D01*
X-1777761Y-5098765D02*
X-1701571Y-5136860D01*
X-1701571Y-5136860D02*
X-1511094Y-5136860D01*
X-1511094Y-5136860D02*
X-1396809Y-5098765D01*
X-1168237Y-5136860D02*
X-711094Y-5136860D01*
X-939666Y-4336860D02*
X-939666Y-5136860D01*
X-482523Y-4565432D02*
X-101570Y-4565432D01*
X-558713Y-4336860D02*
X-292046Y-5136860D01*
X-292046Y-5136860D02*
X-25380Y-4336860D01*
X127000Y-5136860D02*
X584143Y-5136860D01*
X355571Y-4336860D02*
X355571Y-5136860D01*
X850810Y-5136860D02*
X850810Y-4489241D01*
X850810Y-4489241D02*
X888905Y-4413051D01*
X888905Y-4413051D02*
X927000Y-4374956D01*
X927000Y-4374956D02*
X1003191Y-4336860D01*
X1003191Y-4336860D02*
X1155572Y-4336860D01*
X1155572Y-4336860D02*
X1231762Y-4374956D01*
X1231762Y-4374956D02*
X1269857Y-4413051D01*
X1269857Y-4413051D02*
X1307953Y-4489241D01*
X1307953Y-4489241D02*
X1307953Y-5136860D01*
X1650809Y-4374956D02*
X1765095Y-4336860D01*
X1765095Y-4336860D02*
X1955571Y-4336860D01*
X1955571Y-4336860D02*
X2031762Y-4374956D01*
X2031762Y-4374956D02*
X2069857Y-4413051D01*
X2069857Y-4413051D02*
X2107952Y-4489241D01*
X2107952Y-4489241D02*
X2107952Y-4565432D01*
X2107952Y-4565432D02*
X2069857Y-4641622D01*
X2069857Y-4641622D02*
X2031762Y-4679717D01*
X2031762Y-4679717D02*
X1955571Y-4717813D01*
X1955571Y-4717813D02*
X1803190Y-4755908D01*
X1803190Y-4755908D02*
X1727000Y-4794003D01*
X1727000Y-4794003D02*
X1688905Y-4832098D01*
X1688905Y-4832098D02*
X1650809Y-4908289D01*
X1650809Y-4908289D02*
X1650809Y-4984479D01*
X1650809Y-4984479D02*
X1688905Y-5060670D01*
X1688905Y-5060670D02*
X1727000Y-5098765D01*
X1727000Y-5098765D02*
X1803190Y-5136860D01*
X1803190Y-5136860D02*
X1993667Y-5136860D01*
X1993667Y-5136860D02*
X2107952Y-5098765D01*
X2724377Y-18364238D02*
X2724377Y-18973762D01*
X3029139Y-18669000D02*
X2419615Y-18669000D01*
D11*
X66007638Y-12034429D02*
X66007638Y-10701095D01*
X68102876Y-10701095D02*
X64102876Y-10701095D01*
X64102876Y-10701095D02*
X64102876Y-12605857D01*
X68102876Y-14129666D02*
X65436209Y-14129666D01*
X64102876Y-14129666D02*
X64293352Y-13939190D01*
X64293352Y-13939190D02*
X64483828Y-14129666D01*
X64483828Y-14129666D02*
X64293352Y-14320143D01*
X64293352Y-14320143D02*
X64102876Y-14129666D01*
X64102876Y-14129666D02*
X64483828Y-14129666D01*
X68102876Y-16034428D02*
X65436209Y-16034428D01*
X66198114Y-16034428D02*
X65817161Y-16224905D01*
X65817161Y-16224905D02*
X65626685Y-16415381D01*
X65626685Y-16415381D02*
X65436209Y-16796333D01*
X65436209Y-16796333D02*
X65436209Y-17177286D01*
X67912400Y-20034428D02*
X68102876Y-19653476D01*
X68102876Y-19653476D02*
X68102876Y-18891571D01*
X68102876Y-18891571D02*
X67912400Y-18510618D01*
X67912400Y-18510618D02*
X67531447Y-18320142D01*
X67531447Y-18320142D02*
X66007638Y-18320142D01*
X66007638Y-18320142D02*
X65626685Y-18510618D01*
X65626685Y-18510618D02*
X65436209Y-18891571D01*
X65436209Y-18891571D02*
X65436209Y-19653476D01*
X65436209Y-19653476D02*
X65626685Y-20034428D01*
X65626685Y-20034428D02*
X66007638Y-20224904D01*
X66007638Y-20224904D02*
X66388590Y-20224904D01*
X66388590Y-20224904D02*
X66769542Y-18320142D01*
X66007638Y-23272523D02*
X66007638Y-21939189D01*
X68102876Y-21939189D02*
X64102876Y-21939189D01*
X64102876Y-21939189D02*
X64102876Y-23843951D01*
X68102876Y-25367760D02*
X65436209Y-25367760D01*
X64102876Y-25367760D02*
X64293352Y-25177284D01*
X64293352Y-25177284D02*
X64483828Y-25367760D01*
X64483828Y-25367760D02*
X64293352Y-25558237D01*
X64293352Y-25558237D02*
X64102876Y-25367760D01*
X64102876Y-25367760D02*
X64483828Y-25367760D01*
X67912400Y-27082046D02*
X68102876Y-27462999D01*
X68102876Y-27462999D02*
X68102876Y-28224903D01*
X68102876Y-28224903D02*
X67912400Y-28605856D01*
X67912400Y-28605856D02*
X67531447Y-28796332D01*
X67531447Y-28796332D02*
X67340971Y-28796332D01*
X67340971Y-28796332D02*
X66960019Y-28605856D01*
X66960019Y-28605856D02*
X66769542Y-28224903D01*
X66769542Y-28224903D02*
X66769542Y-27653475D01*
X66769542Y-27653475D02*
X66579066Y-27272522D01*
X66579066Y-27272522D02*
X66198114Y-27082046D01*
X66198114Y-27082046D02*
X66007638Y-27082046D01*
X66007638Y-27082046D02*
X65626685Y-27272522D01*
X65626685Y-27272522D02*
X65436209Y-27653475D01*
X65436209Y-27653475D02*
X65436209Y-28224903D01*
X65436209Y-28224903D02*
X65626685Y-28605856D01*
X68102876Y-30510617D02*
X64102876Y-30510617D01*
X68102876Y-32224903D02*
X66007638Y-32224903D01*
X66007638Y-32224903D02*
X65626685Y-32034427D01*
X65626685Y-32034427D02*
X65436209Y-31653475D01*
X65436209Y-31653475D02*
X65436209Y-31082046D01*
X65436209Y-31082046D02*
X65626685Y-30701094D01*
X65626685Y-30701094D02*
X65817161Y-30510617D01*
D12*
X1246094Y-6931819D02*
X1246094Y-5931819D01*
X1246094Y-5931819D02*
X1007999Y-5931819D01*
X1007999Y-5931819D02*
X865142Y-5979438D01*
X865142Y-5979438D02*
X769904Y-6074676D01*
X769904Y-6074676D02*
X722285Y-6169914D01*
X722285Y-6169914D02*
X674666Y-6360390D01*
X674666Y-6360390D02*
X674666Y-6503247D01*
X674666Y-6503247D02*
X722285Y-6693723D01*
X722285Y-6693723D02*
X769904Y-6788961D01*
X769904Y-6788961D02*
X865142Y-6884200D01*
X865142Y-6884200D02*
X1007999Y-6931819D01*
X1007999Y-6931819D02*
X1246094Y-6931819D01*
X-230095Y-5931819D02*
X246094Y-5931819D01*
X246094Y-5931819D02*
X293713Y-6408009D01*
X293713Y-6408009D02*
X246094Y-6360390D01*
X246094Y-6360390D02*
X150856Y-6312771D01*
X150856Y-6312771D02*
X-87238Y-6312771D01*
X-87238Y-6312771D02*
X-182476Y-6360390D01*
X-182476Y-6360390D02*
X-230095Y-6408009D01*
X-230095Y-6408009D02*
X-277714Y-6503247D01*
X-277714Y-6503247D02*
X-277714Y-6741342D01*
X-277714Y-6741342D02*
X-230095Y-6836580D01*
X-230095Y-6836580D02*
X-182476Y-6884200D01*
X-182476Y-6884200D02*
X-87238Y-6931819D01*
X-87238Y-6931819D02*
X150856Y-6931819D01*
X150856Y-6931819D02*
X246094Y-6884200D01*
X246094Y-6884200D02*
X293713Y-6836580D01*
X-823378Y-26463110D02*
X-107900Y-26463110D01*
X-107900Y-26463110D02*
X35194Y-26415412D01*
X35194Y-26415412D02*
X130592Y-26320015D01*
X130592Y-26320015D02*
X178290Y-26176919D01*
X178290Y-26176919D02*
X178290Y-26081522D01*
X-394091Y-27083191D02*
X-441790Y-26987794D01*
X-441790Y-26987794D02*
X-489488Y-26940095D01*
X-489488Y-26940095D02*
X-584885Y-26892397D01*
X-584885Y-26892397D02*
X-632584Y-26892397D01*
X-632584Y-26892397D02*
X-727981Y-26940095D01*
X-727981Y-26940095D02*
X-775679Y-26987794D01*
X-775679Y-26987794D02*
X-823378Y-27083191D01*
X-823378Y-27083191D02*
X-823378Y-27273985D01*
X-823378Y-27273985D02*
X-775679Y-27369382D01*
X-775679Y-27369382D02*
X-727981Y-27417080D01*
X-727981Y-27417080D02*
X-632584Y-27464779D01*
X-632584Y-27464779D02*
X-584885Y-27464779D01*
X-584885Y-27464779D02*
X-489488Y-27417080D01*
X-489488Y-27417080D02*
X-441790Y-27369382D01*
X-441790Y-27369382D02*
X-394091Y-27273985D01*
X-394091Y-27273985D02*
X-394091Y-27083191D01*
X-394091Y-27083191D02*
X-346393Y-26987794D01*
X-346393Y-26987794D02*
X-298694Y-26940095D01*
X-298694Y-26940095D02*
X-203297Y-26892397D01*
X-203297Y-26892397D02*
X-12503Y-26892397D01*
X-12503Y-26892397D02*
X82893Y-26940095D01*
X82893Y-26940095D02*
X130592Y-26987794D01*
X130592Y-26987794D02*
X178290Y-27083191D01*
X178290Y-27083191D02*
X178290Y-27273985D01*
X178290Y-27273985D02*
X130592Y-27369382D01*
X130592Y-27369382D02*
X82893Y-27417080D01*
X82893Y-27417080D02*
X-12503Y-27464779D01*
X-12503Y-27464779D02*
X-203297Y-27464779D01*
X-203297Y-27464779D02*
X-298694Y-27417080D01*
X-298694Y-27417080D02*
X-346393Y-27369382D01*
X-346393Y-27369382D02*
X-394091Y-27273985D01*
X-822430Y-34845666D02*
X-108145Y-34845666D01*
X-108145Y-34845666D02*
X34711Y-34798047D01*
X34711Y-34798047D02*
X129950Y-34702809D01*
X129950Y-34702809D02*
X177569Y-34559952D01*
X177569Y-34559952D02*
X177569Y-34464714D01*
X-727192Y-35274238D02*
X-774811Y-35321857D01*
X-774811Y-35321857D02*
X-822430Y-35417095D01*
X-822430Y-35417095D02*
X-822430Y-35655190D01*
X-822430Y-35655190D02*
X-774811Y-35750428D01*
X-774811Y-35750428D02*
X-727192Y-35798047D01*
X-727192Y-35798047D02*
X-631954Y-35845666D01*
X-631954Y-35845666D02*
X-536716Y-35845666D01*
X-536716Y-35845666D02*
X-393859Y-35798047D01*
X-393859Y-35798047D02*
X177569Y-35226619D01*
X177569Y-35226619D02*
X177569Y-35845666D01*
D10*
X306044Y-9969475D02*
X344139Y-10083761D01*
X344139Y-10083761D02*
X344139Y-10274237D01*
X344139Y-10274237D02*
X306044Y-10350428D01*
X306044Y-10350428D02*
X267948Y-10388523D01*
X267948Y-10388523D02*
X191758Y-10426618D01*
X191758Y-10426618D02*
X115567Y-10426618D01*
X115567Y-10426618D02*
X39377Y-10388523D01*
X39377Y-10388523D02*
X1282Y-10350428D01*
X1282Y-10350428D02*
X-36813Y-10274237D01*
X-36813Y-10274237D02*
X-74908Y-10121856D01*
X-74908Y-10121856D02*
X-113003Y-10045666D01*
X-113003Y-10045666D02*
X-151098Y-10007571D01*
X-151098Y-10007571D02*
X-227289Y-9969475D01*
X-227289Y-9969475D02*
X-303479Y-9969475D01*
X-303479Y-9969475D02*
X-379670Y-10007571D01*
X-379670Y-10007571D02*
X-417765Y-10045666D01*
X-417765Y-10045666D02*
X-455860Y-10121856D01*
X-455860Y-10121856D02*
X-455860Y-10312333D01*
X-455860Y-10312333D02*
X-417765Y-10426618D01*
X344139Y-11188523D02*
X344139Y-10731380D01*
X344139Y-10959952D02*
X-455860Y-10959952D01*
X-455860Y-10959952D02*
X-341575Y-10883761D01*
X-341575Y-10883761D02*
X-265384Y-10807571D01*
X-265384Y-10807571D02*
X-227289Y-10731380D01*
D13*
X-1733000Y-5390000D02*
X1127000Y-5390000D01*
X-1733000Y-7310000D02*
X-1733000Y-5390000D01*
X1127000Y-7310000D02*
X-1733000Y-7310000D01*
D14*
X-3416000Y-13349000D02*
X-2566000Y-13349000D01*
X-3416000Y-13799000D02*
X-3416000Y-13349000D01*
X-3416000Y-21449000D02*
X-3416000Y-20949000D01*
X-2616000Y-21449000D02*
X-3416000Y-21449000D01*
X584000Y-13349000D02*
X84000Y-13349000D01*
X584000Y-21449000D02*
X134000Y-21449000D01*
X2334000Y-15749000D02*
X2334000Y-15449000D01*
X2334000Y-19299000D02*
X2334000Y-18999000D01*
D15*
X-2660000Y-29964000D02*
X-2660000Y-23874000D01*
X-40000Y-22799000D02*
X1390000Y-22799000D01*
X-30000Y-31049000D02*
X1390000Y-31049000D01*
X1390000Y-22799000D02*
X1390000Y-24564000D01*
X1390000Y-31049000D02*
X1390000Y-29284000D01*
D16*
X3140000Y-28724000D02*
G75*
G02*
X2940000Y-28724000I-100000J0D01*
G01*
X2940000Y-28724000D02*
G75*
G02*
X3140000Y-28724000I100000J0D01*
G01*
D13*
X-2812000Y-37246000D02*
X-2812000Y-33366000D01*
X-842000Y-32196000D02*
X1658000Y-32196000D01*
X-842000Y-38416000D02*
X1658000Y-38416000D01*
X1658000Y-32196000D02*
X1658000Y-33246000D01*
X1658000Y-37366000D02*
X2648000Y-37366000D01*
X1658000Y-38416000D02*
X1658000Y-37366000D01*
D15*
X1250000Y-9141000D02*
X-1250000Y-9141000D01*
X1250000Y-11941000D02*
X-1250000Y-11941000D01*
%LPC*%
D17*
X3937000Y-42037000D03*
X3937000Y-812000D03*
D18*
X-898000Y-6350000D03*
X1152000Y-6350000D03*
D19*
X1659000Y-18699000D03*
X1659000Y-18049000D03*
X1659000Y-17399000D03*
X1659000Y-16749000D03*
X1659000Y-16099000D03*
D20*
X-1016000Y-21199000D03*
D21*
X1534000Y-20499000D03*
D22*
X-1016000Y-18599000D03*
X-1016000Y-16199000D03*
D21*
X1534000Y-14299000D03*
D20*
X-1016000Y-13599000D03*
D23*
X1640000Y-28799000D03*
X1640000Y-27549000D03*
X1640000Y-26299000D03*
X1640000Y-25049000D03*
D24*
X-1560000Y-30649000D03*
X-1560000Y-23199000D03*
D25*
X1873000Y-36806000D03*
X1873000Y-35806000D03*
X1873000Y-34806000D03*
X1873000Y-33806000D03*
D26*
X-2002000Y-38106000D03*
X-2002000Y-32506000D03*
D27*
X2050000Y-9741000D03*
X-2050000Y-9741000D03*
X2050000Y-11341000D03*
X-2050000Y-11341000D03*
%LPD*%
M02*
