G04 #@! TF.GenerationSoftware,KiCad,Pcbnew,8.0.4*
G04 #@! TF.CreationDate,2024-08-23T15:34:52+12:00*
G04 #@! TF.ProjectId,firefish,66697265-6669-4736-982e-6b696361645f,v0.1*
G04 #@! TF.SameCoordinates,Original*
G04 #@! TF.FileFunction,Soldermask,Bot*
G04 #@! TF.FilePolarity,Negative*
%FSLAX46Y46*%
G04 Gerber Fmt 4.6, Leading zero omitted, Abs format (unit mm)*
G04 Created by KiCad (PCBNEW 8.0.4) date 2024-08-23 15:34:52*
%MOMM*%
%LPD*%
G01*
G04 APERTURE LIST*
G04 APERTURE END LIST*
G36*
X3980870Y-41241143D02*
G01*
X4020646Y-41241143D01*
X4065515Y-41250680D01*
X4115195Y-41256278D01*
X4151322Y-41268919D01*
X4184290Y-41275927D01*
X4231797Y-41297078D01*
X4284454Y-41315504D01*
X4311864Y-41332726D01*
X4337121Y-41343972D01*
X4384216Y-41378188D01*
X4436291Y-41410909D01*
X4454990Y-41429608D01*
X4472463Y-41442303D01*
X4515657Y-41490275D01*
X4563091Y-41537709D01*
X4574002Y-41555074D01*
X4584408Y-41566631D01*
X4620013Y-41628300D01*
X4658496Y-41689546D01*
X4663300Y-41703275D01*
X4668055Y-41711511D01*
X4692399Y-41786437D01*
X4717722Y-41858805D01*
X4718682Y-41867329D01*
X4719753Y-41870624D01*
X4729463Y-41963014D01*
X4737800Y-42037000D01*
X4729462Y-42110992D01*
X4719753Y-42203375D01*
X4718682Y-42206669D01*
X4717722Y-42215195D01*
X4692395Y-42287575D01*
X4668055Y-42362488D01*
X4663300Y-42370722D01*
X4658496Y-42384454D01*
X4620006Y-42445710D01*
X4584408Y-42507368D01*
X4574004Y-42518922D01*
X4563091Y-42536291D01*
X4515648Y-42583733D01*
X4472463Y-42631696D01*
X4454994Y-42644387D01*
X4436291Y-42663091D01*
X4384205Y-42695818D01*
X4337121Y-42730027D01*
X4311869Y-42741269D01*
X4284454Y-42758496D01*
X4231787Y-42776924D01*
X4184290Y-42798072D01*
X4151328Y-42805078D01*
X4115195Y-42817722D01*
X4065512Y-42823319D01*
X4020646Y-42832857D01*
X3980870Y-42832857D01*
X3937000Y-42837800D01*
X3893130Y-42832857D01*
X3853354Y-42832857D01*
X3808486Y-42823319D01*
X3758805Y-42817722D01*
X3722673Y-42805078D01*
X3689709Y-42798072D01*
X3642208Y-42776923D01*
X3589546Y-42758496D01*
X3562132Y-42741271D01*
X3536878Y-42730027D01*
X3489786Y-42695813D01*
X3437709Y-42663091D01*
X3419008Y-42644390D01*
X3401536Y-42631696D01*
X3358341Y-42583723D01*
X3310909Y-42536291D01*
X3299998Y-42518926D01*
X3289591Y-42507368D01*
X3253981Y-42445691D01*
X3215504Y-42384454D01*
X3210700Y-42370726D01*
X3205944Y-42362488D01*
X3181590Y-42287535D01*
X3156278Y-42215195D01*
X3155317Y-42206674D01*
X3154246Y-42203375D01*
X3144522Y-42110859D01*
X3136200Y-42037000D01*
X3144521Y-41963146D01*
X3154246Y-41870624D01*
X3155318Y-41867324D01*
X3156278Y-41858805D01*
X3181586Y-41786477D01*
X3205944Y-41711511D01*
X3210701Y-41703270D01*
X3215504Y-41689546D01*
X3253974Y-41628320D01*
X3289591Y-41566631D01*
X3300000Y-41555070D01*
X3310909Y-41537709D01*
X3358330Y-41490287D01*
X3401533Y-41442306D01*
X3419008Y-41429609D01*
X3437709Y-41410909D01*
X3489785Y-41378187D01*
X3536882Y-41343970D01*
X3562139Y-41332724D01*
X3589546Y-41315504D01*
X3642197Y-41297080D01*
X3689709Y-41275927D01*
X3722678Y-41268918D01*
X3758805Y-41256278D01*
X3808484Y-41250680D01*
X3853354Y-41241143D01*
X3893130Y-41241143D01*
X3937000Y-41236200D01*
X3980870Y-41241143D01*
G37*
G36*
X-1283132Y-37463190D02*
G01*
X-1268356Y-37469713D01*
X-1259441Y-37471126D01*
X-1222302Y-37490048D01*
X-1182007Y-37507841D01*
X-1176422Y-37513425D01*
X-1175935Y-37513674D01*
X-1109674Y-37579935D01*
X-1109425Y-37580422D01*
X-1103841Y-37586007D01*
X-1086048Y-37626302D01*
X-1067126Y-37663441D01*
X-1065713Y-37672356D01*
X-1059190Y-37687132D01*
X-1051200Y-37756000D01*
X-1051200Y-38456000D01*
X-1059190Y-38524868D01*
X-1065714Y-38539643D01*
X-1067126Y-38548558D01*
X-1086045Y-38585689D01*
X-1103841Y-38625993D01*
X-1109426Y-38631578D01*
X-1109674Y-38632064D01*
X-1175935Y-38698325D01*
X-1176420Y-38698572D01*
X-1182007Y-38704159D01*
X-1222317Y-38721957D01*
X-1259441Y-38740873D01*
X-1268353Y-38742284D01*
X-1283132Y-38748810D01*
X-1352000Y-38756800D01*
X-2652000Y-38756800D01*
X-2720868Y-38748810D01*
X-2735647Y-38742284D01*
X-2744558Y-38740873D01*
X-2781675Y-38721960D01*
X-2821993Y-38704159D01*
X-2827580Y-38698571D01*
X-2828064Y-38698325D01*
X-2894325Y-38632064D01*
X-2894571Y-38631580D01*
X-2900159Y-38625993D01*
X-2917960Y-38585675D01*
X-2936873Y-38548558D01*
X-2938284Y-38539647D01*
X-2944810Y-38524868D01*
X-2952800Y-38456000D01*
X-2952800Y-37756000D01*
X-2944810Y-37687132D01*
X-2938284Y-37672353D01*
X-2936873Y-37663441D01*
X-2917957Y-37626317D01*
X-2900159Y-37586007D01*
X-2894572Y-37580420D01*
X-2894325Y-37579935D01*
X-2828064Y-37513674D01*
X-2827578Y-37513426D01*
X-2821993Y-37507841D01*
X-2781689Y-37490045D01*
X-2744558Y-37471126D01*
X-2735643Y-37469714D01*
X-2720868Y-37463190D01*
X-2652000Y-37455200D01*
X-1352000Y-37455200D01*
X-1283132Y-37463190D01*
G37*
G36*
X2506216Y-36456834D02*
G01*
X2540257Y-36460783D01*
X2551888Y-36465919D01*
X2574843Y-36470485D01*
X2599419Y-36486906D01*
X2610486Y-36491793D01*
X2618044Y-36499351D01*
X2639987Y-36514013D01*
X2654648Y-36535955D01*
X2662206Y-36543513D01*
X2667091Y-36554578D01*
X2683515Y-36579157D01*
X2688081Y-36602113D01*
X2693216Y-36613742D01*
X2697163Y-36647773D01*
X2698800Y-36656000D01*
X2698800Y-36956000D01*
X2697163Y-36964228D01*
X2693216Y-36998257D01*
X2688081Y-37009884D01*
X2683515Y-37032843D01*
X2667090Y-37057423D01*
X2662206Y-37068486D01*
X2654650Y-37076041D01*
X2639987Y-37097987D01*
X2618041Y-37112650D01*
X2610486Y-37120206D01*
X2599423Y-37125090D01*
X2574843Y-37141515D01*
X2551884Y-37146081D01*
X2540257Y-37151216D01*
X2506227Y-37155163D01*
X2498000Y-37156800D01*
X1248000Y-37156800D01*
X1239772Y-37155163D01*
X1205742Y-37151216D01*
X1194113Y-37146081D01*
X1171157Y-37141515D01*
X1146578Y-37125091D01*
X1135513Y-37120206D01*
X1127955Y-37112648D01*
X1106013Y-37097987D01*
X1091351Y-37076044D01*
X1083793Y-37068486D01*
X1078906Y-37057419D01*
X1062485Y-37032843D01*
X1057919Y-37009888D01*
X1052783Y-36998257D01*
X1048834Y-36964215D01*
X1047200Y-36956000D01*
X1047200Y-36656000D01*
X1048834Y-36647784D01*
X1052783Y-36613742D01*
X1057919Y-36602109D01*
X1062485Y-36579157D01*
X1078905Y-36554582D01*
X1083793Y-36543513D01*
X1091353Y-36535952D01*
X1106013Y-36514013D01*
X1127952Y-36499353D01*
X1135513Y-36491793D01*
X1146582Y-36486905D01*
X1171157Y-36470485D01*
X1194109Y-36465919D01*
X1205742Y-36460783D01*
X1239785Y-36456833D01*
X1248000Y-36455200D01*
X2498000Y-36455200D01*
X2506216Y-36456834D01*
G37*
G36*
X2506216Y-35456834D02*
G01*
X2540257Y-35460783D01*
X2551888Y-35465919D01*
X2574843Y-35470485D01*
X2599419Y-35486906D01*
X2610486Y-35491793D01*
X2618044Y-35499351D01*
X2639987Y-35514013D01*
X2654648Y-35535955D01*
X2662206Y-35543513D01*
X2667091Y-35554578D01*
X2683515Y-35579157D01*
X2688081Y-35602113D01*
X2693216Y-35613742D01*
X2697163Y-35647773D01*
X2698800Y-35656000D01*
X2698800Y-35956000D01*
X2697163Y-35964228D01*
X2693216Y-35998257D01*
X2688081Y-36009884D01*
X2683515Y-36032843D01*
X2667090Y-36057423D01*
X2662206Y-36068486D01*
X2654650Y-36076041D01*
X2639987Y-36097987D01*
X2618041Y-36112650D01*
X2610486Y-36120206D01*
X2599423Y-36125090D01*
X2574843Y-36141515D01*
X2551884Y-36146081D01*
X2540257Y-36151216D01*
X2506227Y-36155163D01*
X2498000Y-36156800D01*
X1248000Y-36156800D01*
X1239772Y-36155163D01*
X1205742Y-36151216D01*
X1194113Y-36146081D01*
X1171157Y-36141515D01*
X1146578Y-36125091D01*
X1135513Y-36120206D01*
X1127955Y-36112648D01*
X1106013Y-36097987D01*
X1091351Y-36076044D01*
X1083793Y-36068486D01*
X1078906Y-36057419D01*
X1062485Y-36032843D01*
X1057919Y-36009888D01*
X1052783Y-35998257D01*
X1048834Y-35964215D01*
X1047200Y-35956000D01*
X1047200Y-35656000D01*
X1048834Y-35647784D01*
X1052783Y-35613742D01*
X1057919Y-35602109D01*
X1062485Y-35579157D01*
X1078905Y-35554582D01*
X1083793Y-35543513D01*
X1091353Y-35535952D01*
X1106013Y-35514013D01*
X1127952Y-35499353D01*
X1135513Y-35491793D01*
X1146582Y-35486905D01*
X1171157Y-35470485D01*
X1194109Y-35465919D01*
X1205742Y-35460783D01*
X1239785Y-35456833D01*
X1248000Y-35455200D01*
X2498000Y-35455200D01*
X2506216Y-35456834D01*
G37*
G36*
X2506216Y-34456834D02*
G01*
X2540257Y-34460783D01*
X2551888Y-34465919D01*
X2574843Y-34470485D01*
X2599419Y-34486906D01*
X2610486Y-34491793D01*
X2618044Y-34499351D01*
X2639987Y-34514013D01*
X2654648Y-34535955D01*
X2662206Y-34543513D01*
X2667091Y-34554578D01*
X2683515Y-34579157D01*
X2688081Y-34602113D01*
X2693216Y-34613742D01*
X2697163Y-34647773D01*
X2698800Y-34656000D01*
X2698800Y-34956000D01*
X2697163Y-34964228D01*
X2693216Y-34998257D01*
X2688081Y-35009884D01*
X2683515Y-35032843D01*
X2667090Y-35057423D01*
X2662206Y-35068486D01*
X2654650Y-35076041D01*
X2639987Y-35097987D01*
X2618041Y-35112650D01*
X2610486Y-35120206D01*
X2599423Y-35125090D01*
X2574843Y-35141515D01*
X2551884Y-35146081D01*
X2540257Y-35151216D01*
X2506227Y-35155163D01*
X2498000Y-35156800D01*
X1248000Y-35156800D01*
X1239772Y-35155163D01*
X1205742Y-35151216D01*
X1194113Y-35146081D01*
X1171157Y-35141515D01*
X1146578Y-35125091D01*
X1135513Y-35120206D01*
X1127955Y-35112648D01*
X1106013Y-35097987D01*
X1091351Y-35076044D01*
X1083793Y-35068486D01*
X1078906Y-35057419D01*
X1062485Y-35032843D01*
X1057919Y-35009888D01*
X1052783Y-34998257D01*
X1048834Y-34964215D01*
X1047200Y-34956000D01*
X1047200Y-34656000D01*
X1048834Y-34647784D01*
X1052783Y-34613742D01*
X1057919Y-34602109D01*
X1062485Y-34579157D01*
X1078905Y-34554582D01*
X1083793Y-34543513D01*
X1091353Y-34535952D01*
X1106013Y-34514013D01*
X1127952Y-34499353D01*
X1135513Y-34491793D01*
X1146582Y-34486905D01*
X1171157Y-34470485D01*
X1194109Y-34465919D01*
X1205742Y-34460783D01*
X1239785Y-34456833D01*
X1248000Y-34455200D01*
X2498000Y-34455200D01*
X2506216Y-34456834D01*
G37*
G36*
X2506216Y-33456834D02*
G01*
X2540257Y-33460783D01*
X2551888Y-33465919D01*
X2574843Y-33470485D01*
X2599419Y-33486906D01*
X2610486Y-33491793D01*
X2618044Y-33499351D01*
X2639987Y-33514013D01*
X2654648Y-33535955D01*
X2662206Y-33543513D01*
X2667091Y-33554578D01*
X2683515Y-33579157D01*
X2688081Y-33602113D01*
X2693216Y-33613742D01*
X2697163Y-33647773D01*
X2698800Y-33656000D01*
X2698800Y-33956000D01*
X2697163Y-33964228D01*
X2693216Y-33998257D01*
X2688081Y-34009884D01*
X2683515Y-34032843D01*
X2667090Y-34057423D01*
X2662206Y-34068486D01*
X2654650Y-34076041D01*
X2639987Y-34097987D01*
X2618041Y-34112650D01*
X2610486Y-34120206D01*
X2599423Y-34125090D01*
X2574843Y-34141515D01*
X2551884Y-34146081D01*
X2540257Y-34151216D01*
X2506227Y-34155163D01*
X2498000Y-34156800D01*
X1248000Y-34156800D01*
X1239772Y-34155163D01*
X1205742Y-34151216D01*
X1194113Y-34146081D01*
X1171157Y-34141515D01*
X1146578Y-34125091D01*
X1135513Y-34120206D01*
X1127955Y-34112648D01*
X1106013Y-34097987D01*
X1091351Y-34076044D01*
X1083793Y-34068486D01*
X1078906Y-34057419D01*
X1062485Y-34032843D01*
X1057919Y-34009888D01*
X1052783Y-33998257D01*
X1048834Y-33964215D01*
X1047200Y-33956000D01*
X1047200Y-33656000D01*
X1048834Y-33647784D01*
X1052783Y-33613742D01*
X1057919Y-33602109D01*
X1062485Y-33579157D01*
X1078905Y-33554582D01*
X1083793Y-33543513D01*
X1091353Y-33535952D01*
X1106013Y-33514013D01*
X1127952Y-33499353D01*
X1135513Y-33491793D01*
X1146582Y-33486905D01*
X1171157Y-33470485D01*
X1194109Y-33465919D01*
X1205742Y-33460783D01*
X1239785Y-33456833D01*
X1248000Y-33455200D01*
X2498000Y-33455200D01*
X2506216Y-33456834D01*
G37*
G36*
X-1283132Y-31863190D02*
G01*
X-1268356Y-31869713D01*
X-1259441Y-31871126D01*
X-1222302Y-31890048D01*
X-1182007Y-31907841D01*
X-1176422Y-31913425D01*
X-1175935Y-31913674D01*
X-1109674Y-31979935D01*
X-1109425Y-31980422D01*
X-1103841Y-31986007D01*
X-1086048Y-32026302D01*
X-1067126Y-32063441D01*
X-1065713Y-32072356D01*
X-1059190Y-32087132D01*
X-1051200Y-32156000D01*
X-1051200Y-32856000D01*
X-1059190Y-32924868D01*
X-1065714Y-32939643D01*
X-1067126Y-32948558D01*
X-1086045Y-32985689D01*
X-1103841Y-33025993D01*
X-1109426Y-33031578D01*
X-1109674Y-33032064D01*
X-1175935Y-33098325D01*
X-1176420Y-33098572D01*
X-1182007Y-33104159D01*
X-1222317Y-33121957D01*
X-1259441Y-33140873D01*
X-1268353Y-33142284D01*
X-1283132Y-33148810D01*
X-1352000Y-33156800D01*
X-2652000Y-33156800D01*
X-2720868Y-33148810D01*
X-2735647Y-33142284D01*
X-2744558Y-33140873D01*
X-2781675Y-33121960D01*
X-2821993Y-33104159D01*
X-2827580Y-33098571D01*
X-2828064Y-33098325D01*
X-2894325Y-33032064D01*
X-2894571Y-33031580D01*
X-2900159Y-33025993D01*
X-2917960Y-32985675D01*
X-2936873Y-32948558D01*
X-2938284Y-32939647D01*
X-2944810Y-32924868D01*
X-2952800Y-32856000D01*
X-2952800Y-32156000D01*
X-2944810Y-32087132D01*
X-2938284Y-32072353D01*
X-2936873Y-32063441D01*
X-2917957Y-32026317D01*
X-2900159Y-31986007D01*
X-2894572Y-31980420D01*
X-2894325Y-31979935D01*
X-2828064Y-31913674D01*
X-2827578Y-31913426D01*
X-2821993Y-31907841D01*
X-2781689Y-31890045D01*
X-2744558Y-31871126D01*
X-2735643Y-31869714D01*
X-2720868Y-31863190D01*
X-2652000Y-31855200D01*
X-1352000Y-31855200D01*
X-1283132Y-31863190D01*
G37*
G36*
X-190560Y-30102067D02*
G01*
X-174079Y-30113079D01*
X-163067Y-30129560D01*
X-159200Y-30149000D01*
X-159200Y-31149000D01*
X-163067Y-31168440D01*
X-174079Y-31184921D01*
X-190560Y-31195933D01*
X-210000Y-31199800D01*
X-2910000Y-31199800D01*
X-2929440Y-31195933D01*
X-2945921Y-31184921D01*
X-2956933Y-31168440D01*
X-2960800Y-31149000D01*
X-2960800Y-30149000D01*
X-2956933Y-30129560D01*
X-2945921Y-30113079D01*
X-2929440Y-30102067D01*
X-2910000Y-30098200D01*
X-210000Y-30098200D01*
X-190560Y-30102067D01*
G37*
G36*
X2509440Y-28452067D02*
G01*
X2525921Y-28463079D01*
X2536933Y-28479560D01*
X2540800Y-28499000D01*
X2540800Y-29099000D01*
X2536933Y-29118440D01*
X2525921Y-29134921D01*
X2509440Y-29145933D01*
X2490000Y-29149800D01*
X790000Y-29149800D01*
X770560Y-29145933D01*
X754079Y-29134921D01*
X743067Y-29118440D01*
X739200Y-29099000D01*
X739200Y-28499000D01*
X743067Y-28479560D01*
X754079Y-28463079D01*
X770560Y-28452067D01*
X790000Y-28448200D01*
X2490000Y-28448200D01*
X2509440Y-28452067D01*
G37*
G36*
X2509440Y-27202067D02*
G01*
X2525921Y-27213079D01*
X2536933Y-27229560D01*
X2540800Y-27249000D01*
X2540800Y-27849000D01*
X2536933Y-27868440D01*
X2525921Y-27884921D01*
X2509440Y-27895933D01*
X2490000Y-27899800D01*
X790000Y-27899800D01*
X770560Y-27895933D01*
X754079Y-27884921D01*
X743067Y-27868440D01*
X739200Y-27849000D01*
X739200Y-27249000D01*
X743067Y-27229560D01*
X754079Y-27213079D01*
X770560Y-27202067D01*
X790000Y-27198200D01*
X2490000Y-27198200D01*
X2509440Y-27202067D01*
G37*
G36*
X2509440Y-25952067D02*
G01*
X2525921Y-25963079D01*
X2536933Y-25979560D01*
X2540800Y-25999000D01*
X2540800Y-26599000D01*
X2536933Y-26618440D01*
X2525921Y-26634921D01*
X2509440Y-26645933D01*
X2490000Y-26649800D01*
X790000Y-26649800D01*
X770560Y-26645933D01*
X754079Y-26634921D01*
X743067Y-26618440D01*
X739200Y-26599000D01*
X739200Y-25999000D01*
X743067Y-25979560D01*
X754079Y-25963079D01*
X770560Y-25952067D01*
X790000Y-25948200D01*
X2490000Y-25948200D01*
X2509440Y-25952067D01*
G37*
G36*
X2509440Y-24702067D02*
G01*
X2525921Y-24713079D01*
X2536933Y-24729560D01*
X2540800Y-24749000D01*
X2540800Y-25349000D01*
X2536933Y-25368440D01*
X2525921Y-25384921D01*
X2509440Y-25395933D01*
X2490000Y-25399800D01*
X790000Y-25399800D01*
X770560Y-25395933D01*
X754079Y-25384921D01*
X743067Y-25368440D01*
X739200Y-25349000D01*
X739200Y-24749000D01*
X743067Y-24729560D01*
X754079Y-24713079D01*
X770560Y-24702067D01*
X790000Y-24698200D01*
X2490000Y-24698200D01*
X2509440Y-24702067D01*
G37*
G36*
X-190560Y-22652067D02*
G01*
X-174079Y-22663079D01*
X-163067Y-22679560D01*
X-159200Y-22699000D01*
X-159200Y-23699000D01*
X-163067Y-23718440D01*
X-174079Y-23734921D01*
X-190560Y-23745933D01*
X-210000Y-23749800D01*
X-2910000Y-23749800D01*
X-2929440Y-23745933D01*
X-2945921Y-23734921D01*
X-2956933Y-23718440D01*
X-2960800Y-23699000D01*
X-2960800Y-22699000D01*
X-2956933Y-22679560D01*
X-2945921Y-22663079D01*
X-2929440Y-22652067D01*
X-2910000Y-22648200D01*
X-210000Y-22648200D01*
X-190560Y-22652067D01*
G37*
G36*
X-46560Y-20252067D02*
G01*
X-30079Y-20263079D01*
X-19067Y-20279560D01*
X-15200Y-20299000D01*
X-15200Y-22099000D01*
X-19067Y-22118440D01*
X-30079Y-22134921D01*
X-46560Y-22145933D01*
X-66000Y-22149800D01*
X-1966000Y-22149800D01*
X-1985440Y-22145933D01*
X-2001921Y-22134921D01*
X-2012933Y-22118440D01*
X-2016800Y-22099000D01*
X-2016800Y-20299000D01*
X-2012933Y-20279560D01*
X-2001921Y-20263079D01*
X-1985440Y-20252067D01*
X-1966000Y-20248200D01*
X-66000Y-20248200D01*
X-46560Y-20252067D01*
G37*
G36*
X2353440Y-19402067D02*
G01*
X2369921Y-19413079D01*
X2380933Y-19429560D01*
X2384800Y-19449000D01*
X2384800Y-21549000D01*
X2380933Y-21568440D01*
X2369921Y-21584921D01*
X2353440Y-21595933D01*
X2334000Y-21599800D01*
X734000Y-21599800D01*
X714560Y-21595933D01*
X698079Y-21584921D01*
X687067Y-21568440D01*
X683200Y-21549000D01*
X683200Y-19449000D01*
X687067Y-19429560D01*
X698079Y-19413079D01*
X714560Y-19402067D01*
X734000Y-19398200D01*
X2334000Y-19398200D01*
X2353440Y-19402067D01*
G37*
G36*
X-46560Y-17602067D02*
G01*
X-30079Y-17613079D01*
X-19067Y-17629560D01*
X-15200Y-17649000D01*
X-15200Y-19549000D01*
X-19067Y-19568440D01*
X-30079Y-19584921D01*
X-46560Y-19595933D01*
X-66000Y-19599800D01*
X-1966000Y-19599800D01*
X-1985440Y-19595933D01*
X-2001921Y-19584921D01*
X-2012933Y-19568440D01*
X-2016800Y-19549000D01*
X-2016800Y-17649000D01*
X-2012933Y-17629560D01*
X-2001921Y-17613079D01*
X-1985440Y-17602067D01*
X-1966000Y-17598200D01*
X-66000Y-17598200D01*
X-46560Y-17602067D01*
G37*
G36*
X2353440Y-15852067D02*
G01*
X2369921Y-15863079D01*
X2380933Y-15879560D01*
X2384800Y-15899000D01*
X2384800Y-16299000D01*
X2380933Y-16318440D01*
X2369921Y-16334921D01*
X2353440Y-16345933D01*
X2348434Y-16346928D01*
X2314364Y-16369694D01*
X2314364Y-16478306D01*
X2348435Y-16501071D01*
X2353440Y-16502067D01*
X2369921Y-16513079D01*
X2380933Y-16529560D01*
X2384800Y-16549000D01*
X2384800Y-16949000D01*
X2380933Y-16968440D01*
X2369921Y-16984921D01*
X2353440Y-16995933D01*
X2348434Y-16996928D01*
X2314364Y-17019694D01*
X2314364Y-17128306D01*
X2348435Y-17151071D01*
X2353440Y-17152067D01*
X2369921Y-17163079D01*
X2380933Y-17179560D01*
X2384800Y-17199000D01*
X2384800Y-17599000D01*
X2380933Y-17618440D01*
X2369921Y-17634921D01*
X2353440Y-17645933D01*
X2348434Y-17646928D01*
X2314364Y-17669694D01*
X2314364Y-17778306D01*
X2348435Y-17801071D01*
X2353440Y-17802067D01*
X2369921Y-17813079D01*
X2380933Y-17829560D01*
X2384800Y-17849000D01*
X2384800Y-18249000D01*
X2380933Y-18268440D01*
X2369921Y-18284921D01*
X2353440Y-18295933D01*
X2348434Y-18296928D01*
X2314364Y-18319694D01*
X2314364Y-18428306D01*
X2348435Y-18451071D01*
X2353440Y-18452067D01*
X2369921Y-18463079D01*
X2380933Y-18479560D01*
X2384800Y-18499000D01*
X2384800Y-18899000D01*
X2380933Y-18918440D01*
X2369921Y-18934921D01*
X2353440Y-18945933D01*
X2334000Y-18949800D01*
X984000Y-18949800D01*
X964560Y-18945933D01*
X948079Y-18934921D01*
X937067Y-18918440D01*
X933200Y-18899000D01*
X933200Y-18499000D01*
X937067Y-18479560D01*
X948079Y-18463079D01*
X964560Y-18452067D01*
X969561Y-18451072D01*
X1003635Y-18428305D01*
X1003635Y-18319695D01*
X969562Y-18296928D01*
X964560Y-18295933D01*
X948079Y-18284921D01*
X937067Y-18268440D01*
X933200Y-18249000D01*
X933200Y-17849000D01*
X937067Y-17829560D01*
X948079Y-17813079D01*
X964560Y-17802067D01*
X969561Y-17801072D01*
X1003635Y-17778305D01*
X1003635Y-17669695D01*
X969562Y-17646928D01*
X964560Y-17645933D01*
X948079Y-17634921D01*
X937067Y-17618440D01*
X933200Y-17599000D01*
X933200Y-17199000D01*
X937067Y-17179560D01*
X948079Y-17163079D01*
X964560Y-17152067D01*
X969561Y-17151072D01*
X1003635Y-17128305D01*
X1003635Y-17019695D01*
X969562Y-16996928D01*
X964560Y-16995933D01*
X948079Y-16984921D01*
X937067Y-16968440D01*
X933200Y-16949000D01*
X933200Y-16549000D01*
X937067Y-16529560D01*
X948079Y-16513079D01*
X964560Y-16502067D01*
X969561Y-16501072D01*
X1003635Y-16478305D01*
X1003635Y-16369695D01*
X969562Y-16346928D01*
X964560Y-16345933D01*
X948079Y-16334921D01*
X937067Y-16318440D01*
X933200Y-16299000D01*
X933200Y-15899000D01*
X937067Y-15879560D01*
X948079Y-15863079D01*
X964560Y-15852067D01*
X984000Y-15848200D01*
X2334000Y-15848200D01*
X2353440Y-15852067D01*
G37*
G36*
X-46560Y-15202067D02*
G01*
X-30079Y-15213079D01*
X-19067Y-15229560D01*
X-15200Y-15249000D01*
X-15200Y-17149000D01*
X-19067Y-17168440D01*
X-30079Y-17184921D01*
X-46560Y-17195933D01*
X-66000Y-17199800D01*
X-1966000Y-17199800D01*
X-1985440Y-17195933D01*
X-2001921Y-17184921D01*
X-2012933Y-17168440D01*
X-2016800Y-17149000D01*
X-2016800Y-15249000D01*
X-2012933Y-15229560D01*
X-2001921Y-15213079D01*
X-1985440Y-15202067D01*
X-1966000Y-15198200D01*
X-66000Y-15198200D01*
X-46560Y-15202067D01*
G37*
G36*
X2353440Y-13202067D02*
G01*
X2369921Y-13213079D01*
X2380933Y-13229560D01*
X2384800Y-13249000D01*
X2384800Y-15349000D01*
X2380933Y-15368440D01*
X2369921Y-15384921D01*
X2353440Y-15395933D01*
X2334000Y-15399800D01*
X734000Y-15399800D01*
X714560Y-15395933D01*
X698079Y-15384921D01*
X687067Y-15368440D01*
X683200Y-15349000D01*
X683200Y-13249000D01*
X687067Y-13229560D01*
X698079Y-13213079D01*
X714560Y-13202067D01*
X734000Y-13198200D01*
X2334000Y-13198200D01*
X2353440Y-13202067D01*
G37*
G36*
X-46560Y-12652067D02*
G01*
X-30079Y-12663079D01*
X-19067Y-12679560D01*
X-15200Y-12699000D01*
X-15200Y-14499000D01*
X-19067Y-14518440D01*
X-30079Y-14534921D01*
X-46560Y-14545933D01*
X-66000Y-14549800D01*
X-1966000Y-14549800D01*
X-1985440Y-14545933D01*
X-2001921Y-14534921D01*
X-2012933Y-14518440D01*
X-2016800Y-14499000D01*
X-2016800Y-12699000D01*
X-2012933Y-12679560D01*
X-2001921Y-12663079D01*
X-1985440Y-12652067D01*
X-1966000Y-12648200D01*
X-66000Y-12648200D01*
X-46560Y-12652067D01*
G37*
G36*
X-1580560Y-10794067D02*
G01*
X-1564079Y-10805079D01*
X-1553067Y-10821560D01*
X-1549200Y-10841000D01*
X-1549200Y-11841000D01*
X-1553067Y-11860440D01*
X-1564079Y-11876921D01*
X-1580560Y-11887933D01*
X-1600000Y-11891800D01*
X-2500000Y-11891800D01*
X-2519440Y-11887933D01*
X-2535921Y-11876921D01*
X-2546933Y-11860440D01*
X-2550800Y-11841000D01*
X-2550800Y-10841000D01*
X-2546933Y-10821560D01*
X-2535921Y-10805079D01*
X-2519440Y-10794067D01*
X-2500000Y-10790200D01*
X-1600000Y-10790200D01*
X-1580560Y-10794067D01*
G37*
G36*
X2519440Y-10794067D02*
G01*
X2535921Y-10805079D01*
X2546933Y-10821560D01*
X2550800Y-10841000D01*
X2550800Y-11841000D01*
X2546933Y-11860440D01*
X2535921Y-11876921D01*
X2519440Y-11887933D01*
X2500000Y-11891800D01*
X1600000Y-11891800D01*
X1580560Y-11887933D01*
X1564079Y-11876921D01*
X1553067Y-11860440D01*
X1549200Y-11841000D01*
X1549200Y-10841000D01*
X1553067Y-10821560D01*
X1564079Y-10805079D01*
X1580560Y-10794067D01*
X1600000Y-10790200D01*
X2500000Y-10790200D01*
X2519440Y-10794067D01*
G37*
G36*
X-1580560Y-9194067D02*
G01*
X-1564079Y-9205079D01*
X-1553067Y-9221560D01*
X-1549200Y-9241000D01*
X-1549200Y-10241000D01*
X-1553067Y-10260440D01*
X-1564079Y-10276921D01*
X-1580560Y-10287933D01*
X-1600000Y-10291800D01*
X-2500000Y-10291800D01*
X-2519440Y-10287933D01*
X-2535921Y-10276921D01*
X-2546933Y-10260440D01*
X-2550800Y-10241000D01*
X-2550800Y-9241000D01*
X-2546933Y-9221560D01*
X-2535921Y-9205079D01*
X-2519440Y-9194067D01*
X-2500000Y-9190200D01*
X-1600000Y-9190200D01*
X-1580560Y-9194067D01*
G37*
G36*
X2519440Y-9194067D02*
G01*
X2535921Y-9205079D01*
X2546933Y-9221560D01*
X2550800Y-9241000D01*
X2550800Y-10241000D01*
X2546933Y-10260440D01*
X2535921Y-10276921D01*
X2519440Y-10287933D01*
X2500000Y-10291800D01*
X1600000Y-10291800D01*
X1580560Y-10287933D01*
X1564079Y-10276921D01*
X1553067Y-10260440D01*
X1549200Y-10241000D01*
X1549200Y-9241000D01*
X1553067Y-9221560D01*
X1564079Y-9205079D01*
X1580560Y-9194067D01*
X1600000Y-9190200D01*
X2500000Y-9190200D01*
X2519440Y-9194067D01*
G37*
G36*
X-504132Y-5607190D02*
G01*
X-489356Y-5613713D01*
X-480441Y-5615126D01*
X-443302Y-5634048D01*
X-403007Y-5651841D01*
X-397422Y-5657425D01*
X-396935Y-5657674D01*
X-330674Y-5723935D01*
X-330425Y-5724422D01*
X-324841Y-5730007D01*
X-307048Y-5770302D01*
X-288126Y-5807441D01*
X-286713Y-5816356D01*
X-280190Y-5831132D01*
X-272200Y-5900000D01*
X-272200Y-6800000D01*
X-280190Y-6868868D01*
X-286714Y-6883643D01*
X-288126Y-6892558D01*
X-307045Y-6929689D01*
X-324841Y-6969993D01*
X-330426Y-6975578D01*
X-330674Y-6976064D01*
X-396935Y-7042325D01*
X-397420Y-7042572D01*
X-403007Y-7048159D01*
X-443317Y-7065957D01*
X-480441Y-7084873D01*
X-489353Y-7086284D01*
X-504132Y-7092810D01*
X-573000Y-7100800D01*
X-1223000Y-7100800D01*
X-1291868Y-7092810D01*
X-1306647Y-7086284D01*
X-1315558Y-7084873D01*
X-1352675Y-7065960D01*
X-1392993Y-7048159D01*
X-1398580Y-7042571D01*
X-1399064Y-7042325D01*
X-1465325Y-6976064D01*
X-1465571Y-6975580D01*
X-1471159Y-6969993D01*
X-1488960Y-6929675D01*
X-1507873Y-6892558D01*
X-1509284Y-6883647D01*
X-1515810Y-6868868D01*
X-1523800Y-6800000D01*
X-1523800Y-5900000D01*
X-1515810Y-5831132D01*
X-1509284Y-5816353D01*
X-1507873Y-5807441D01*
X-1488957Y-5770317D01*
X-1471159Y-5730007D01*
X-1465572Y-5724420D01*
X-1465325Y-5723935D01*
X-1399064Y-5657674D01*
X-1398578Y-5657426D01*
X-1392993Y-5651841D01*
X-1352689Y-5634045D01*
X-1315558Y-5615126D01*
X-1306643Y-5613714D01*
X-1291868Y-5607190D01*
X-1223000Y-5599200D01*
X-573000Y-5599200D01*
X-504132Y-5607190D01*
G37*
G36*
X1545868Y-5607190D02*
G01*
X1560643Y-5613714D01*
X1569558Y-5615126D01*
X1606689Y-5634045D01*
X1646993Y-5651841D01*
X1652578Y-5657426D01*
X1653064Y-5657674D01*
X1719325Y-5723935D01*
X1719572Y-5724420D01*
X1725159Y-5730007D01*
X1742957Y-5770317D01*
X1761873Y-5807441D01*
X1763284Y-5816353D01*
X1769810Y-5831132D01*
X1777800Y-5900000D01*
X1777800Y-6800000D01*
X1769810Y-6868868D01*
X1763284Y-6883647D01*
X1761873Y-6892558D01*
X1742960Y-6929675D01*
X1725159Y-6969993D01*
X1719571Y-6975580D01*
X1719325Y-6976064D01*
X1653064Y-7042325D01*
X1652580Y-7042571D01*
X1646993Y-7048159D01*
X1606675Y-7065960D01*
X1569558Y-7084873D01*
X1560647Y-7086284D01*
X1545868Y-7092810D01*
X1477000Y-7100800D01*
X827000Y-7100800D01*
X758132Y-7092810D01*
X743353Y-7086284D01*
X734441Y-7084873D01*
X697317Y-7065957D01*
X657007Y-7048159D01*
X651420Y-7042572D01*
X650935Y-7042325D01*
X584674Y-6976064D01*
X584426Y-6975578D01*
X578841Y-6969993D01*
X561045Y-6929689D01*
X542126Y-6892558D01*
X540714Y-6883643D01*
X534190Y-6868868D01*
X526200Y-6800000D01*
X526200Y-5900000D01*
X534190Y-5831132D01*
X540713Y-5816356D01*
X542126Y-5807441D01*
X561048Y-5770302D01*
X578841Y-5730007D01*
X584425Y-5724422D01*
X584674Y-5723935D01*
X650935Y-5657674D01*
X651422Y-5657425D01*
X657007Y-5651841D01*
X697302Y-5634048D01*
X734441Y-5615126D01*
X743356Y-5613713D01*
X758132Y-5607190D01*
X827000Y-5599200D01*
X1477000Y-5599200D01*
X1545868Y-5607190D01*
G37*
G36*
X3980870Y-16143D02*
G01*
X4020646Y-16143D01*
X4065515Y-25680D01*
X4115195Y-31278D01*
X4151322Y-43919D01*
X4184290Y-50927D01*
X4231797Y-72078D01*
X4284454Y-90504D01*
X4311864Y-107726D01*
X4337121Y-118972D01*
X4384216Y-153188D01*
X4436291Y-185909D01*
X4454990Y-204608D01*
X4472463Y-217303D01*
X4515657Y-265275D01*
X4563091Y-312709D01*
X4574002Y-330074D01*
X4584408Y-341631D01*
X4620013Y-403300D01*
X4658496Y-464546D01*
X4663300Y-478275D01*
X4668055Y-486511D01*
X4692399Y-561437D01*
X4717722Y-633805D01*
X4718682Y-642329D01*
X4719753Y-645624D01*
X4729463Y-738014D01*
X4737800Y-812000D01*
X4729462Y-885992D01*
X4719753Y-978375D01*
X4718682Y-981669D01*
X4717722Y-990195D01*
X4692395Y-1062575D01*
X4668055Y-1137488D01*
X4663300Y-1145722D01*
X4658496Y-1159454D01*
X4620006Y-1220710D01*
X4584408Y-1282368D01*
X4574004Y-1293922D01*
X4563091Y-1311291D01*
X4515648Y-1358733D01*
X4472463Y-1406696D01*
X4454994Y-1419387D01*
X4436291Y-1438091D01*
X4384205Y-1470818D01*
X4337121Y-1505027D01*
X4311869Y-1516269D01*
X4284454Y-1533496D01*
X4231787Y-1551924D01*
X4184290Y-1573072D01*
X4151328Y-1580078D01*
X4115195Y-1592722D01*
X4065512Y-1598319D01*
X4020646Y-1607857D01*
X3980870Y-1607857D01*
X3937000Y-1612800D01*
X3893130Y-1607857D01*
X3853354Y-1607857D01*
X3808486Y-1598319D01*
X3758805Y-1592722D01*
X3722673Y-1580078D01*
X3689709Y-1573072D01*
X3642208Y-1551923D01*
X3589546Y-1533496D01*
X3562132Y-1516271D01*
X3536878Y-1505027D01*
X3489786Y-1470813D01*
X3437709Y-1438091D01*
X3419008Y-1419390D01*
X3401536Y-1406696D01*
X3358341Y-1358723D01*
X3310909Y-1311291D01*
X3299998Y-1293926D01*
X3289591Y-1282368D01*
X3253981Y-1220691D01*
X3215504Y-1159454D01*
X3210700Y-1145726D01*
X3205944Y-1137488D01*
X3181590Y-1062535D01*
X3156278Y-990195D01*
X3155317Y-981674D01*
X3154246Y-978375D01*
X3144522Y-885859D01*
X3136200Y-812000D01*
X3144521Y-738146D01*
X3154246Y-645624D01*
X3155318Y-642324D01*
X3156278Y-633805D01*
X3181586Y-561477D01*
X3205944Y-486511D01*
X3210701Y-478270D01*
X3215504Y-464546D01*
X3253974Y-403320D01*
X3289591Y-341631D01*
X3300000Y-330070D01*
X3310909Y-312709D01*
X3358330Y-265287D01*
X3401533Y-217306D01*
X3419008Y-204609D01*
X3437709Y-185909D01*
X3489785Y-153187D01*
X3536882Y-118970D01*
X3562139Y-107724D01*
X3589546Y-90504D01*
X3642197Y-72080D01*
X3689709Y-50927D01*
X3722678Y-43918D01*
X3758805Y-31278D01*
X3808484Y-25680D01*
X3853354Y-16143D01*
X3893130Y-16143D01*
X3937000Y-11200D01*
X3980870Y-16143D01*
G37*
M02*
