M48
; DRILL file {KiCad 8.0.4} date 2024-08-23T15:35:16+1200
; FORMAT={-:-/ absolute / metric / decimal}
; #@! TF.CreationDate,2024-08-23T15:35:16+12:00
; #@! TF.GenerationSoftware,Kicad,Pcbnew,8.0.4
; #@! TF.FileFunction,Plated,1,2,PTH
FMAT,2
METRIC
; #@! TA.AperFunction,Plated,PTH,ViaDrill
T1C0.381
; #@! TA.AperFunction,Plated,PTH,ViaDrill
T2C0.508
; #@! TA.AperFunction,Plated,PTH,ComponentDrill
T3C1.000
%
G90
G05
T1
X0.508Y-11.43
X1.64Y-26.299
X1.778Y-31.877
X5.842Y-30.988
X5.969Y-19.177
X5.969Y-20.32
X6.096Y-29.337
X6.845Y-16.875
X9.779Y-10.414
X9.779Y-15.875
X11.811Y-3.302
X11.938Y-11.176
X12.7Y-7.874
X13.208Y-3.306
X13.589Y-7.874
X13.843Y-24.511
X13.843Y-25.781
X14.584Y-6.104
X15.691Y-29.967
X16.585Y-29.972
X16.764Y-15.24
X17.653Y-15.24
X18.542Y-15.24
X18.736Y-29.009
X20.066Y-29.591
X21.311Y-30.271
X22.352Y-30.226
X22.733Y-19.177
X22.733Y-20.32
X25.94Y-11.176
X28.961Y-9.411
X29.972Y-24.13
X30.113Y-6.477
X31.115Y-24.13
X31.115Y-13.367
X31.369Y-19.685
X31.623Y-14.097
X32.131Y-24.125
X32.227Y-14.914
X32.639Y-18.669
X32.639Y-20.701
X43.756Y-8.06
X46.228Y-9.449
X47.461Y-11.146
X53.848Y-29.337
X53.848Y-32.066
X54.102Y-11.049
X54.558Y-21.463
X55.858Y-24.003
X56.103Y-16.261
X56.388Y-26.035
X56.783Y-22.338
X57.277Y-26.035
X58.166Y-26.035
X60.96Y-21.717
T2
X0.594Y-18.796
X1.64Y-28.799
X5.334Y-24.003
X5.334Y-26.797
X5.715Y-41.529
X8.509Y-11.811
X9.398Y-34.544
X9.525Y-22.606
X11.049Y-11.811
X12.192Y-28.321
X12.319Y-14.859
X13.081Y-37.465
X13.843Y-21.803
X16.129Y-11.811
X18.669Y-40.767
X18.796Y-35.814
X19.939Y-26.416
X19.939Y-41.097
X21.59Y-5.69
X21.971Y-1.905
X22.033Y-15.265
X22.606Y-10.541
X22.86Y-32.436
X23.495Y-38.735
X25.153Y-18.491
X26.192Y-5.322
X26.638Y-33.179
X26.67Y-17.78
X27.432Y-26.924
X28.702Y-40.767
X29.464Y-3.048
X29.591Y-30.353
X29.972Y-19.812
X31.369Y-17.145
X32.046Y-25.326
X32.131Y-28.702
X34.417Y-11.303
X35.56Y-39.751
X40.458Y-41.351
X42.597Y-38.903
X44.323Y-2.921
X46.228Y-5.461
X46.482Y-29.718
X46.482Y-38.354
X46.863Y-21.082
X46.863Y-26.162
X47.309Y-12.954
X48.895Y-34.417
X48.895Y-40.767
X49.022Y-38.684
X49.403Y-6.604
X49.403Y-12.954
X49.829Y-2.881
X50.8Y-32.258
X51.943Y-9.779
X52.197Y-26.162
X53.721Y-25.4
X55.243Y-18.44
X55.499Y-40.64
X56.007Y-9.779
X56.261Y-37.338
X56.515Y-38.837
X56.896Y-1.905
X57.531Y-19.431
X59.563Y-40.005
X60.452Y-11.049
X60.833Y-29.591
T3
X3.937Y-0.812
X3.937Y-42.037
M30
